{
.appVersion = "3414";
.formatVersion = 3;
DisplayStrings = (
"2"
);
axes = (
{
name = Weight;
tag = wght;
}
);
classes = (
{
code = "alef alefwide ayin bet dalet daletwide finalkaf finalmem finalmemwide finalnun finalpe finaltsadi gimel he het hewide kaf kafwide lamed lamedwide mem nun pe qof resh reshwide samekh shin tav tavwide tet tsadi uni25CC vav vavvav vavyod yod yodyod zayin";
name = class1;
},
{
code = "uni0592 uni0593 uni0594 uni0595 uni0597 uni0598 uni059C uni059E uni059F uni05A1 uni05A8 uni05AB uni05AC uni05AF";
name = class3;
},
{
code = "alefmapiq alefpatah alefqamats betdagesh betrafe daletdagesh finalkafdagesh finalkafqamats finalkafsheva finalpedagesh gimeldagesh hedagesh kafdagesh kafrafe lameddagesh lamedholam lamedholamdagesh memdagesh nundagesh pedagesh perafe qofdagesh reshdagesh samekhdagesh shindagesh shindageshshindot shindageshsindot shinshindot shinsindot tavdagesh tetdagesh tsadidagesh vavdagesh vavholam yoddagesh yodyod_patah zayindagesh";
name = class6;
},
{
code = "hatafpatah hatafqamats hatafsegol hiriq meteg patah qamats qamatsqatan qubuts segol sheva tsere uni0591 uni0596 uni059B uni05A2 uni05A3 uni05A4 uni05A5 uni05A6 uni05A7 uni05AA uni05B105BD uni05B205BD uni05B305BD";
name = class10;
},
{
code = "uni0591 uni0596 uni059B uni05A2 uni05A3 uni05A4 uni05A5 uni05A6 uni05A7 uni05AA";
name = class12;
},
{
code = "hatafpatah hatafqamats hatafsegol hiriq meteg patah qamats qamatsqatan qubuts segol sheva tsere uni05B105BD uni05B205BD uni05B305BD";
name = class15;
},
{
code = "dalet daletdagesh daletwide gimel gimeldagesh lamed lameddagesh lamedholam lamedholamdagesh lamedwide nun nundagesh resh reshdagesh reshwide vav vavdagesh vavholam yod yoddagesh zayin zayindagesh";
name = class42;
},
{
code = "meteg uni0591 uni0596 uni05A3 uni05A4 uni05A5";
name = class51;
}
);
customParameters = (
{
name = glyphOrder;
value = (
.notdef,
.null,
nonmarkingreturn,
space,
exclam,
quotedbl,
numbersign,
dollar,
percent,
ampersand,
quotesingle,
parenleft,

glyphs = (
{
glyphname = .notdef;
lastChange = "2019-12-03 14:54:35 +0000";
layers = (
{
layerId = "BC15D09A-B757-48E3-911F-803B0089DB3F";
shapes = (
{
closed = 1;
nodes = (
(897,0,l),
(897,750,l),
(127,750,l),
(127,0,l)
);
},
{
closed = 1;
nodes = (
(768,129,l),
(256,129,l),
(256,621,l),
(768,621,l)
);
}
);
width = 1229;
}
);
note = .notdef;
},
{
glyphname = exclam;
lastChange = "2019-12-03 14:54:35 +0000";
layers = (
{
layerId = "BC15D09A-B757-48E3-911F-803B0089DB3F";
shapes = (
{
closed = 1;
nodes = (
(713,1348,l),
(517,1348,l),
(541,397,l),
(689,397,l)
);
},
{
closed = 1;
nodes = (
(709,0,l),
(709,201,l),
(515,201,l),
(515,0,l)
);
}
);
width = 1229;
}
);
note = exclam;
unicode = 33;
},
{
glyphname = quotedbl;
lastChange = "2019-12-03 14:54:35 +0000";
layers = (
{
layerId = "BC15D09A-B757-48E3-911F-803B0089DB3F";
shapes = (
{
closed = 1;
nodes = (
(950,1484,l),
(726,1484,l),
(766,845,l),
(908,845,l)
);
},
{
closed = 1;
nodes = (
(501,1484,l),
(277,1484,l),
(318,845,l),
(459,845,l)
);
}
);
width = 1229;
}
);
note = quotedbl;
unicode = 34;
},
{
glyphname = numbersign;
lastChange = "2019-12-03 14:54:35 +0000";
layers = (
{
layerId = "BC15D09A-B757-48E3-911F-803B0089DB3F";
shapes = (
{
closed = 1;
nodes = (
(1163,833,l),
(1163,941,l),
(952,941,l),
(1040,1349,l),
(930,1349,l),
(842,941,l),
(479,941,l),
(567,1349,l),
(457,1349,l),
(368,941,l),
(105,941,l),
(105,833,l),
(346,833,l),
(279,516,l),
(54,516,l),
(54,408,l),
(255,408,l),
(171,0,l),
(281,0,l),
(365,408,l),
(728,408,l),
(642,0,l),
(752,0,l),
(840,408,l),
(1123,408,l),
(1123,516,l),
(863,516,l),
(930,833,l)
);
},
{
closed = 1;
nodes = (
(819,833,l),
(752,516,l),
(390,516,l),
(459,833,l)
);
}
);
width = 1229;
}
);
note = numbersign;
unicode = 35;
},
{
glyphname = dollar;
lastChange = "2019-12-03 14:54:35 +0000";
layers = (
{
layerId = "BC15D09A-B757-48E3-911F-803B0089DB3F";
shapes = (
{
closed = 1;
nodes = (
(1150,460,o),
(1104,581,o),
(1012,673,o),
(858,745,o),
(686,787,q),
(686,1213,l),
(795,1206,o),
(923,1098,o),
(945,992,q),
(1119,1025,l),
(1074,1194,o),
(872,1339,o),
(686,1346,q),
(686,1476,l),
(558,1476,l),
(558,1346,l),
(349,1339,o),
(130,1172,o),
(130,1023,qs),
(130,929,o),
(203,793,o),
(360,696,o),
(528,655,qs),
(558,647,l),
(558,158,l),
(422,165,o),
(262,290,o),
(236,416,q),
(66,379,l),
(136,34,o),
(558,20,q),
(558,-141,l),
(686,-141,l),
(686,20,l),
(910,29,o),
(1150,218,o),
(1150,380,qs)
);
},
{
closed = 1;
nodes = (
(302,1109,o),
(432,1210,o),
(558,1215,q),
(558,802,l),
(439,833,o),
(349,884,o),
(302,961,o),
(302,1018,qs)
);
},
{
closed = 1;
nodes = (
(978,282,o),
(830,165,o),
(686,156,q),
(686,627,l),
(823,592,o),
(923,535,o),
(978,449,o),
(978,383,qs)
);
}
);
width = 1229;
}
);
note = dollar;
unicode = 36;
},
{
glyphname = percent;
lastChange = "2019-12-03 14:54:35 +0000";
layers = (
{
layerId = "BC15D09A-B757-48E3-911F-803B0089DB3F";
shapes = (
{
closed = 1;
nodes = (
(1155,1353,l),
(1008,1353,l),
(76,0,l),
(221,0,l)
);
},
{
closed = 1;
nodes = (
(140,1361,o),
(0,1192,o),
(0,1025,qs),
(0,856,o),
(146,684,o),
(287,684,qs),
(428,684,o),
(574,858,o),
(574,1025,qs),
(574,1361,o),
(291,1361,qs)
);
},
{
closed = 1;
nodes = (
(427,908,o),
(360,797,o),
(289,797,qs),
(213,797,o),
(147,909,o),
(147,1025,qs),
(147,1147,o),
(213,1253,o),
(290,1253,qs),
(364,1253,o),
(427,1144,o),
(427,1025,qs)
);
},
{
closed = 1;
nodes = (
(796,665,o),
(656,496,o),
(656,329,qs),
(656,160,o),
(802,-12,o),
(943,-12,qs),
(1084,-12,o),
(1230,162,o),
(1230,329,qs),
(1230,665,o),
(947,665,qs)
);
},
{
closed = 1;
nodes = (
(1083,212,o),
(1016,101,o),
(945,101,qs),
(869,101,o),
(803,213,o),
(803,329,qs),
(803,451,o),
(869,557,o),
(946,557,qs),
(1020,557,o),
(1083,448,o),
(1083,329,qs)
);
}
);
width = 1229;
}
);
note = percent;
unicode = 37;
},
{
glyphname = ampersand;
lastChange = "2019-12-03 14:54:35 +0000";
layers = (
{
layerId = "BC15D09A-B757-48E3-911F-803B0089DB3F";
shapes = (
{
closed = 1;
nodes = (
(1137,-12,o),
(1185,10,q),
(1185,145,l),
(1148,129,o),
(1090,129,qs),
(1050,129,o),
(953,180,o),
(910,234,q),
(1028,460,o),
(1072,696,q),
(927,739,l),
(890,515,o),
(802,333,q),
(657,491,o),
(525,722,q),
(704,797,o),
(853,898,o),
(932,1015,o),
(932,1090,qs),
(932,1213,o),
(757,1357,o),
(611,1357,qs),
(445,1357,o),
(260,1195,o),
(260,1059,qs),
(260,990,o),
(303,837,o),
(335,777,q),
(43,626,o),
(43,358,qs),
(43,180,o),
(262,-20,o),
(461,-20,qs),
(655,-20,o),
(808,117,q),
(858,58,o),
(999,-12,o),
(1072,-12,qs)
);
},
{
closed = 1;
nodes = (
(780,1038,o),
(728,963,o),
(630,900,o),
(469,832,q),
(408,946,o),
(408,1056,qs),
(408,1138,o),
(519,1236,o),
(608,1236,qs),
(684,1236,o),
(780,1155,o),
(780,1085,qs)
);
},
{
closed = 1;
nodes = (
(658,166,o),
(533,111,o),
(469,111,qs),
(349,111,o),
(211,247,o),
(211,362,qs),
(211,561,o),
(390,658,q),
(526,420,o),
(706,217,q)
);
}
);
width = 1229;
}
);
note = ampersand;
unicode = 38;
},
{
glyphname = quotesingle;
lastChange = "2019-12-03 14:54:35 +0000";
layers = (
{
layerId = "BC15D09A-B757-48E3-911F-803B0089DB3F";
shapes = (
{
closed = 1;
nodes = (
(726,1484,l),
(502,1484,l),
(543,845,l),
(684,845,l)
);
}
);
width = 1229;
}
);
note = quotesingle;
unicode = 39;
},
{
glyphname = parenleft;
lastChange = "2019-12-03 14:54:35 +0000";
layers = (
{
layerId = "BC15D09A-B757-48E3-911F-803B0089DB3F";
shapes = (
{
closed = 1;
nodes = (
(529,803,o),
(699,1248,o),
(891,1484,q),
(701,1484,l),
(506,1244,o),
(342,805,o),
(342,532,qs),
(342,254,o),
(509,-189,o),
(701,-425,q),
(891,-425,l),
(699,-189,o),
(529,255,o),
(529,530,qs)
);
}
);
width = 1229;
}
);
note = parenleft;
unicode = 40;
},
{
glyphname = parenright;
lastChange = "2019-12-03 14:54:35 +0000";
layers = (
{
layerId = "BC15D09A-B757-48E3-911F-803B0089DB3F";
shapes = (
{
closed = 1;
nodes = (
(885,808,o),
(723,1244,o),
(528,1484,q),
(336,1484,l),
(532,1243,o),
(700,798,o),
(700,530,qs),
(700,261,o),
(532,-184,o),
(336,-425,q),
(528,-425,l),
(720,-189,o),
(885,252,o),
(885,532,qs)
);
}
);
width = 1229;
}
);
note = parenright;
unicode = 41;
},
{
glyphname = asterisk;
lastChange = "2019-12-03 14:54:35 +0000";
layers = (
{
layerId = "BC15D09A-B757-48E3-911F-803B0089DB3F";
shapes = (
{
closed = 1;
nodes = (
(684,1483,l),
(548,1483,l),
(560,1186,l),
(293,1293,l),
(248,1159,l),
(528,1086,l),
(339,838,l),
(458,766,l),
(614,1022,l),
(764,764,l),
(883,836,l),
(698,1086,l),
(980,1159,l),
(935,1291,l),
(671,1188,l)
);
}
);
width = 1229;
}
);
note = asterisk;
unicode = 42;
},
{
glyphname = plus;
lastChange = "2019-12-03 14:54:35 +0000";
layers = (
{
layerId = "BC15D09A-B757-48E3-911F-803B0089DB3F";
shapes = (
{
closed = 1;
nodes = (
(1111,608,l),
(1111,754,l),
(687,754,l),
(687,1182,l),
(540,1182,l),
(540,754,l),
(116,754,l),
(116,608,l),
(540,608,l),
(540,180,l),
(687,180,l),
(687,608,l)
);
}
);
width = 1229;
}
);
note = plus;
unicode = 43;
},
{
glyphname = comma;
lastChange = "2019-12-03 14:54:35 +0000";
layers = (
{
layerId = "BC15D09A-B757-48E3-911F-803B0089DB3F";
shapes = (
{
closed = 1;
nodes = (
(382,-363,l),
(693,299,l),
(428,299,l),
(259,-363,l)
);
}
);
width = 1229;
}
);
note = comma;
unicode = 44;
},
{
glyphname = hyphen;
lastChange = "2019-12-03 14:54:35 +0000";
layers = (
{
layerId = "BC15D09A-B757-48E3-911F-803B0089DB3F";
shapes = (
{
closed = 1;
nodes = (
(894,464,l),
(894,624,l),
(334,624,l),
(334,464,l)
);
}
);
width = 1229;
}
);
note = hyphen;
unicode = (45,173);
},
{
glyphname = period;
lastChange = "2019-12-03 14:54:35 +0000";
layers = (
{
layerId = "BC15D09A-B757-48E3-911F-803B0089DB3F";
shapes = (
{
closed = 1;
nodes = (
(731,0,l),
(731,299,l),
(496,299,l),
(496,0,l)
);
}
);
width = 1229;
}
);
note = period;
unicode = 46;
},
{
glyphname = slash;
lastChange = "2019-12-03 14:54:35 +0000";
layers = (
{
layerId = "BC15D09A-B757-48E3-911F-803B0089DB3F";
shapes = (
{
closed = 1;
nodes = (
(296,-20,l),
(1113,1484,l),
(935,1484,l),
(114,-20,l)
);
}
);
width = 1229;
}
);
note = slash;
unicode = 47;
},
{
glyphname = zero;
lastChange = "2019-12-03 14:54:35 +0000";
layers = (
{
layerId = "BC15D09A-B757-48E3-911F-803B0089DB3F";
shapes = (
{
closed = 1;
nodes = (
(1103,1021,o),
(866,1370,o),
(617,1370,qs),
(362,1370,o),
(124,1024,o),
(124,675,qs),
(124,335,o),
(368,-20,o),
(611,-20,qs),
(854,-20,o),
(1103,337,o),
(1103,675,qs)
);
},
{
closed = 1;
nodes = (
(920,397,o),
(772,127,o),
(613,127,qs),
(453,127,o),
(306,390,o),
(306,675,qs),
(306,968,o),
(451,1224,o),
(617,1224,qs),
(779,1224,o),
(920,965,o),
(920,675,qs)
);
},
{
closed = 1;
nodes = (
(731,555,l),
(731,804,l),
(496,804,l),
(496,555,l)
);
}
);
width = 1229;
}
);
note = zero;
unicode = 48;
},
{
glyphname = one;
lastChange = "2019-12-03 14:54:35 +0000";
layers = (
{
layerId = "BC15D09A-B757-48E3-911F-803B0089DB3F";
shapes = (
{
closed = 1;
nodes = (
(1130,0,l),
(1130,145,l),
(777,145,l),
(777,1349,l),
(611,1349,l),
(559,1250,o),
(296,1120,o),
(148,1120,q),
(148,972,l),
(282,972,o),
(559,1088,o),
(596,1166,q),
(596,145,l),
(157,145,l),
(157,0,l)
);
}
);
width = 1229;
}
);
note = one;
unicode = 49;
},
{
glyphname = two;
lastChange = "2019-12-03 14:54:35 +0000";
layers = (
{
layerId = "BC15D09A-B757-48E3-911F-803B0089DB3F";
shapes = (
{
closed = 1;
nodes = (
(1084,0,l),
(1084,146,l),
(361,146,l),
(394,219,o),
(553,374,o),
(759,538,qs),
(910,658,o),
(1062,887,o),
(1062,1002,qs),
(1062,1178,o),
(824,1370,o),
(611,1370,qs),
(417,1370,o),
(179,1171,o),
(159,1001,q),
(343,984,l),
(356,1097,o),
(497,1222,o),
(611,1222,qs),
(739,1222,o),
(877,1102,o),
(877,991,qs),
(877,904,o),
(737,716,o),
(578,589,qs),
(400,447,o),
(193,226,o),
(144,117,q),
(144,0,l)
);
}
);
width = 1229;
}
);
note = two;
unicode = 50;
},
{
glyphname = three;
lastChange = "2019-12-03 14:54:35 +0000";
layers = (
{
layerId = "BC15D09A-B757-48E3-911F-803B0089DB3F";
shapes = (
{
closed = 1;
nodes = (
(1099,494,o),
(916,672,o),
(765,689,q),
(765,693,l),
(902,721,o),
(1060,897,o),
(1060,1016,qs),
(1060,1183,o),
(825,1370,o),
(613,1370,qs),
(419,1370,o),
(172,1176,o),
(152,1003,q),
(333,989,l),
(345,1100,o),
(492,1222,o),
(611,1222,qs),
(742,1222,o),
(875,1103,o),
(875,997,qs),
(875,926,o),
(793,822,o),
(650,765,o),
(564,765,qs),
(466,765,l),
(466,609,l),
(568,609,ls),
(665,609,o),
(821,554,o),
(912,451,o),
(912,376,qs),
(912,255,o),
(757,129,o),
(621,129,qs),
(350,129,o),
(314,379,q),
(128,362,l),
(151,174,o),
(407,-20,o),
(621,-20,qs),
(847,-20,o),
(1099,184,o),
(1099,370,qs)
);
}
);
width = 1229;
}
);
note = three;
unicode = 51;
},
{
glyphname = four;
lastChange = "2019-12-03 14:54:35 +0000";
layers = (
{
layerId = "BC15D09A-B757-48E3-911F-803B0089DB3F";
shapes = (
{
closed = 1;
nodes = (
(1125,319,l),
(1125,461,l),
(937,461,l),
(937,1349,l),
(738,1349,l),
(103,459,l),
(103,319,l),
(757,319,l),
(757,0,l),
(937,0,l),
(937,319,l)
);
},
{
closed = 1;
nodes = (
(757,461,l),
(257,461,l),
(757,1154,l)
);
}
);
width = 1229;
}
);
note = four;
unicode = 52;
},
{
glyphname = five;
lastChange = "2019-12-03 14:54:35 +0000";
layers = (
{
layerId = "BC15D09A-B757-48E3-911F-803B0089DB3F";
shapes = (
{
closed = 1;
nodes = (
(1099,634,o),
(848,869,o),
(644,869,qs),
(470,869,o),
(353,779,q),
(382,1204,l),
(1017,1204,l),
(1017,1349,l),
(216,1349,l),
(169,621,l),
(345,621,l),
(408,676,o),
(534,722,o),
(607,722,qs),
(746,722,o),
(912,564,o),
(912,440,qs),
(912,295,o),
(744,127,o),
(603,127,qs),
(367,127,o),
(310,336,q),
(128,315,l),
(160,152,o),
(402,-20,o),
(599,-20,qs),
(754,-20,o),
(981,95,o),
(1099,305,o),
(1099,444,qs)
);
}
);
width = 1229;
}
);
note = five;
unicode = 53;
},
{
glyphname = six;
lastChange = "2019-12-03 14:54:35 +0000";
layers = (
{
layerId = "BC15D09A-B757-48E3-911F-803B0089DB3F";
shapes = (
{
closed = 1;
nodes = (
(1096,644,o),
(864,881,o),
(672,881,qs),
(557,881,o),
(379,786,o),
(330,695,q),
(330,946,o),
(500,1224,o),
(653,1224,qs),
(832,1224,o),
(885,1052,q),
(1057,1083,l),
(974,1370,o),
(655,1370,qs),
(415,1370,o),
(151,990,o),
(151,642,qs),
(151,325,o),
(405,-20,o),
(641,-20,qs),
(853,-20,o),
(1096,234,o),
(1096,446,qs)
);
},
{
closed = 1;
nodes = (
(913,293,o),
(762,125,o),
(635,125,qs),
(509,125,o),
(348,329,o),
(348,481,qs),
(348,556,o),
(423,675,o),
(555,742,o),
(629,742,qs),
(760,742,o),
(913,582,o),
(913,438,qs)
);
}
);
width = 1229;
}
);
note = six;
unicode = 54;
},
{
glyphname = seven;
lastChange = "2019-12-03 14:54:35 +0000";
layers = (
{
layerId = "BC15D09A-B757-48E3-911F-803B0089DB3F";
shapes = (
{
closed = 1;
nodes = (
(1069,1349,l),
(158,1349,l),
(158,1204,l),
(895,1204,l),
(653,872,o),
(408,263,o),
(408,0,q),
(596,0,l),
(596,530,o),
(1069,1210,q)
);
}
);
width = 1229;
}
);
note = seven;
unicode = 55;
},
{
glyphname = eight;
lastChange = "2019-12-03 14:54:35 +0000";
layers = (
{
layerId = "BC15D09A-B757-48E3-911F-803B0089DB3F";
shapes = (
{
closed = 1;
nodes = (
(1094,511,o),
(939,688,o),
(809,709,q),
(809,713,l),
(921,735,o),
(1059,909,o),
(1059,1022,qs),
(1059,1123,o),
(951,1281,o),
(747,1370,o),
(610,1370,qs),
(479,1370,o),
(277,1282,o),
(166,1122,o),
(166,1024,qs),
(166,912,o),
(302,738,o),
(414,711,q),
(414,707,l),
(291,686,o),
(133,505,o),
(133,376,qs),
(133,190,o),
(388,-20,o),
(614,-20,qs),
(845,-20,o),
(1094,194,o),
(1094,378,qs)
);
},
{
closed = 1;
nodes = (
(872,779,o),
(612,779,qs),
(488,779,o),
(350,901,o),
(350,1012,qs),
(350,1122,o),
(487,1236,o),
(610,1236,qs),
(737,1236,o),
(872,1123,o),
(872,1012,qs)
);
},
{
closed = 1;
nodes = (
(907,253,o),
(763,115,o),
(616,115,qs),
(470,115,o),
(319,256,o),
(319,391,qs),
(319,505,o),
(474,644,o),
(610,644,qs),
(751,644,o),
(907,515,o),
(907,395,qs)
);
}
);
width = 1229;
}
);
note = eight;
unicode = 56;
},
{
glyphname = nine;
lastChange = "2019-12-03 14:54:35 +0000";
layers = (
{
layerId = "BC15D09A-B757-48E3-911F-803B0089DB3F";
shapes = (
{
closed = 1;
nodes = (
(1087,1370,o),
(610,1370,qs),
(392,1370,o),
(141,1123,o),
(141,911,qs),
(141,706,o),
(370,451,o),
(559,451,qs),
(675,451,o),
(869,560,o),
(909,650,q),
(907,404,o),
(734,125,o),
(580,125,qs),
(396,125,o),
(342,301,q),
(170,274,l),
(213,119,o),
(412,-20,o),
(577,-20,qs),
(821,-20,o),
(1087,357,o),
(1087,703,qs)
);
},
{
closed = 1;
nodes = (
(891,785,o),
(813,662,o),
(678,593,o),
(602,593,qs),
(474,593,o),
(324,768,o),
(324,911,qs),
(324,1050,o),
(474,1224,o),
(604,1224,qs),
(731,1224,o),
(891,1023,o),
(891,862,qs)
);
}
);
width = 1229;
}
);
note = nine;
unicode = 57;
},
{
glyphname = colon;
lastChange = "2019-12-03 14:54:35 +0000";
layers = (
{
layerId = "BC15D09A-B757-48E3-911F-803B0089DB3F";
shapes = (
{
closed = 1;
nodes = (
(731,0,l),
(731,299,l),
(496,299,l),
(496,0,l)
);
},
{
closed = 1;
nodes = (
(731,783,l),
(731,1082,l),
(496,1082,l),
(496,783,l)
);
}
);
width = 1229;
}
);
note = colon;
unicode = 58;
},
{
glyphname = semicolon;
lastChange = "2019-12-03 14:54:35 +0000";
layers = (
{
layerId = "BC15D09A-B757-48E3-911F-803B0089DB3F";
shapes = (
{
closed = 1;
nodes = (
(731,783,l),
(731,1082,l),
(496,1082,l),
(496,783,l)
);
},
{
closed = 1;
nodes = (
(475,-363,l),
(786,299,l),
(521,299,l),
(352,-363,l)
);
}
);
width = 1229;
}
);
note = semicolon;
unicode = (59,894);
},
{
glyphname = less;
lastChange = "2019-12-03 14:54:35 +0000";
layers = (
{
layerId = "BC15D09A-B757-48E3-911F-803B0089DB3F";
shapes = (
{
closed = 1;
nodes = (
(1111,154,l),
(1111,307,l),
(253,674,l),
(1111,1040,l),
(1111,1194,l),
(116,776,l),
(116,571,l)
);
}
);
width = 1229;
}
);
note = less;
unicode = 60;
},
{
glyphname = equal;
lastChange = "2019-12-03 14:54:35 +0000";
layers = (
{
layerId = "BC15D09A-B757-48E3-911F-803B0089DB3F";
shapes = (
{
closed = 1;
nodes = (
(1111,856,l),
(1111,1004,l),
(116,1004,l),
(116,856,l)
);
},
{
closed = 1;
nodes = (
(1111,344,l),
(1111,492,l),
(116,492,l),
(116,344,l)
);
}
);
width = 1229;
}
);
note = equal;
unicode = 61;
},
{
glyphname = greater;
lastChange = "2019-12-03 14:54:35 +0000";
layers = (
{
layerId = "BC15D09A-B757-48E3-911F-803B0089DB3F";
shapes = (
{
closed = 1;
nodes = (
(1111,571,l),
(1111,776,l),
(116,1194,l),
(116,1040,l),
(974,674,l),
(116,307,l),
(116,154,l)
);
}
);
width = 1229;
}
);
note = greater;
unicode = 62;
},
{
glyphname = question;
lastChange = "2019-12-03 14:54:35 +0000";
layers = (
{
layerId = "BC15D09A-B757-48E3-911F-803B0089DB3F";
shapes = (
{
closed = 1;
nodes = (
(1073,1177,o),
(817,1370,o),
(594,1370,qs),
(387,1370,o),
(120,1157,o),
(94,960,q),
(278,948,l),
(292,1074,o),
(461,1220,o),
(596,1220,qs),
(732,1220,o),
(891,1103,o),
(891,994,qs),
(891,939,o),
(851,854,o),
(784,780,o),
(677,702,qs),
(582,631,o),
(503,538,o),
(458,427,o),
(456,357,q),
(631,357,l),
(632,412,o),
(673,498,o),
(744,572,o),
(854,652,qs),
(946,718,o),
(1029,815,o),
(1073,929,o),
(1073,1002,qs)
);
},
{
closed = 1;
nodes = (
(643,0,l),
(643,201,l),
(448,201,l),
(448,0,l)
);
}
);
width = 1229;
}
);
note = question;
unicode = 63;
},
{
glyphname = at;
lastChange = "2019-12-03 14:54:35 +0000";
layers = (
{
layerId = "BC15D09A-B757-48E3-911F-803B0089DB3F";
shapes = (
{
closed = 1;
nodes = (
(1189,972,o),
(1063,1303,o),
(830,1484,o),
(672,1484,qs),
(484,1484,o),
(198,1243,o),
(44,800,o),
(44,514,qs),
(44,276,o),
(178,-89,o),
(429,-283,o),
(594,-283,qs),
(713,-283,o),
(929,-193,o),
(1044,-94,q),
(973,-7,l),
(872,-95,o),
(698,-165,o),
(604,-165,qs),
(402,-165,o),
(170,205,o),
(170,514,qs),
(170,763,o),
(294,1153,o),
(522,1368,o),
(670,1368,qs),
(850,1368,o),
(1068,1027,o),
(1068,753,qs),
(1068,504,o),
(969,206,o),
(891,206,qs),
(842,206,o),
(842,294,qs),
(842,362,o),
(882,572,qs),
(981,1079,l),
(865,1079,l),
(833,928,l),
(828,928,l),
(806,1018,o),
(715,1101,o),
(644,1101,qs),
(541,1101,o),
(374,936,o),
(277,650,o),
(277,489,qs),
(277,304,o),
(396,104,o),
(502,104,qs),
(580,104,o),
(703,211,o),
(737,299,q),
(743,299,l),
(741,269,l),
(741,261,ls),
(741,104,o),
(884,104,qs),
(1024,104,o),
(1189,457,o),
(1189,755,qs)
);
},
{
closed = 1;
nodes = (
(775,714,o),
(718,400,o),
(600,210,o),
(526,210,qs),
(412,210,o),
(412,491,qs),
(412,623,o),
(477,866,o),
(583,999,o),
(646,999,qs),
(705,999,o),
(775,890,o),
(775,784,qs)
);
}
);
width = 1229;
}
);
note = at;
unicode = 64;
},
{
glyphname = A;
lastChange = "2019-12-03 14:54:35 +0000";
layers = (
{
layerId = "BC15D09A-B757-48E3-911F-803B0089DB3F";
shapes = (
{
closed = 1;
nodes = (
(1228,0,l),
(727,1349,l),
(510,1349,l),
(0,0,l),
(196,0,l),
(333,382,l),
(896,382,l),
(1034,0,l)
);
},
{
closed = 1;
nodes = (
(674,1031,l),
(847,531,l),
(384,531,l),
(535,954,l),
(604,1166,l),
(616,1205,l)
);
}
);
width = 1229;
}
);
note = A;
unicode = 65;
},
{
glyphname = B;
lastChange = "2019-12-03 14:54:35 +0000";
layers = (
{
layerId = "BC15D09A-B757-48E3-911F-803B0089DB3F";
shapes = (
{
closed = 1;
nodes = (
(1152,515,o),
(969,693,o),
(802,711,q),
(926,736,o),
(1070,900,o),
(1070,1022,qs),
(1070,1349,o),
(574,1349,qs),
(162,1349,l),
(162,0,l),
(634,0,ls),
(878,0,o),
(1152,200,o),
(1152,380,qs)
);
},
{
closed = 1;
nodes = (
(878,780,o),
(578,780,qs),
(353,780,l),
(353,1196,l),
(576,1196,ls),
(727,1196,o),
(878,1105,o),
(878,998,qs)
);
},
{
closed = 1;
nodes = (
(959,274,o),
(794,153,o),
(619,153,qs),
(353,153,l),
(353,631,l),
(605,631,ls),
(781,631,o),
(959,511,o),
(959,397,qs)
);
}
);
width = 1229;
}
);
note = B;
unicode = 66;
},
{
glyphname = C;
lastChange = "2019-12-03 14:54:35 +0000";
layers = (
{
layerId = "BC15D09A-B757-48E3-911F-803B0089DB3F";
shapes = (
{
closed = 1;
nodes = (
(314,956,o),
(479,1214,o),
(650,1214,qs),
(753,1214,o),
(910,1083,o),
(947,970,q),
(1115,1035,l),
(988,1370,o),
(649,1370,qs),
(113,1370,o),
(113,681,qs),
(113,342,o),
(396,-20,o),
(659,-20,qs),
(993,-20,o),
(1142,352,q),
(983,417,l),
(926,272,o),
(762,135,o),
(661,135,qs),
(485,135,o),
(314,408,o),
(314,681,qs)
);
}
);
width = 1229;
}
);
note = C;
unicode = 67;
},
{
glyphname = D;
lastChange = "2019-12-03 14:54:35 +0000";
layers = (
{
layerId = "BC15D09A-B757-48E3-911F-803B0089DB3F";
shapes = (
{
closed = 1;
nodes = (
(1125,1020,o),
(802,1349,o),
(473,1349,qs),
(162,1349,l),
(162,0,l),
(532,0,ls),
(818,0,o),
(1125,357,o),
(1125,688,qs)
);
},
{
closed = 1;
nodes = (
(933,422,o),
(727,156,o),
(515,156,qs),
(353,156,l),
(353,1193,l),
(474,1193,ls),
(713,1193,o),
(933,952,o),
(933,688,qs)
);
}
);
width = 1229;
}
);
note = D;
unicode = 68;
},
{
glyphname = E;
lastChange = "2019-12-03 14:54:35 +0000";
layers = (
{
layerId = "BC15D09A-B757-48E3-911F-803B0089DB3F";
shapes = (
{
closed = 1;
nodes = (
(1122,0,l),
(1122,156,l),
(353,156,l),
(353,617,l),
(1021,617,l),
(1021,771,l),
(353,771,l),
(353,1193,l),
(1081,1193,l),
(1081,1349,l),
(162,1349,l),
(162,0,l)
);
}
);
width = 1229;
}
);
note = E;
unicode = 69;
},
{
glyphname = F;
lastChange = "2019-12-03 14:54:35 +0000";
layers = (
{
layerId = "BC15D09A-B757-48E3-911F-803B0089DB3F";
shapes = (
{
closed = 1;
nodes = (
(1085,1193,l),
(1085,1349,l),
(194,1349,l),
(194,0,l),
(385,0,l),
(385,541,l),
(1061,541,l),
(1061,699,l),
(385,699,l),
(385,1193,l)
);
}
);
width = 1229;
}
);
note = F;
unicode = 70;
},
{
glyphname = G;
lastChange = "2019-12-03 14:54:35 +0000";
layers = (
{
layerId = "BC15D09A-B757-48E3-911F-803B0089DB3F";
shapes = (
{
closed = 1;
nodes = (
(1101,705,l),
(622,705,l),
(622,545,l),
(915,545,l),
(915,209,l),
(869,177,o),
(723,135,o),
(655,135,qs),
(314,135,o),
(314,681,qs),
(314,962,o),
(475,1214,o),
(644,1214,qs),
(852,1214,o),
(932,983,q),
(1103,1039,l),
(988,1370,o),
(642,1370,qs),
(377,1370,o),
(113,1028,o),
(113,681,qs),
(113,351,o),
(389,-20,o),
(639,-20,qs),
(872,-20,o),
(1101,133,q)
);
}
);
width = 1229;
}
);
note = G;
unicode = 71;
},
{
glyphname = H;
lastChange = "2019-12-03 14:54:35 +0000";
layers = (
{
layerId = "BC15D09A-B757-48E3-911F-803B0089DB3F";
shapes = (
{
closed = 1;
nodes = (
(1066,0,l),
(1066,1349,l),
(875,1349,l),
(875,783,l),
(353,783,l),
(353,1349,l),
(162,1349,l),
(162,0,l),
(353,0,l),
(353,623,l),
(875,623,l),
(875,0,l)
);
}
);
width = 1229;
}
);
note = H;
unicode = 72;
},
{
glyphname = I;
lastChange = "2019-12-03 14:54:35 +0000";
layers = (
{
layerId = "BC15D09A-B757-48E3-911F-803B0089DB3F";
shapes = (
{
closed = 1;
nodes = (
(202,1193,l),
(518,1193,l),
(518,156,l),
(202,156,l),
(202,0,l),
(1025,0,l),
(1025,156,l),
(709,156,l),
(709,1193,l),
(1025,1193,l),
(1025,1349,l),
(202,1349,l)
);
}
);
width = 1229;
}
);
note = I;
unicode = 73;
},
{
glyphname = J;
lastChange = "2019-12-03 14:54:35 +0000";
layers = (
{
layerId = "BC15D09A-B757-48E3-911F-803B0089DB3F";
shapes = (
{
closed = 1;
nodes = (
(986,1349,l),
(485,1349,l),
(485,1193,l),
(796,1193,l),
(796,416,ls),
(796,135,o),
(587,135,qs),
(498,135,o),
(381,263,o),
(363,381,q),
(176,350,l),
(211,158,o),
(415,-20,o),
(586,-20,qs),
(776,-20,o),
(986,211,o),
(986,420,qs)
);
}
);
width = 1229;
}
);
note = J;
unicode = 74;
},
{
glyphname = K;
lastChange = "2019-12-03 14:54:35 +0000";
layers = (
{
layerId = "BC15D09A-B757-48E3-911F-803B0089DB3F";
shapes = (
{
closed = 1;
nodes = (
(1227,0,l),
(646,777,l),
(1150,1349,l),
(925,1349,l),
(353,676,l),
(353,1349,l),
(162,1349,l),
(162,0,l),
(353,0,l),
(353,469,l),
(516,638,l),
(1003,0,l)
);
}
);
width = 1229;
}
);
note = K;
unicode = 75;
},
{
glyphname = L;
lastChange = "2019-12-03 14:54:35 +0000";
layers = (
{
layerId = "BC15D09A-B757-48E3-911F-803B0089DB3F";
shapes = (
{
closed = 1;
nodes = (
(1100,0,l),
(1100,156,l),
(428,156,l),
(428,1349,l),
(237,1349,l),
(237,0,l)
);
}
);
width = 1229;
}
);
note = L;
unicode = 76;
},
{
glyphname = M;
lastChange = "2019-12-03 14:54:35 +0000";
layers = (
{
layerId = "BC15D09A-B757-48E3-911F-803B0089DB3F";
shapes = (
{
closed = 1;
nodes = (
(1099,0,l),
(1099,1349,l),
(874,1349,l),
(689,859,l),
(645,719,l),
(619,629,l),
(572,807,o),
(551,860,qs),
(366,1349,l),
(129,1349,l),
(129,0,l),
(289,0,l),
(289,868,l),
(285,1169,l),
(363,924,o),
(381,878,qs),
(547,440,l),
(684,440,l),
(848,878,ls),
(879,963,o),
(943,1169,q),
(940,1069,ls),
(937,1003,o),
(937,868,qs),
(937,0,l)
);
}
);
width = 1229;
}
);
note = M;
unicode = 77;
},
{
glyphname = N;
lastChange = "2019-12-03 14:54:35 +0000";
layers = (
{
layerId = "BC15D09A-B757-48E3-911F-803B0089DB3F";
shapes = (
{
closed = 1;
nodes = (
(1066,0,l),
(1066,1349,l),
(894,1349,l),
(894,485,ls),
(894,355,o),
(912,211,q),
(384,1349,l),
(162,1349,l),
(162,0,l),
(332,0,l),
(332,876,ls),
(332,958,o),
(316,1130,q),
(836,0,l)
);
}
);
width = 1229;
}
);
note = N;
unicode = 78;
},
{
glyphname = O;
lastChange = "2019-12-03 14:54:35 +0000";
layers = (
{
layerId = "BC15D09A-B757-48E3-911F-803B0089DB3F";
shapes = (
{
closed = 1;
nodes = (
(1126,1023,o),
(862,1370,o),
(615,1370,qs),
(362,1370,o),
(102,1018,o),
(102,681,qs),
(102,338,o),
(364,-20,o),
(613,-20,qs),
(861,-20,o),
(1126,344,o),
(1126,681,qs)
);
},
{
closed = 1;
nodes = (
(925,415,o),
(777,135,o),
(614,135,qs),
(461,135,o),
(303,411,o),
(303,681,qs),
(303,1214,o),
(615,1214,qs),
(925,1214,o),
(925,681,qs)
);
}
);
width = 1229;
}
);
note = O;
unicode = 79;
},
{
glyphname = P;
lastChange = "2019-12-03 14:54:35 +0000";
layers = (
{
layerId = "BC15D09A-B757-48E3-911F-803B0089DB3F";
shapes = (
{
closed = 1;
nodes = (
(1119,1136,o),
(860,1349,o),
(622,1349,qs),
(162,1349,l),
(162,0,l),
(353,0,l),
(353,514,l),
(634,514,ls),
(779,514,o),
(1000,624,o),
(1119,820,o),
(1119,945,qs)
);
},
{
closed = 1;
nodes = (
(927,811,o),
(756,665,o),
(607,665,qs),
(353,665,l),
(353,1196,l),
(599,1196,ls),
(927,1196,o),
(927,942,qs)
);
}
);
width = 1229;
}
);
note = P;
unicode = 80;
},
{
glyphname = Q;
lastChange = "2019-12-03 14:54:35 +0000";
layers = (
{
layerId = "BC15D09A-B757-48E3-911F-803B0089DB3F";
shapes = (
{
closed = 1;
nodes = (
(1126,1023,o),
(862,1370,o),
(615,1370,qs),
(362,1370,o),
(102,1018,o),
(102,681,qs),
(102,361,o),
(332,6,o),
(551,-16,q),
(614,-218,o),
(809,-387,o),
(959,-387,qs),
(1044,-387,o),
(1137,-365,q),
(1137,-231,l),
(1077,-244,o),
(1022,-244,qs),
(921,-244,o),
(787,-130,o),
(746,-4,q),
(929,40,o),
(1126,391,o),
(1126,681,qs)
);
},
{
closed = 1;
nodes = (
(925,415,o),
(777,135,o),
(614,135,qs),
(461,135,o),
(303,411,o),
(303,681,qs),
(303,1214,o),
(615,1214,qs),
(925,1214,o),
(925,681,qs)
);
}
);
width = 1229;
}
);
note = Q;
unicode = 81;
},
{
glyphname = R;
lastChange = "2019-12-03 14:54:35 +0000";
layers = (
{
layerId = "BC15D09A-B757-48E3-911F-803B0089DB3F";
shapes = (
{
closed = 1;
nodes = (
(1177,0,l),
(777,597,l),
(934,623,o),
(1121,827,o),
(1121,976,qs),
(1121,1156,o),
(877,1349,o),
(644,1349,qs),
(162,1349,l),
(162,0,l),
(353,0,l),
(353,575,l),
(591,575,l),
(957,0,l)
);
},
{
closed = 1;
nodes = (
(929,854,o),
(776,726,o),
(633,726,qs),
(353,726,l),
(353,1196,l),
(625,1196,ls),
(929,1196,o),
(929,973,qs)
);
}
);
width = 1229;
}
);
note = R;
unicode = 82;
},
{
glyphname = S;
lastChange = "2019-12-03 14:54:35 +0000";
layers = (
{
layerId = "BC15D09A-B757-48E3-911F-803B0089DB3F";
shapes = (
{
closed = 1;
nodes = (
(1128,445,o),
(1089,555,o),
(1021,637,o),
(926,697,o),
(804,744,o),
(665,779,qs),
(596,797,o),
(475,829,o),
(384,878,o),
(331,953,o),
(331,1013,qs),
(331,1226,o),
(614,1226,qs),
(739,1226,o),
(883,1125,o),
(907,1013,q),
(1095,1046,l),
(1051,1222,o),
(827,1370,o),
(615,1370,qs),
(388,1370,o),
(145,1183,o),
(145,1010,qs),
(145,936,o),
(187,826,o),
(269,741,o),
(406,675,o),
(567,633,qs),
(635,616,o),
(768,581,o),
(874,525,o),
(939,437,o),
(939,367,qs),
(939,253,o),
(774,129,o),
(615,129,qs),
(468,129,o),
(292,246,o),
(264,375,q),
(79,338,l),
(153,-20,o),
(610,-20,qs),
(859,-20,o),
(1128,186,o),
(1128,370,qs)
);
}
);
width = 1229;
}
);
note = S;
unicode = 83;
},
{
glyphname = T;
lastChange = "2019-12-03 14:54:35 +0000";
layers = (
{
layerId = "BC15D09A-B757-48E3-911F-803B0089DB3F";
shapes = (
{
closed = 1;
nodes = (
(1152,1193,l),
(1152,1349,l),
(76,1349,l),
(76,1193,l),
(519,1193,l),
(519,0,l),
(709,0,l),
(709,1193,l)
);
}
);
width = 1229;
}
);
note = T;
unicode = 84;
},
{
glyphname = U;
lastChange = "2019-12-03 14:54:35 +0000";
layers = (
{
layerId = "BC15D09A-B757-48E3-911F-803B0089DB3F";
shapes = (
{
closed = 1;
nodes = (
(1085,1349,l),
(895,1349,l),
(895,511,ls),
(895,299,o),
(765,135,o),
(604,135,qs),
(450,135,o),
(333,294,o),
(333,498,qs),
(333,1349,l),
(142,1349,l),
(142,472,ls),
(142,215,o),
(361,-20,o),
(605,-20,qs),
(857,-20,o),
(1085,223,o),
(1085,490,qs)
);
}
);
width = 1229;
}
);
note = U;
unicode = 85;
},
{
glyphname = V;
lastChange = "2019-12-03 14:54:35 +0000";
layers = (
{
layerId = "BC15D09A-B757-48E3-911F-803B0089DB3F";
shapes = (
{
closed = 1;
nodes = (
(1218,1349,l),
(1017,1349,l),
(699,447,ls),
(655,317,o),
(615,168,q),
(562,361,o),
(531,447,qs),
(211,1349,l),
(10,1349,l),
(515,0,l),
(713,0,l)
);
}
);
width = 1229;
}
);
note = V;
unicode = 86;
},
{
glyphname = W;
lastChange = "2019-12-03 14:54:35 +0000";
layers = (
{
layerId = "BC15D09A-B757-48E3-911F-803B0089DB3F";
shapes = (
{
closed = 1;
nodes = (
(1228,1349,l),
(1039,1349,l),
(935,514,l),
(900,168,l),
(851,388,o),
(772,678,o),
(703,931,q),
(528,931,l),
(406,486,o),
(363,306,o),
(331,168,q),
(314,383,o),
(298,514,qs),
(189,1349,l),
(0,1349,l),
(211,0,l),
(419,0,l),
(538,429,o),
(587,631,o),
(616,756,q),
(659,564,o),
(736,276,o),
(810,0,q),
(1018,0,l)
);
}
);
width = 1229;
}
);
note = W;
unicode = 87;
},
{
glyphname = X;
lastChange = "2019-12-03 14:54:35 +0000";
layers = (
{
layerId = "BC15D09A-B757-48E3-911F-803B0089DB3F";
shapes = (
{
closed = 1;
nodes = (
(282,1349,l),
(77,1349,l),
(512,705,l),
(36,0,l),
(241,0,l),
(614,573,l),
(988,0,l),
(1193,0,l),
(717,705,l),
(1152,1349,l),
(947,1349,l),
(614,836,l)
);
}
);
width = 1229;
}
);
note = X;
unicode = 88;
},
{
glyphname = Y;
lastChange = "2019-12-03 14:54:35 +0000";
layers = (
{
layerId = "BC15D09A-B757-48E3-911F-803B0089DB3F";
shapes = (
{
closed = 1;
nodes = (
(1192,1349,l),
(987,1349,l),
(615,738,l),
(241,1349,l),
(36,1349,l),
(520,584,l),
(520,0,l),
(708,0,l),
(708,584,l)
);
}
);
width = 1229;
}
);
note = Y;
unicode = 89;
},
{
glyphname = Z;
lastChange = "2019-12-03 14:54:35 +0000";
layers = (
{
layerId = "BC15D09A-B757-48E3-911F-803B0089DB3F";
shapes = (
{
closed = 1;
nodes = (
(1155,156,l),
(290,156,l),
(1108,1210,l),
(1108,1349,l),
(146,1349,l),
(146,1193,l),
(891,1193,l),
(73,143,l),
(73,0,l),
(1155,0,l)
);
}
);
width = 1229;
}
);
note = Z;
unicode = 90;
},
{
glyphname = bracketleft;
lastChange = "2019-12-03 14:54:35 +0000";
layers = (
{
layerId = "BC15D09A-B757-48E3-911F-803B0089DB3F";
shapes = (
{
closed = 1;
nodes = (
(957,-425,l),
(957,-286,l),
(590,-286,l),
(590,1345,l),
(957,1345,l),
(957,1484,l),
(410,1484,l),
(410,-425,l)
);
}
);
width = 1229;
}
);
note = bracketleft;
unicode = 91;
},
{
glyphname = backslash;
lastChange = "2019-12-03 14:54:35 +0000";
layers = (
{
layerId = "BC15D09A-B757-48E3-911F-803B0089DB3F";
shapes = (
{
closed = 1;
nodes = (
(1114,-20,l),
(293,1484,l),
(115,1484,l),
(932,-20,l)
);
}
);
width = 1229;
}
);
note = backslash;
unicode = 92;
},
{
glyphname = bracketright;
lastChange = "2019-12-03 14:54:35 +0000";
layers = (
{
layerId = "BC15D09A-B757-48E3-911F-803B0089DB3F";
shapes = (
{
closed = 1;
nodes = (
(817,-425,l),
(817,1484,l),
(270,1484,l),
(270,1345,l),
(637,1345,l),
(637,-286,l),
(270,-286,l),
(270,-425,l)
);
}
);
width = 1229;
}
);
note = bracketright;
unicode = 93;
},
{
glyphname = asciicircum;
lastChange = "2019-12-03 14:54:35 +0000";
layers = (
{
layerId = "BC15D09A-B757-48E3-911F-803B0089DB3F";
shapes = (
{
closed = 1;
nodes = (
(1094,442,l),
(714,1349,l),
(511,1349,l),
(133,442,l),
(285,442,l),
(611,1245,l),
(940,442,l)
);
}
);
width = 1229;
}
);
note = asciicircum;
unicode = 94;
},
{
glyphname = underscore;
lastChange = "2019-12-03 14:54:35 +0000";
layers = (
{
layerId = "BC15D09A-B757-48E3-911F-803B0089DB3F";
shapes = (
{
closed = 1;
nodes = (
(1233,-220,l),
(1233,-124,l),
(-5,-124,l),
(-5,-220,l)
);
}
);
width = 1229;
}
);
note = underscore;
unicode = 95;
},
{
glyphname = grave;
lastChange = "2019-12-03 14:54:35 +0000";
layers = (
{
layerId = "BC15D09A-B757-48E3-911F-803B0089DB3F";
shapes = (
{
closed = 1;
nodes = (
(826,1201,l),
(826,1221,l),
(599,1460,l),
(402,1460,l),
(402,1431,l),
(702,1201,l)
);
}
);
width = 1229;
}
);
note = grave;
unicode = 96;
},
{
glyphname = a;
lastChange = "2019-12-03 14:54:35 +0000";
layers = (
{
layerId = "BC15D09A-B757-48E3-911F-803B0089DB3F";
shapes = (
{
closed = 1;
nodes = (
(1042,111,o),
(1000,192,o),
(1000,272,qs),
(1000,738,ls),
(1000,915,o),
(799,1102,o),
(599,1102,qs),
(222,1102,o),
(176,810,q),
(364,793,l),
(374,881,o),
(478,965,o),
(596,965,qs),
(712,965,o),
(818,850,o),
(818,719,qs),
(818,660,l),
(582,656,ls),
(128,651,o),
(128,302,qs),
(128,152,o),
(288,-20,o),
(446,-20,qs),
(576,-20,o),
(753,86,o),
(818,207,q),
(824,207,l),
(830,95,o),
(921,-10,o),
(1021,-10,qs),
(1092,-10,o),
(1160,6,q),
(1160,118,l),
(1127,111,o),
(1101,111,qs)
);
},
{
closed = 1;
nodes = (
(406,117,o),
(317,217,o),
(317,299,qs),
(317,381,o),
(386,480,o),
(510,528,o),
(628,530,qs),
(818,534,l),
(818,445,ls),
(818,363,o),
(736,209,o),
(588,117,o),
(492,117,qs)
);
}
);
width = 1229;
}
);
note = a;
unicode = 97;
},
{
glyphname = b;
lastChange = "2019-12-03 14:54:35 +0000";
layers = (
{
layerId = "BC15D09A-B757-48E3-911F-803B0089DB3F";
shapes = (
{
closed = 1;
nodes = (
(1090,1104,o),
(699,1104,qs),
(456,1104,o),
(365,904,q),
(361,904,l),
(365,996,o),
(365,1061,qs),
(365,1484,l),
(185,1484,l),
(185,223,ls),
(185,54,o),
(179,0,q),
(353,0,l),
(355,12,o),
(362,116,o),
(362,164,q),
(364,164,l),
(454,-20,o),
(698,-20,qs),
(887,-20,o),
(1090,262,o),
(1090,546,qs)
);
},
{
closed = 1;
nodes = (
(904,322,o),
(783,113,o),
(648,113,qs),
(497,113,o),
(365,315,o),
(365,524,qs),
(365,746,o),
(501,965,o),
(650,965,qs),
(781,965,o),
(904,764,o),
(904,540,qs)
);
}
);
width = 1229;
}
);
note = b;
unicode = 98;
},
{
glyphname = c;
lastChange = "2019-12-03 14:54:35 +0000";
layers = (
{
layerId = "BC15D09A-B757-48E3-911F-803B0089DB3F";
shapes = (
{
closed = 1;
nodes = (
(130,268,o),
(386,-20,o),
(631,-20,qs),
(752,-20,o),
(948,69,o),
(1067,226,o),
(1080,322,q),
(890,334,l),
(873,225,o),
(731,119,o),
(623,119,qs),
(466,119,o),
(319,324,o),
(319,546,qs),
(319,765,o),
(466,961,o),
(624,961,qs),
(742,961,o),
(870,856,o),
(886,765,q),
(1078,779,l),
(1050,927,o),
(814,1102,o),
(632,1102,qs),
(388,1102,o),
(130,812,o),
(130,542,qs)
);
}
);
width = 1229;
}
);
note = c;
unicode = 99;
},
{
glyphname = d;
lastChange = "2019-12-03 14:54:35 +0000";
layers = (
{
layerId = "BC15D09A-B757-48E3-911F-803B0089DB3F";
shapes = (
{
closed = 1;
nodes = (
(867,174,l),
(867,131,o),
(873,15,o),
(877,0,q),
(1049,0,l),
(1043,54,o),
(1043,223,qs),
(1043,1484,l),
(863,1484,l),
(863,1065,l),
(865,914,l),
(863,914,l),
(814,1012,o),
(651,1098,o),
(530,1098,qs),
(138,1098,o),
(138,532,qs),
(138,252,o),
(328,-26,o),
(530,-26,qs),
(651,-26,o),
(813,69,o),
(862,174,q)
);
},
{
closed = 1;
nodes = (
(324,759,o),
(444,965,o),
(579,965,qs),
(728,965,o),
(863,769,o),
(863,554,qs),
(863,324,o),
(723,113,o),
(577,113,qs),
(443,113,o),
(324,316,o),
(324,538,qs)
);
}
);
width = 1229;
}
);
note = d;
unicode = 100;
},
{
glyphname = e;
lastChange = "2019-12-03 14:54:35 +0000";
layers = (
{
layerId = "BC15D09A-B757-48E3-911F-803B0089DB3F";
shapes = (
{
closed = 1;
nodes = (
(1094,503,l),
(1094,527,ls),
(1094,816,o),
(852,1102,o),
(617,1102,qs),
(382,1102,o),
(133,815,o),
(133,548,qs),
(133,274,o),
(387,-20,o),
(623,-20,qs),
(786,-20,o),
(1021,112,o),
(1065,236,q),
(907,281,l),
(881,204,o),
(726,115,o),
(623,115,qs),
(483,115,o),
(322,321,o),
(322,503,q)
);
},
{
closed = 1;
nodes = (
(880,969,o),
(908,641,q),
(324,641,l),
(329,794,o),
(485,969,o),
(619,969,qs)
);
}
);
width = 1229;
}
);
note = e;
unicode = 101;
},
{
glyphname = f;
lastChange = "2019-12-03 14:54:35 +0000";
layers = (
{
layerId = "BC15D09A-B757-48E3-911F-803B0089DB3F";
shapes = (
{
closed = 1;
nodes = (
(1071,940,l),
(1071,1082,l),
(580,1082,l),
(580,1092,ls),
(580,1185,o),
(629,1289,o),
(735,1335,o),
(839,1335,qs),
(886,1335,o),
(1069,1323,o),
(1099,1318,q),
(1099,1463,l),
(1057,1471,o),
(890,1484,o),
(818,1484,qs),
(593,1484,o),
(400,1312,o),
(400,1107,qs),
(400,1082,l),
(138,1082,l),
(138,940,l),
(400,940,l),
(400,0,l),
(580,0,l),
(580,940,l)
);
}
);
width = 1229;
}
);
note = f;
unicode = 102;
},
{
glyphname = g;
lastChange = "2019-12-03 14:54:35 +0000";
layers = (
{
layerId = "BC15D09A-B757-48E3-911F-803B0089DB3F";
shapes = (
{
closed = 1;
nodes = (
(836,-424,o),
(1048,-195,o),
(1048,32,qs),
(1048,858,ls),
(1048,1028,o),
(1054,1082,q),
(883,1082,l),
(879,1070,o),
(871,927,o),
(871,897,q),
(868,897,l),
(823,994,o),
(656,1099,o),
(543,1099,qs),
(339,1099,o),
(143,832,o),
(143,549,qs),
(143,271,o),
(326,12,o),
(524,12,qs),
(644,12,o),
(818,118,o),
(867,221,q),
(869,221,l),
(869,27,ls),
(869,-288,o),
(621,-288,qs),
(529,-288,o),
(416,-207,o),
(399,-132,q),
(215,-157,l),
(243,-286,o),
(447,-424,o),
(615,-424,qs)
);
},
{
closed = 1;
nodes = (
(869,423,o),
(799,240,o),
(670,145,o),
(585,145,qs),
(488,145,o),
(380,225,o),
(329,400,o),
(329,551,qs),
(329,774,o),
(451,965,o),
(588,965,qs),
(719,965,o),
(869,744,o),
(869,551,qs)
);
}
);
width = 1229;
}
);
note = g;
unicode = 103;
},
{
glyphname = h;
lastChange = "2019-12-03 14:54:35 +0000";
layers = (
{
layerId = "BC15D09A-B757-48E3-911F-803B0089DB3F";
shapes = (
{
closed = 1;
nodes = (
(185,0,l),
(365,0,l),
(365,627,ls),
(365,782,o),
(524,963,o),
(648,963,qs),
(763,963,o),
(868,831,o),
(868,695,qs),
(868,0,l),
(1049,0,l),
(1049,721,ls),
(1049,1102,o),
(699,1102,qs),
(465,1102,o),
(360,897,q),
(357,897,l),
(366,1035,o),
(366,1094,qs),
(366,1484,l),
(185,1484,l)
);
}
);
width = 1229;
}
);
note = h;
unicode = 104;
},
{
glyphname = i;
lastChange = "2019-12-03 14:54:35 +0000";
layers = (
{
layerId = "BC15D09A-B757-48E3-911F-803B0089DB3F";
shapes = (
{
closed = 1;
nodes = (
(745,1082,l),
(246,1082,l),
(246,940,l),
(565,940,l),
(565,142,l),
(143,142,l),
(143,0,l),
(1125,0,l),
(1125,142,l),
(745,142,l)
);
},
{
closed = 1;
nodes = (
(745,1292,l),
(745,1484,l),
(545,1484,l),
(545,1292,l)
);
}
);
width = 1229;
}
);
note = i;
unicode = 105;
},
{
glyphname = j;
lastChange = "2019-12-03 14:54:35 +0000";
layers = (
{
layerId = "BC15D09A-B757-48E3-911F-803B0089DB3F";
shapes = (
{
closed = 1;
nodes = (
(836,1082,l),
(249,1082,l),
(249,940,l),
(656,940,l),
(656,-25,ls),
(656,-144,o),
(518,-276,o),
(390,-276,qs),
(267,-276,o),
(117,-242,q),
(117,-382,l),
(162,-399,o),
(326,-425,o),
(405,-425,qs),
(612,-425,o),
(836,-215,o),
(836,-28,qs)
);
},
{
closed = 1;
nodes = (
(836,1292,l),
(836,1484,l),
(636,1484,l),
(636,1292,l)
);
}
);
width = 1229;
}
);
note = j;
unicode = 106;
},
{
glyphname = k;
lastChange = "2019-12-03 14:54:35 +0000";
layers = (
{
layerId = "BC15D09A-B757-48E3-911F-803B0089DB3F";
shapes = (
{
closed = 1;
nodes = (
(1125,0,l),
(663,617,l),
(1102,1082,l),
(891,1082,l),
(416,557,l),
(416,1484,l),
(236,1484,l),
(236,0,l),
(416,0,l),
(416,401,l),
(548,499,l),
(914,0,l)
);
}
);
width = 1229;
}
);
note = k;
unicode = 107;
},
{
glyphname = l;
lastChange = "2019-12-03 14:54:35 +0000";
layers = (
{
layerId = "BC15D09A-B757-48E3-911F-803B0089DB3F";
shapes = (
{
closed = 1;
nodes = (
(736,1484,l),
(267,1484,l),
(267,1342,l),
(556,1342,l),
(556,142,l),
(134,142,l),
(134,0,l),
(1116,0,l),
(1116,142,l),
(736,142,l)
);
}
);
width = 1229;
}
);
note = l;
unicode = 108;
},
{
glyphname = m;
lastChange = "2019-12-03 14:54:35 +0000";
layers = (
{
layerId = "BC15D09A-B757-48E3-911F-803B0089DB3F";
shapes = (
{
closed = 1;
nodes = (
(699,0,l),
(699,627,ls),
(699,795,o),
(776,963,o),
(842,963,qs),
(907,963,o),
(956,840,o),
(956,686,qs),
(956,0,l),
(1124,0,l),
(1124,721,ls),
(1124,930,o),
(1022,1102,o),
(904,1102,qs),
(819,1102,o),
(708,1012,o),
(668,906,q),
(666,906,l),
(647,1006,o),
(560,1102,o),
(472,1102,qs),
(394,1102,o),
(290,1009,o),
(256,907,q),
(254,907,l),
(254,955,l),
(248,1082,l),
(99,1082,l),
(105,1040,o),
(105,851,qs),
(105,0,l),
(274,0,l),
(274,607,ls),
(274,771,o),
(353,963,o),
(417,963,qs),
(482,963,o),
(531,840,o),
(531,686,qs),
(531,0,l)
);
}
);
width = 1229;
}
);
note = m;
unicode = 109;
},
{
glyphname = n;
lastChange = "2019-12-03 14:54:35 +0000";
layers = (
{
layerId = "BC15D09A-B757-48E3-911F-803B0089DB3F";
shapes = (
{
closed = 1;
nodes = (
(1049,0,l),
(1049,721,ls),
(1049,915,o),
(879,1102,o),
(706,1102,qs),
(465,1102,o),
(360,897,q),
(357,897,l),
(355,976,o),
(352,1033,o),
(350,1077,o),
(349,1082,q),
(179,1082,l),
(185,1040,o),
(185,851,qs),
(185,0,l),
(365,0,l),
(365,627,ls),
(365,782,o),
(524,963,o),
(648,963,qs),
(763,963,o),
(868,831,o),
(868,695,qs),
(868,0,l)
);
}
);
width = 1229;
}
);
note = n;
unicode = 110;
},
{
glyphname = o;
lastChange = "2019-12-03 14:54:35 +0000";
layers = (
{
layerId = "BC15D09A-B757-48E3-911F-803B0089DB3F";
shapes = (
{
closed = 1;
nodes = (
(1097,824,o),
(859,1102,o),
(615,1102,qs),
(383,1102,o),
(130,821,o),
(130,542,qs),
(130,272,o),
(377,-20,o),
(609,-20,qs),
(846,-20,o),
(1097,269,o),
(1097,542,qs)
);
},
{
closed = 1;
nodes = (
(908,327,o),
(766,113,o),
(607,113,qs),
(463,113,o),
(319,332,o),
(319,542,qs),
(319,753,o),
(463,969,o),
(618,969,qs),
(771,969,o),
(908,757,o),
(908,542,qs)
);
}
);
width = 1229;
}
);
note = o;
unicode = 111;
},
{
glyphname = p;
lastChange = "2019-12-03 14:54:35 +0000";
layers = (
{
layerId = "BC15D09A-B757-48E3-911F-803B0089DB3F";
shapes = (
{
closed = 1;
nodes = (
(1090,831,o),
(896,1104,o),
(698,1104,qs),
(573,1104,o),
(418,1009,o),
(368,904,q),
(364,904,l),
(364,928,o),
(359,1027,o),
(355,1078,o),
(354,1082,q),
(179,1082,l),
(185,1028,o),
(185,858,qs),
(185,-425,l),
(366,-425,l),
(366,-2,ls),
(366,156,o),
(362,164,q),
(367,164,l),
(452,-20,o),
(698,-20,qs),
(1090,-20,o),
(1090,546,qs)
);
},
{
closed = 1;
nodes = (
(904,315,o),
(782,113,o),
(649,113,qs),
(500,113,o),
(366,311,o),
(366,524,qs),
(366,746,o),
(500,965,o),
(651,965,qs),
(782,965,o),
(904,772,o),
(904,546,qs)
);
}
);
width = 1229;
}
);
note = p;
unicode = 112;
},
{
glyphname = q;
lastChange = "2019-12-03 14:54:35 +0000";
layers = (
{
layerId = "BC15D09A-B757-48E3-911F-803B0089DB3F";
shapes = (
{
closed = 1;
nodes = (
(138,1098,o),
(138,532,qs),
(138,255,o),
(328,-26,o),
(530,-26,qs),
(654,-26,o),
(812,75,o),
(865,182,q),
(867,182,l),
(863,14,l),
(863,-425,l),
(1044,-425,l),
(1044,801,ls),
(1044,1029,o),
(1050,1083,q),
(875,1083,l),
(870,1071,o),
(863,944,o),
(863,914,q),
(861,914,l),
(812,1009,o),
(658,1098,o),
(529,1098,qs)
);
},
{
closed = 1;
nodes = (
(863,331,o),
(724,113,o),
(577,113,qs),
(446,113,o),
(324,317,o),
(324,538,qs),
(324,761,o),
(445,965,o),
(579,965,qs),
(727,965,o),
(863,766,o),
(863,554,qs)
);
}
);
width = 1229;
}
);
note = q;
unicode = 113;
},
{
glyphname = r;
lastChange = "2019-12-03 14:54:35 +0000";
layers = (
{
layerId = "BC15D09A-B757-48E3-911F-803B0089DB3F";
shapes = (
{
closed = 1;
nodes = (
(1045,1085,l),
(943,1102,o),
(839,1102,qs),
(744,1102,o),
(612,1049,o),
(516,944,o),
(466,832,q),
(461,832,l),
(453,944,o),
(413,1082,q),
(242,1082,l),
(267,983,o),
(294,777,o),
(294,701,qs),
(294,0,l),
(474,0,l),
(474,508,ls),
(474,695,o),
(672,937,o),
(833,937,qs),
(933,937,o),
(1045,918,q)
);
}
);
width = 1229;
}
);
note = r;
unicode = 114;
},
{
glyphname = s;
lastChange = "2019-12-03 14:54:35 +0000";
layers = (
{
layerId = "BC15D09A-B757-48E3-911F-803B0089DB3F";
shapes = (
{
closed = 1;
nodes = (
(1060,394,o),
(978,511,o),
(835,589,o),
(672,629,qs),
(553,660,ls),
(461,682,o),
(378,754,o),
(378,814,qs),
(378,965,o),
(623,965,qs),
(742,965,o),
(862,891,o),
(873,819,q),
(1035,839,l),
(1009,966,o),
(799,1099,o),
(623,1099,qs),
(422,1099,o),
(210,933,o),
(210,786,qs),
(210,703,o),
(286,592,o),
(428,518,o),
(692,453,qs),
(793,428,o),
(891,349,o),
(891,285,qs),
(891,114,o),
(621,114,qs),
(470,114,o),
(345,193,o),
(326,279,q),
(167,248,l),
(200,109,o),
(415,-20,o),
(621,-20,qs),
(827,-20,o),
(1060,155,o),
(1060,309,qs)
);
}
);
width = 1229;
}
);
note = s;
unicode = 115;
},
{
glyphname = t;
lastChange = "2019-12-03 14:54:35 +0000";
layers = (
{
layerId = "BC15D09A-B757-48E3-911F-803B0089DB3F";
shapes = (
{
closed = 1;
nodes = (
(358,940,l),
(358,269,ls),
(358,121,o),
(520,-16,o),
(682,-16,qs),
(848,-16,o),
(1017,30,q),
(1017,167,l),
(854,133,o),
(720,133,qs),
(623,133,o),
(538,209,o),
(538,288,qs),
(538,940,l),
(970,940,l),
(970,1082,l),
(538,1082,l),
(538,1364,l),
(418,1364,l),
(360,1082,l),
(190,1082,l),
(190,940,l)
);
}
);
width = 1229;
}
);
note = t;
unicode = 116;
},
{
glyphname = u;
lastChange = "2019-12-03 14:54:35 +0000";
layers = (
{
layerId = "BC15D09A-B757-48E3-911F-803B0089DB3F";
shapes = (
{
closed = 1;
nodes = (
(185,1082,l),
(185,361,ls),
(185,157,o),
(350,-20,o),
(528,-20,qs),
(649,-20,o),
(812,73,o),
(874,185,q),
(877,185,l),
(879,106,o),
(882,49,o),
(884,5,o),
(885,0,q),
(1055,0,l),
(1049,42,o),
(1049,231,qs),
(1049,1082,l),
(868,1082,l),
(868,455,ls),
(868,295,o),
(718,119,o),
(589,119,qs),
(463,119,o),
(365,240,o),
(365,396,qs),
(365,1082,l)
);
}
);
width = 1229;
}
);
note = u;
unicode = 117;
},
{
glyphname = v;
lastChange = "2019-12-03 14:54:35 +0000";
layers = (
{
layerId = "BC15D09A-B757-48E3-911F-803B0089DB3F";
shapes = (
{
closed = 1;
nodes = (
(1159,1082,l),
(958,1082,l),
(682,376,l),
(643,258,l),
(608,141,l),
(556,325,l),
(539,378,l),
(271,1082,l),
(69,1082,l),
(502,0,l),
(715,0,l)
);
}
);
width = 1229;
}
);
note = v;
unicode = 118;
},
{
glyphname = w;
lastChange = "2019-12-03 14:54:35 +0000";
layers = (
{
layerId = "BC15D09A-B757-48E3-911F-803B0089DB3F";
shapes = (
{
closed = 1;
nodes = (
(1208,1082,l),
(1032,1082,l),
(931,475,ls),
(928,450,o),
(916,364,o),
(904,269,o),
(896,179,o),
(896,149,q),
(873,257,o),
(841,362,qs),
(711,787,l),
(518,787,l),
(383,363,ls),
(364,309,o),
(325,149,q),
(325,211,o),
(292,475,q),
(199,1082,l),
(21,1082,l),
(204,0,l),
(407,0,l),
(575,534,l),
(614,673,l),
(671,471,l),
(814,0,l),
(1018,0,l)
);
}
);
width = 1229;
}
);
note = w;
unicode = 119;
},
{
glyphname = x;
lastChange = "2019-12-03 14:54:35 +0000";
layers = (
{
layerId = "BC15D09A-B757-48E3-911F-803B0089DB3F";
shapes = (
{
closed = 1;
nodes = (
(1133,0,l),
(713,558,l),
(1110,1082,l),
(909,1082,l),
(611,661,l),
(311,1082,l),
(112,1082,l),
(509,556,l),
(94,0,l),
(288,0,l),
(611,444,l),
(932,0,l)
);
}
);
width = 1229;
}
);
note = x;
unicode = 120;
},
{
glyphname = y;
lastChange = "2019-12-03 14:54:35 +0000";
layers = (
{
layerId = "BC15D09A-B757-48E3-911F-803B0089DB3F";
shapes = (
{
closed = 1;
nodes = (
(425,-425,o),
(616,-235,o),
(705,0,q),
(1161,1082,l),
(971,1082,l),
(661,296,l),
(620,186,l),
(613,216,o),
(522,440,qs),
(258,1082,l),
(66,1082,l),
(536,11,l),
(518,-38,ls),
(470,-167,o),
(331,-285,o),
(252,-285,qs),
(206,-285,o),
(168,-279,q),
(168,-414,l),
(218,-425,o),
(292,-425,qs)
);
}
);
width = 1229;
}
);
note = y;
unicode = 121;
},
{
glyphname = z;
lastChange = "2019-12-03 14:54:35 +0000";
layers = (
{
layerId = "BC15D09A-B757-48E3-911F-803B0089DB3F";
shapes = (
{
closed = 1;
nodes = (
(1068,0,l),
(1068,139,l),
(349,139,l),
(1031,945,l),
(1031,1082,l),
(187,1082,l),
(187,943,l),
(828,943,l),
(147,137,l),
(147,0,l)
);
}
);
width = 1229;
}
);
note = z;
unicode = 122;
},
{
glyphname = braceleft;
lastChange = "2019-12-03 14:54:35 +0000";
layers = (
{
layerId = "BC15D09A-B757-48E3-911F-803B0089DB3F";
shapes = (
{
closed = 1;
nodes = (
(1061,-425,l),
(1061,-286,l),
(848,-286,ls),
(757,-286,o),
(677,-197,o),
(677,-91,qs),
(677,256,ls),
(677,359,o),
(548,506,o),
(446,530,q),
(446,532,l),
(549,557,o),
(677,706,o),
(677,804,qs),
(677,1150,ls),
(677,1257,o),
(757,1345,o),
(848,1345,qs),
(1061,1345,l),
(1061,1484,l),
(796,1484,ls),
(664,1484,o),
(502,1318,o),
(502,1181,qs),
(502,829,ls),
(502,725,o),
(357,603,o),
(227,598,q),
(227,461,l),
(356,456,o),
(502,336,o),
(502,229,qs),
(502,-122,ls),
(502,-256,o),
(666,-425,o),
(796,-425,qs)
);
}
);
width = 1229;
}
);
note = braceleft;
unicode = 123;
},
{
glyphname = bar;
lastChange = "2019-12-03 14:54:35 +0000";
layers = (
{
layerId = "BC15D09A-B757-48E3-911F-803B0089DB3F";
shapes = (
{
closed = 1;
nodes = (
(697,-425,l),
(697,1484,l),
(531,1484,l),
(531,-425,l)
);
}
);
width = 1229;
}
);
note = bar;
unicode = 124;
},
{
glyphname = braceright;
lastChange = "2019-12-03 14:54:35 +0000";
layers = (
{
layerId = "BC15D09A-B757-48E3-911F-803B0089DB3F";
shapes = (
{
closed = 1;
nodes = (
(432,-425,ls),
(562,-425,o),
(726,-257,o),
(726,-122,qs),
(726,229,ls),
(726,335,o),
(871,456,o),
(1001,461,q),
(1001,598,l),
(872,603,o),
(726,724,o),
(726,829,qs),
(726,1181,ls),
(726,1318,o),
(565,1484,o),
(432,1484,qs),
(167,1484,l),
(167,1345,l),
(380,1345,ls),
(472,1345,o),
(552,1255,o),
(552,1150,qs),
(552,804,ls),
(552,707,o),
(680,557,o),
(782,532,q),
(782,530,l),
(680,506,o),
(552,358,o),
(552,256,qs),
(552,-91,ls),
(552,-197,o),
(471,-286,o),
(380,-286,qs),
(167,-286,l),
(167,-425,l)
);
}
);
width = 1229;
}
);
note = braceright;
unicode = 125;
},
{
glyphname = asciitilde;
lastChange = "2019-12-03 14:54:35 +0000";
layers = (
{
layerId = "BC15D09A-B757-48E3-911F-803B0089DB3F";
shapes = (
{
closed = 1;
nodes = (
(219,807,o),
(108,723,q),
(108,580,l),
(173,627,o),
(289,668,o),
(356,668,qs),
(444,668,o),
(573,623,qs),
(646,597,o),
(791,553,o),
(860,553,qs),
(945,553,o),
(1060,591,o),
(1120,633,q),
(1120,782,l),
(1006,690,o),
(876,690,qs),
(840,690,o),
(753,710,o),
(606,761,qs),
(473,807,o),
(371,807,qs)
);
}
);
width = 1229;
}
);
note = asciitilde;
unicode = 126;
},
{
glyphname = dagger;
lastChange = "2019-12-03 14:54:35 +0000";
layers = (
{
layerId = "BC15D09A-B757-48E3-911F-803B0089DB3F";
shapes = (
{
closed = 1;
nodes = (
(1046,972,l),
(1046,1136,l),
(685,1117,l),
(711,1483,l),
(516,1483,l),
(542,1117,l),
(182,1136,l),
(182,972,l),
(542,989,l),
(556,-213,l),
(671,-213,l),
(685,989,l)
);
}
);
width = 1229;
}
);
note = dagger;
unicode = 8224;
},
{
glyphname = degree;
lastChange = "2019-12-03 14:54:35 +0000";
layers = (
{
layerId = "BC15D09A-B757-48E3-911F-803B0089DB3F";
shapes = (
{
closed = 1;
nodes = (
(901,1204,o),
(734,1370,o),
(614,1370,qs),
(494,1370,o),
(327,1202,o),
(327,1085,qs),
(327,968,o),
(496,800,o),
(614,800,qs),
(732,800,o),
(901,966,o),
(901,1085,qs)
);
},
{
closed = 1;
nodes = (
(792,1010,o),
(688,905,o),
(614,905,qs),
(541,905,o),
(436,1011,o),
(436,1085,qs),
(436,1159,o),
(539,1265,o),
(614,1265,qs),
(689,1265,o),
(792,1161,o),
(792,1085,qs)
);
}
);
width = 1229;
}
);
note = degree;
unicode = 176;
},
{
glyphname = cent;
lastChange = "2019-12-03 14:54:35 +0000";
layers = (
{
layerId = "BC15D09A-B757-48E3-911F-803B0089DB3F";
shapes = (
{
closed = 1;
nodes = (
(484,269,o),
(316,470,o),
(316,668,qs),
(316,857,o),
(477,1058,o),
(633,1058,qs),
(755,1058,o),
(886,950,o),
(903,859,q),
(1088,873,l),
(1059,1013,o),
(855,1182,o),
(698,1195,q),
(698,1379,l),
(570,1379,l),
(570,1195,l),
(365,1177,o),
(133,896,o),
(133,656,qs),
(133,424,o),
(362,149,o),
(570,134,q),
(570,-61,l),
(698,-61,l),
(698,134,l),
(859,148,o),
(1073,332,o),
(1094,474,q),
(912,486,l),
(895,381,o),
(748,269,o),
(635,269,qs)
);
}
);
width = 1229;
}
);
note = cent;
unicode = 162;
},
{
glyphname = sterling;
lastChange = "2019-12-03 14:54:35 +0000";
layers = (
{
layerId = "BC15D09A-B757-48E3-911F-803B0089DB3F";
shapes = (
{
closed = 1;
nodes = (
(1003,264,l),
(992,211,o),
(935,158,o),
(876,158,qs),
(276,158,l),
(359,202,o),
(431,345,o),
(431,473,qs),
(431,612,l),
(839,612,l),
(839,754,l),
(431,754,l),
(431,970,ls),
(431,1095,o),
(551,1210,o),
(673,1210,qs),
(751,1210,o),
(868,1146,o),
(890,1083,q),
(1064,1140,l),
(1030,1249,o),
(826,1370,o),
(673,1370,qs),
(468,1370,o),
(251,1168,o),
(251,974,qs),
(251,754,l),
(65,754,l),
(65,612,l),
(251,612,l),
(251,471,ls),
(251,389,o),
(214,276,o),
(143,198,o),
(56,154,q),
(56,0,l),
(937,0,ls),
(1121,0,o),
(1171,240,q)
);
}
);
width = 1229;
}
);
note = sterling;
unicode = 163;
},
{
glyphname = section;
lastChange = "2019-12-03 14:54:35 +0000";
layers = (
{
layerId = "BC15D09A-B757-48E3-911F-803B0089DB3F";
shapes = (
{
closed = 1;
nodes = (
(429,1484,o),
(218,1329,o),
(218,1190,qs),
(218,1104,o),
(329,970,o),
(425,938,q),
(320,908,o),
(197,760,o),
(197,671,qs),
(197,559,o),
(367,403,o),
(562,358,qs),
(721,319,o),
(838,263,o),
(902,185,o),
(902,129,qs),
(902,44,o),
(752,-52,o),
(621,-52,qs),
(483,-52,o),
(340,38,o),
(320,131,q),
(159,100,l),
(193,-39,o),
(412,-172,o),
(621,-172,qs),
(831,-172,o),
(1062,-3,o),
(1062,145,qs),
(1062,236,o),
(961,365,o),
(849,413,q),
(949,437,o),
(1068,587,o),
(1068,686,qs),
(1068,767,o),
(982,885,o),
(826,968,o),
(679,1003,qs),
(549,1034,o),
(438,1086,o),
(378,1156,o),
(378,1204,qs),
(378,1275,o),
(507,1364,o),
(632,1364,qs),
(741,1364,o),
(870,1283,o),
(884,1204,q),
(1045,1224,l),
(1018,1351,o),
(805,1484,o),
(632,1484,qs)
);
},
{
closed = 1;
nodes = (
(910,578,o),
(775,477,o),
(656,475,q),
(527,508,o),
(416,562,o),
(357,635,o),
(357,684,qs),
(357,768,o),
(486,874,o),
(595,880,q),
(771,839,o),
(910,735,o),
(910,663,qs)
);
}
);
width = 1229;
}
);
note = section;
unicode = 167;
},
{
glyphname = bullet;
lastChange = "2019-12-03 14:54:35 +0000";
layers = (
{
layerId = "BC15D09A-B757-48E3-911F-803B0089DB3F";
shapes = (
{
closed = 1;
nodes = (
(891,797,o),
(725,956,o),
(610,956,qs),
(498,956,o),
(336,797,o),
(336,682,qs),
(336,565,o),
(499,401,o),
(610,401,qs),
(724,401,o),
(891,565,o),
(891,682,qs)
);
}
);
width = 1229;
}
);
note = bullet;
unicode = 8226;
},
{
glyphname = paragraph;
lastChange = "2019-12-03 14:54:35 +0000";
layers = (
{
layerId = "BC15D09A-B757-48E3-911F-803B0089DB3F";
shapes = (
{
closed = 1;
nodes = (
(1080,1227,l),
(1080,1349,l),
(497,1349,ls),
(324,1349,o),
(127,1158,o),
(127,989,qs),
(127,819,o),
(321,634,o),
(489,634,q),
(489,-324,l),
(622,-324,l),
(622,1227,l),
(819,1227,l),
(819,-324,l),
(951,-324,l),
(951,1227,l)
);
}
);
width = 1229;
}
);
note = paragraph;
unicode = 182;
},
{
glyphname = germandbls;
lastChange = "2019-12-03 14:54:35 +0000";
layers = (
{
layerId = "BC15D09A-B757-48E3-911F-803B0089DB3F";
shapes = (
{
closed = 1;
nodes = (
(1167,390,o),
(1072,540,o),
(983,600,qs),
(864,680,o),
(798,749,o),
(798,791,qs),
(798,825,o),
(840,885,o),
(911,948,qs),
(1024,1049,o),
(1024,1187,qs),
(1024,1323,o),
(799,1484,o),
(609,1484,qs),
(377,1484,o),
(142,1254,o),
(142,1027,qs),
(142,0,l),
(322,0,l),
(322,1021,ls),
(322,1183,o),
(461,1343,o),
(609,1343,qs),
(718,1343,o),
(852,1250,o),
(852,1173,qs),
(852,1123,o),
(799,1039,o),
(741,991,qs),
(687,946,o),
(630,846,o),
(630,785,qs),
(630,703,o),
(721,577,o),
(813,522,qs),
(913,461,o),
(995,356,o),
(995,289,qs),
(995,210,o),
(897,115,o),
(805,115,qs),
(736,115,o),
(582,151,o),
(524,184,q),
(526,20,l),
(638,-29,o),
(809,-29,qs),
(977,-29,o),
(1167,143,o),
(1167,295,qs)
);
}
);
width = 1229;
}
);
note = germandbls;
unicode = 223;
},
{
glyphname = registered;
lastChange = "2019-12-03 14:54:35 +0000";
layers = (
{
layerId = "BC15D09A-B757-48E3-911F-803B0089DB3F";
shapes = (
{
closed = 1;
nodes = (
(1197,989,o),
(1055,1314,o),
(790,1484,o),
(614,1484,qs),
(438,1484,o),
(173,1313,o),
(31,987,o),
(31,761,qs),
(31,535,o),
(174,209,o),
(437,38,o),
(614,38,qs),
(791,38,o),
(1055,207,o),
(1197,534,o),
(1197,761,qs)
);
},
{
closed = 1;
nodes = (
(1105,460,o),
(847,132,o),
(614,132,qs),
(381,132,o),
(126,462,o),
(126,761,qs),
(126,961,o),
(244,1244,o),
(463,1389,o),
(614,1389,qs),
(845,1389,o),
(1105,1062,o),
(1105,761,qs)
);
},
{
closed = 1;
nodes = (
(960,343,l),
(739,693,l),
(824,712,o),
(928,835,o),
(928,937,qs),
(928,1048,o),
(777,1174,o),
(635,1174,qs),
(328,1174,l),
(328,343,l),
(455,343,l),
(455,679,l),
(616,679,l),
(815,343,l)
);
},
{
closed = 1;
nodes = (
(801,860,o),
(717,775,o),
(637,775,qs),
(455,775,l),
(455,1076,l),
(625,1076,ls),
(706,1076,o),
(801,1004,o),
(801,935,qs)
);
}
);
width = 1229;
}
);
note = registered;
unicode = 174;
},
{
glyphname = copyright;
lastChange = "2019-12-03 14:54:35 +0000";
layers = (
{
layerId = "BC15D09A-B757-48E3-911F-803B0089DB3F";
shapes = (
{
closed = 1;
nodes = (
(398,921,o),
(510,1082,o),
(617,1082,qs),
(681,1082,o),
(778,1012,o),
(804,945,q),
(918,978,l),
(832,1187,o),
(615,1187,qs),
(447,1187,o),
(269,965,o),
(269,763,qs),
(269,560,o),
(454,333,o),
(622,333,qs),
(728,333,o),
(881,440,o),
(933,558,q),
(818,593,l),
(783,511,o),
(687,437,o),
(622,437,qs),
(516,437,o),
(398,610,o),
(398,763,qs)
);
},
{
closed = 1;
nodes = (
(1197,989,o),
(1055,1314,o),
(790,1484,o),
(614,1484,qs),
(438,1484,o),
(173,1313,o),
(31,987,o),
(31,761,qs),
(31,535,o),
(174,209,o),
(437,38,o),
(614,38,qs),
(791,38,o),
(1055,207,o),
(1197,534,o),
(1197,761,qs)
);
},
{
closed = 1;
nodes = (
(1105,460,o),
(847,132,o),
(614,132,qs),
(381,132,o),
(126,462,o),
(126,761,qs),
(126,961,o),
(244,1244,o),
(463,1389,o),
(614,1389,qs),
(845,1389,o),
(1105,1062,o),
(1105,761,qs)
);
}
);
width = 1229;
}
);
note = copyright;
unicode = 169;
},
{
glyphname = trademark;
lastChange = "2019-12-03 14:54:35 +0000";
layers = (
{
layerId = "BC15D09A-B757-48E3-911F-803B0089DB3F";
shapes = (
{
closed = 1;
nodes = (
(1224,842,l),
(1224,1483,l),
(1072,1483,l),
(933,1141,l),
(872,983,l),
(859,1018,l),
(675,1483,l),
(519,1483,l),
(519,842,l),
(624,842,l),
(624,1354,l),
(671,1230,o),
(824,842,q),
(913,842,l),
(1113,1336,l),
(1119,1354,l),
(1119,842,l)
);
},
{
closed = 1;
nodes = (
(461,1391,l),
(461,1483,l),
(4,1483,l),
(4,1391,l),
(175,1391,l),
(175,842,l),
(286,842,l),
(286,1391,l)
);
}
);
width = 1229;
}
);
note = trademark;
unicode = 8482;
},
{
glyphname = acute;
lastChange = "2019-12-03 14:54:35 +0000";
layers = (
{
layerId = "BC15D09A-B757-48E3-911F-803B0089DB3F";
shapes = (
{
closed = 1;
nodes = (
(526,1201,l),
(826,1431,l),
(826,1460,l),
(629,1460,l),
(402,1221,l),
(402,1201,l)
);
}
);
width = 1229;
}
);
note = acute;
unicode = 180;
},
{
glyphname = dieresis;
lastChange = "2019-12-03 14:54:35 +0000";
layers = (
{
layerId = "BC15D09A-B757-48E3-911F-803B0089DB3F";
shapes = (
{
closed = 1;
nodes = (
(892,1219,l),
(892,1403,l),
(729,1403,l),
(729,1219,l)
);
},
{
closed = 1;
nodes = (
(500,1219,l),
(500,1403,l),
(335,1403,l),
(335,1219,l)
);
}
);
width = 1229;
}
);
note = dieresis;
unicode = 168;
},
{
glyphname = notequal;
lastChange = "2019-12-03 14:54:35 +0000";
layers = (
{
layerId = "BC15D09A-B757-48E3-911F-803B0089DB3F";
shapes = (
{
closed = 1;
nodes = (
(1111,344,l),
(1111,492,l),
(570,492,l),
(761,856,l),
(1111,856,l),
(1111,1004,l),
(834,1004,l),
(986,1296,l),
(843,1296,l),
(689,1004,l),
(116,1004,l),
(116,856,l),
(617,856,l),
(427,492,l),
(116,492,l),
(116,344,l),
(353,344,l),
(202,55,l),
(347,55,l),
(499,344,l)
);
}
);
width = 1229;
}
);
note = notequal;
unicode = 8800;
},
{
glyphname = AE;
lastChange = "2019-12-03 14:54:35 +0000";
layers = (
{
layerId = "BC15D09A-B757-48E3-911F-803B0089DB3F";
shapes = (
{
closed = 1;
nodes = (
(646,0,l),
(1195,0,l),
(1195,152,l),
(817,152,l),
(817,617,l),
(1144,617,l),
(1144,767,l),
(817,767,l),
(817,1197,l),
(1154,1197,l),
(1154,1349,l),
(487,1349,l),
(1,0,l),
(169,0,l),
(311,412,l),
(646,412,l)
);
},
{
closed = 1;
nodes = (
(646,561,l),
(362,561,l),
(492,926,o),
(569,1186,o),
(573,1202,q),
(646,1202,l)
);
}
);
width = 1229;
}
);
note = AE;
unicode = 198;
},
{
glyphname = Oslash;
lastChange = "2019-12-03 14:54:35 +0000";
layers = (
{
layerId = "BC15D09A-B757-48E3-911F-803B0089DB3F";
shapes = (
{
closed = 1;
nodes = (
(1126,970,o),
(1030,1140,q),
(1170,1327,l),
(1076,1392,l),
(960,1236,l),
(832,1370,o),
(615,1370,qs),
(362,1370,o),
(102,1018,o),
(102,681,qs),
(102,390,o),
(197,216,q),
(56,27,l),
(150,-38,l),
(267,118,l),
(395,-20,o),
(613,-20,qs),
(861,-20,o),
(1126,344,o),
(1126,681,qs)
);
},
{
closed = 1;
nodes = (
(925,415,o),
(777,135,o),
(614,135,qs),
(462,135,o),
(383,273,q),
(895,959,l),
(925,845,o),
(925,681,qs)
);
},
{
closed = 1;
nodes = (
(303,1214,o),
(615,1214,qs),
(768,1214,o),
(845,1083,q),
(333,399,l),
(303,515,o),
(303,681,qs)
);
}
);
width = 1229;
}
);
note = Oslash;
unicode = 216;
},
{
glyphname = infinity;
lastChange = "2019-12-03 14:54:35 +0000";
layers = (
{
layerId = "BC15D09A-B757-48E3-911F-803B0089DB3F";
shapes = (
{
closed = 1;
nodes = (
(1195,764,o),
(1042,977,o),
(915,977,qs),
(741,977,o),
(611,700,q),
(496,983,o),
(313,983,qs),
(190,983,o),
(29,767,o),
(29,596,qs),
(29,421,o),
(187,209,o),
(313,209,qs),
(395,209,o),
(553,359,o),
(609,485,q),
(728,203,o),
(913,203,qs),
(1035,203,o),
(1195,424,o),
(1195,590,qs)
);
},
{
closed = 1;
nodes = (
(962,846,o),
(1056,699,o),
(1056,592,qs),
(1056,477,o),
(962,334,o),
(890,334,qs),
(824,334,o),
(722,462,o),
(677,590,q),
(725,720,o),
(828,846,o),
(889,846,qs)
);
},
{
closed = 1;
nodes = (
(451,340,o),
(334,340,qs),
(261,340,o),
(169,479,o),
(169,594,qs),
(169,706,o),
(261,852,o),
(332,852,qs),
(399,852,o),
(502,724,o),
(546,596,q)
);
}
);
width = 1229;
}
);
note = infinity;
unicode = 8734;
},
{
glyphname = plusminus;
lastChange = "2019-12-03 14:54:35 +0000";
layers = (
{
layerId = "BC15D09A-B757-48E3-911F-803B0089DB3F";
shapes = (
{
closed = 1;
nodes = (
(1111,680,l),
(1111,825,l),
(687,825,l),
(687,1219,l),
(540,1219,l),
(540,825,l),
(116,825,l),
(116,680,l),
(540,680,l),
(540,285,l),
(687,285,l),
(687,680,l)
);
},
{
closed = 1;
nodes = (
(1111,0,l),
(1111,145,l),
(116,145,l),
(116,0,l)
);
}
);
width = 1229;
}
);
note = plusminus;
unicode = 177;
},
{
glyphname = lessequal;
lastChange = "2019-12-03 14:54:35 +0000";
layers = (
{
layerId = "BC15D09A-B757-48E3-911F-803B0089DB3F";
shapes = (
{
closed = 1;
nodes = (
(1112,236,l),
(1112,389,l),
(254,733,l),
(1112,1077,l),
(1112,1231,l),
(117,836,l),
(117,631,l)
);
},
{
closed = 1;
nodes = (
(1110,0,l),
(1110,145,l),
(115,145,l),
(115,0,l)
);
}
);
width = 1229;
}
);
note = lessequal;
unicode = 8804;
},
{
glyphname = greaterequal;
lastChange = "2019-12-03 14:54:35 +0000";
layers = (
{
layerId = "BC15D09A-B757-48E3-911F-803B0089DB3F";
shapes = (
{
closed = 1;
nodes = (
(1111,631,l),
(1111,836,l),
(116,1231,l),
(116,1077,l),
(974,733,l),
(116,389,l),
(116,236,l)
);
},
{
closed = 1;
nodes = (
(1111,0,l),
(1111,145,l),
(116,145,l),
(116,0,l)
);
}
);
width = 1229;
}
);
note = greaterequal;
unicode = 8805;
},
{
glyphname = yen;
lastChange = "2019-12-03 14:54:35 +0000";
layers = (
{
layerId = "BC15D09A-B757-48E3-911F-803B0089DB3F";
shapes = (
{
closed = 1;
nodes = (
(1176,1349,l),
(977,1349,l),
(612,732,l),
(251,1349,l),
(52,1349,l),
(463,679,l),
(143,679,l),
(143,537,l),
(526,537,l),
(524,400,l),
(143,400,l),
(143,256,l),
(524,256,l),
(524,0,l),
(702,0,l),
(702,256,l),
(1085,256,l),
(1085,400,l),
(702,400,l),
(702,537,l),
(1085,537,l),
(1085,679,l),
(764,679,l)
);
}
);
width = 1229;
}
);
note = yen;
unicode = 165;
},
{
glyphname = mu1;
lastChange = "2019-12-03 14:54:35 +0000";
layers = (
{
layerId = "BC15D09A-B757-48E3-911F-803B0089DB3F";
shapes = (
{
closed = 1;
nodes = (
(1084,0,l),
(1078,42,o),
(1078,233,qs),
(1078,1082,l),
(897,1082,l),
(897,465,ls),
(897,314,o),
(721,121,o),
(590,121,qs),
(326,121,o),
(326,438,qs),
(326,1082,l),
(144,1082,l),
(144,-393,l),
(326,-393,l),
(326,-20,ls),
(326,59,o),
(322,102,q),
(326,102,l),
(358,44,o),
(486,-20,o),
(568,-20,qs),
(796,-20,o),
(902,199,q),
(906,199,l),
(906,173,o),
(914,11,o),
(916,0,q)
);
}
);
width = 1229;
}
);
note = mu1;
unicode = 181;
},
{
glyphname = partialdiff;
lastChange = "2019-12-03 14:54:35 +0000";
layers = (
{
layerId = "BC15D09A-B757-48E3-911F-803B0089DB3F";
shapes = (
{
closed = 1;
nodes = (
(1123,1201,o),
(895,1477,o),
(685,1477,qs),
(563,1477,o),
(439,1415,q),
(400,1268,l),
(452,1304,o),
(590,1343,o),
(650,1343,qs),
(795,1343,o),
(941,1134,o),
(941,938,qs),
(941,884,o),
(936,821,q),
(932,821,l),
(895,905,o),
(741,1004,o),
(641,1004,qs),
(524,1004,o),
(329,904,o),
(189,725,o),
(105,474,o),
(105,356,qs),
(105,174,o),
(301,-27,o),
(482,-27,qs),
(627,-27,o),
(862,110,o),
(1031,377,o),
(1123,759,o),
(1123,938,qs)
);
},
{
closed = 1;
nodes = (
(883,521,o),
(766,258,o),
(601,109,o),
(506,109,qs),
(406,109,o),
(295,243,o),
(295,358,qs),
(295,487,o),
(401,750,o),
(565,883,o),
(666,883,qs),
(751,883,o),
(885,769,o),
(906,680,q)
);
}
);
width = 1229;
}
);
note = partialdiff;
unicode = 8706;
},
{
glyphname = summation;
lastChange = "2019-12-03 14:54:35 +0000";
layers = (
{
layerId = "BC15D09A-B757-48E3-911F-803B0089DB3F";
shapes = (
{
closed = 1;
nodes = (
(1201,-455,l),
(1201,-303,l),
(271,-303,l),
(871,458,l),
(287,1197,l),
(1133,1197,l),
(1133,1349,l),
(43,1349,l),
(43,1243,l),
(662,456,l),
(27,-346,l),
(27,-455,l)
);
}
);
width = 1229;
}
);
note = summation;
unicode = 8721;
},
{
glyphname = product;
lastChange = "2019-12-03 14:54:35 +0000";
layers = (
{
layerId = "BC15D09A-B757-48E3-911F-803B0089DB3F";
shapes = (
{
closed = 1;
nodes = (
(1122,-455,l),
(1122,1349,l),
(105,1349,l),
(105,-455,l),
(296,-455,l),
(296,1187,l),
(938,1187,l),
(938,-455,l)
);
}
);
width = 1229;
}
);
note = product;
unicode = 8719;
},
{
glyphname = integral;
lastChange = "2019-12-03 14:54:35 +0000";
layers = (
{
layerId = "BC15D09A-B757-48E3-911F-803B0089DB3F";
shapes = (
{
closed = 1;
nodes = (
(944,1368,o),
(993,1341,q),
(993,1489,l),
(949,1507,o),
(862,1507,qs),
(696,1507,o),
(522,1325,o),
(522,1153,qs),
(522,-80,ls),
(522,-313,o),
(352,-313,qs),
(295,-313,o),
(235,-289,q),
(235,-436,l),
(290,-455,o),
(369,-455,qs),
(532,-455,o),
(706,-272,o),
(706,-100,qs),
(706,1135,ls),
(706,1249,o),
(795,1368,o),
(878,1368,qs)
);
}
);
width = 1229;
}
);
note = integral;
unicode = 8747;
},
{
glyphname = ordfeminine;
lastChange = "2019-12-03 14:54:35 +0000";
layers = (
{
layerId = "BC15D09A-B757-48E3-911F-803B0089DB3F";
shapes = (
{
closed = 1;
nodes = (
(206,765,o),
(343,651,o),
(464,651,qs),
(566,651,o),
(712,740,o),
(755,817,q),
(759,817,l),
(765,657,o),
(919,657,qs),
(971,657,o),
(1021,670,q),
(1021,764,l),
(997,756,o),
(972,756,qs),
(929,756,o),
(898,816,o),
(898,874,qs),
(898,1165,ls),
(898,1298,o),
(732,1432,o),
(579,1432,qs),
(433,1432,o),
(257,1312,o),
(239,1206,q),
(388,1196,l),
(399,1273,o),
(491,1341,o),
(575,1341,qs),
(755,1341,o),
(755,1159,qs),
(755,1116,l),
(564,1112,ls),
(386,1110,o),
(206,987,o),
(206,870,qs)
);
},
{
closed = 1;
nodes = (
(353,960,o),
(471,1027,o),
(601,1030,qs),
(755,1034,l),
(755,983,ls),
(755,929,o),
(689,820,o),
(574,752,o),
(505,752,qs),
(435,752,o),
(353,826,o),
(353,890,qs)
);
}
);
width = 1229;
}
);
note = ordfeminine;
unicode = 170;
},
{
glyphname = ordmasculine;
lastChange = "2019-12-03 14:54:35 +0000";
layers = (
{
layerId = "BC15D09A-B757-48E3-911F-803B0089DB3F";
shapes = (
{
closed = 1;
nodes = (
(1002,1231,o),
(804,1432,o),
(615,1432,qs),
(432,1432,o),
(226,1224,o),
(226,1042,qs),
(226,865,o),
(429,651,o),
(611,651,qs),
(797,651,o),
(1002,859,o),
(1002,1042,qs)
);
},
{
closed = 1;
nodes = (
(853,889,o),
(726,756,o),
(609,756,qs),
(496,756,o),
(378,902,o),
(378,1042,qs),
(378,1327,o),
(619,1327,qs),
(733,1327,o),
(853,1193,o),
(853,1042,qs)
);
}
);
width = 1229;
}
);
note = ordmasculine;
unicode = 186;
},
{
glyphname = Ohm;
lastChange = "2019-12-03 14:54:35 +0000";
layers = (
{
layerId = "BC15D09A-B757-48E3-911F-803B0089DB3F";
shapes = (
{
closed = 1;
nodes = (
(370,1370,o),
(83,1047,o),
(83,771,qs),
(83,583,o),
(257,254,o),
(420,145,q),
(303,156,o),
(259,156,qs),
(59,156,l),
(59,0,l),
(542,0,l),
(542,224,l),
(409,322,o),
(278,585,o),
(278,758,qs),
(278,978,o),
(448,1214,o),
(616,1214,qs),
(780,1214,o),
(952,982,o),
(952,758,qs),
(952,586,o),
(822,322,o),
(688,224,q),
(688,0,l),
(1171,0,l),
(1171,156,l),
(971,156,ls),
(927,156,o),
(810,145,q),
(973,253,o),
(1147,582,o),
(1147,771,qs),
(1147,1046,o),
(860,1370,o),
(615,1370,qs)
);
}
);
width = 1229;
}
);
note = Ohm;
unicode = 8486;
},
{
glyphname = ae;
lastChange = "2019-12-03 14:54:35 +0000";
layers = (
{
layerId = "BC15D09A-B757-48E3-911F-803B0089DB3F";
shapes = (
{
closed = 1;
nodes = (
(1208,503,l),
(1208,527,ls),
(1208,819,o),
(1039,1102,o),
(873,1102,qs),
(712,1102,o),
(627,963,q),
(556,1102,o),
(380,1102,qs),
(239,1102,o),
(84,961,o),
(65,810,q),
(233,793,l),
(240,884,o),
(307,965,o),
(381,965,qs),
(453,965,o),
(517,854,o),
(517,719,qs),
(517,660,l),
(350,656,ls),
(20,651,o),
(20,302,qs),
(20,144,o),
(149,-20,o),
(278,-20,qs),
(375,-20,o),
(524,90,o),
(576,212,q),
(610,90,o),
(747,-20,o),
(868,-20,qs),
(1114,-20,o),
(1182,236,q),
(1044,281,l),
(1028,209,o),
(939,115,o),
(864,115,qs),
(684,115,o),
(679,486,qs),
(679,503,l)
);
},
{
closed = 1;
nodes = (
(189,380,o),
(235,480,o),
(316,528,o),
(395,530,qs),
(517,534,l),
(517,445,ls),
(517,357,o),
(463,206,o),
(367,117,o),
(303,117,qs),
(246,117,o),
(189,217,o),
(189,299,qs)
);
},
{
closed = 1;
nodes = (
(945,969,o),
(1033,812,o),
(1042,641,q),
(681,641,l),
(684,795,o),
(777,969,o),
(859,969,qs)
);
}
);
width = 1229;
}
);
note = ae;
unicode = 230;
},
{
glyphname = oslash;
lastChange = "2019-12-03 14:54:35 +0000";
layers = (
{
layerId = "BC15D09A-B757-48E3-911F-803B0089DB3F";
shapes = (
{
closed = 1;
nodes = (
(1117,789,o),
(1020,926,q),
(1100,1016,l),
(1022,1084,l),
(950,1002,l),
(828,1102,o),
(615,1102,qs),
(367,1102,o),
(110,814,o),
(110,542,qs),
(110,305,o),
(209,163,q),
(125,68,l),
(201,0,l),
(278,87,l),
(405,-20,o),
(609,-20,qs),
(857,-20,o),
(1117,270,o),
(1117,542,qs)
);
},
{
closed = 1;
nodes = (
(928,326,o),
(775,113,o),
(607,113,qs),
(463,113,o),
(386,208,q),
(895,784,l),
(928,689,o),
(928,542,qs)
);
},
{
closed = 1;
nodes = (
(299,754,o),
(454,969,o),
(618,969,qs),
(767,969,o),
(842,880,q),
(333,304,l),
(299,396,o),
(299,542,qs)
);
}
);
width = 1229;
}
);
note = oslash;
unicode = 248;
},
{
glyphname = questiondown;
lastChange = "2019-12-03 14:54:35 +0000";
layers = (
{
layerId = "BC15D09A-B757-48E3-911F-803B0089DB3F";
shapes = (
{
closed = 1;
nodes = (
(153,-96,o),
(409,-289,o),
(632,-289,qs),
(839,-289,o),
(1106,-76,o),
(1132,121,q),
(948,133,l),
(934,7,o),
(765,-139,o),
(630,-139,qs),
(494,-139,o),
(335,-22,o),
(335,87,qs),
(335,142,o),
(375,227,o),
(442,301,o),
(549,380,qs),
(644,450,o),
(723,543,o),
(768,654,o),
(770,724,q),
(595,724,l),
(594,669,o),
(553,583,o),
(482,509,o),
(372,430,qs),
(280,363,o),
(197,266,o),
(153,152,o),
(153,79,qs)
);
},
{
closed = 1;
nodes = (
(583,1081,l),
(583,880,l),
(778,880,l),
(778,1081,l)
);
}
);
width = 1229;
}
);
note = questiondown;
unicode = 191;
},
{
glyphname = exclamdown;
lastChange = "2019-12-03 14:54:35 +0000";
layers = (
{
layerId = "BC15D09A-B757-48E3-911F-803B0089DB3F";
shapes = (
{
closed = 1;
nodes = (
(515,-266,l),
(711,-266,l),
(687,685,l),
(539,685,l)
);
},
{
closed = 1;
nodes = (
(519,1082,l),
(519,881,l),
(713,881,l),
(713,1082,l)
);
}
);
width = 1229;
}
);
note = exclamdown;
unicode = 161;
},
{
glyphname = logicalnot;
lastChange = "2019-12-03 14:54:35 +0000";
layers = (
{
layerId = "BC15D09A-B757-48E3-911F-803B0089DB3F";
shapes = (
{
closed = 1;
nodes = (
(1111,180,l),
(1111,754,l),
(116,754,l),
(116,608,l),
(966,608,l),
(966,180,l)
);
}
);
width = 1229;
}
);
note = logicalnot;
unicode = 172;
},
{
glyphname = radical;
lastChange = "2019-12-03 14:54:35 +0000";
layers = (
{
layerId = "BC15D09A-B757-48E3-911F-803B0089DB3F";
shapes = (
{
closed = 1;
nodes = (
(1149,1620,l),
(1020,1620,l),
(590,205,l),
(348,895,l),
(78,895,l),
(78,778,l),
(260,778,l),
(543,-14,l),
(649,-14,l)
);
}
);
width = 1229;
}
);
note = radical;
unicode = 8730;
},
{
glyphname = florin;
lastChange = "2019-12-03 14:54:35 +0000";
layers = (
{
layerId = "BC15D09A-B757-48E3-911F-803B0089DB3F";
shapes = (
{
closed = 1;
nodes = (
(894,1349,l),
(859,1359,o),
(777,1369,o),
(741,1369,qs),
(608,1369,o),
(478,1229,o),
(478,1069,qs),
(478,936,l),
(325,936,l),
(325,805,l),
(477,805,l),
(477,-425,l),
(657,-425,l),
(657,805,l),
(870,805,l),
(870,936,l),
(659,936,l),
(659,1074,ls),
(659,1165,o),
(719,1242,o),
(782,1242,qs),
(815,1242,o),
(877,1232,o),
(894,1227,q)
);
}
);
width = 1229;
}
);
note = florin;
unicode = 402;
},
{
glyphname = approxequal;
lastChange = "2019-12-03 14:54:35 +0000";
layers = (
{
layerId = "BC15D09A-B757-48E3-911F-803B0089DB3F";
shapes = (
{
closed = 1;
nodes = (
(945,758,o),
(1060,796,o),
(1120,838,q),
(1120,987,l),
(1006,893,o),
(876,893,qs),
(847,893,o),
(769,908,o),
(680,938,qs),
(665,943,ls),
(595,968,o),
(448,1012,o),
(371,1012,qs),
(222,1012,o),
(108,928,q),
(108,784,l),
(179,835,o),
(293,872,o),
(356,872,qs),
(440,872,o),
(573,827,qs),
(646,801,o),
(791,758,o),
(860,758,qs)
);
},
{
closed = 1;
nodes = (
(840,473,o),
(753,493,o),
(606,544,qs),
(473,590,o),
(371,590,qs),
(219,590,o),
(108,506,q),
(108,365,l),
(173,412,o),
(289,453,o),
(356,453,qs),
(440,453,o),
(573,406,qs),
(646,380,o),
(791,336,o),
(860,336,qs),
(943,336,o),
(1060,373,o),
(1120,418,q),
(1120,565,l),
(1006,473,o),
(876,473,qs)
);
}
);
width = 1229;
}
);
note = approxequal;
unicode = 8776;
},
{
glyphname = uni2206;
lastChange = "2019-12-03 14:54:35 +0000";
layers = (
{
layerId = "BC15D09A-B757-48E3-911F-803B0089DB3F";
shapes = (
{
closed = 1;
nodes = (
(1216,0,l),
(1216,147,l),
(733,1409,l),
(489,1409,l),
(12,145,l),
(12,0,l)
);
},
{
closed = 1;
nodes = (
(710,997,l),
(1024,156,l),
(204,156,l),
(514,997,l),
(612,1274,l)
);
}
);
width = 1229;
}
);
note = uni2206;
unicode = 8710;
},
{
glyphname = guillemotleft;
lastChange = "2019-12-03 14:54:35 +0000";
layers = (
{
layerId = "BC15D09A-B757-48E3-911F-803B0089DB3F";
shapes = (
{
closed = 1;
nodes = (
(1120,141,l),
(1120,170,l),
(780,537,l),
(1118,909,l),
(1118,940,l),
(940,940,l),
(602,569,l),
(602,506,l),
(940,141,l)
);
},
{
closed = 1;
nodes = (
(642,141,l),
(642,170,l),
(305,537,l),
(640,909,l),
(640,940,l),
(463,940,l),
(127,569,l),
(127,506,l),
(463,141,l)
);
}
);
width = 1229;
}
);
note = guillemotleft;
unicode = 171;
},
{
glyphname = guillemotright;
lastChange = "2019-12-03 14:54:35 +0000";
layers = (
{
layerId = "BC15D09A-B757-48E3-911F-803B0089DB3F";
shapes = (
{
closed = 1;
nodes = (
(1100,506,l),
(1100,569,l),
(762,940,l),
(586,940,l),
(586,909,l),
(922,537,l),
(584,170,l),
(584,141,l),
(762,141,l)
);
},
{
closed = 1;
nodes = (
(622,506,l),
(622,569,l),
(287,940,l),
(109,940,l),
(109,909,l),
(445,537,l),
(107,170,l),
(107,141,l),
(287,141,l)
);
}
);
width = 1229;
}
);
note = guillemotright;
unicode = 187;
},
{
glyphname = ellipsis;
lastChange = "2019-12-03 14:54:35 +0000";
layers = (
{
layerId = "BC15D09A-B757-48E3-911F-803B0089DB3F";
shapes = (
{
closed = 1;
nodes = (
(1112,0,l),
(1112,219,l),
(938,219,l),
(938,0,l)
);
},
{
closed = 1;
nodes = (
(701,0,l),
(701,219,l),
(529,219,l),
(529,0,l)
);
},
{
closed = 1;
nodes = (
(292,0,l),
(292,219,l),
(117,219,l),
(117,0,l)
);
}
);
width = 1229;
}
);
note = ellipsis;
unicode = 8230;
},
{
glyphname = OE;
lastChange = "2019-12-03 14:54:35 +0000";
layers = (
{
layerId = "BC15D09A-B757-48E3-911F-803B0089DB3F";
shapes = (
{
closed = 1;
nodes = (
(1221,0,l),
(1221,152,l),
(782,152,l),
(782,607,l),
(1149,607,l),
(1149,757,l),
(782,757,l),
(782,1197,l),
(1180,1197,l),
(1180,1349,l),
(622,1349,l),
(571,1355,o),
(513,1355,qs),
(257,1355,o),
(20,1031,o),
(20,681,qs),
(20,333,o),
(256,-5,o),
(511,-5,qs),
(552,-5,o),
(609,0,q)
);
},
{
closed = 1;
nodes = (
(355,140,o),
(201,406,o),
(201,681,qs),
(201,953,o),
(350,1209,o),
(513,1209,qs),
(574,1209,o),
(612,1203,q),
(612,146,l),
(584,140,o),
(512,140,qs)
);
}
);
width = 1229;
}
);
note = OE;
unicode = 338;
},
{
glyphname = oe;
lastChange = "2019-12-03 14:54:35 +0000";
layers = (
{
layerId = "BC15D09A-B757-48E3-911F-803B0089DB3F";
shapes = (
{
closed = 1;
nodes = (
(1204,503,l),
(1204,527,ls),
(1204,1102,o),
(885,1102,qs),
(711,1102,o),
(626,925,q),
(547,1102,o),
(360,1102,qs),
(198,1102,o),
(28,821,o),
(28,542,qs),
(28,269,o),
(196,-20,o),
(353,-20,qs),
(536,-20,o),
(619,163,q),
(700,-20,o),
(882,-20,qs),
(1112,-20,o),
(1175,236,q),
(1037,281,l),
(1023,209,o),
(945,115,o),
(880,115,qs),
(799,115,o),
(712,314,o),
(712,503,q)
);
},
{
closed = 1;
nodes = (
(543,322,o),
(461,113,o),
(367,113,qs),
(197,113,o),
(197,542,qs),
(197,761,o),
(282,969,o),
(373,969,qs),
(464,969,o),
(543,761,o),
(543,542,qs)
);
},
{
closed = 1;
nodes = (
(950,969,o),
(1030,812,o),
(1038,641,q),
(714,641,l),
(717,796,o),
(803,969,o),
(875,969,qs)
);
}
);
width = 1229;
}
);
note = oe;
unicode = 339;
},
{
glyphname = endash;
lastChange = "2019-12-03 14:54:35 +0000";
layers = (
{
layerId = "BC15D09A-B757-48E3-911F-803B0089DB3F";
shapes = (
{
closed = 1;
nodes = (
(1058,451,l),
(1058,588,l),
(170,588,l),
(170,451,l)
);
}
);
width = 1229;
}
);
note = endash;
unicode = 8211;
},
{
glyphname = emdash;
lastChange = "2019-12-03 14:54:35 +0000";
layers = (
{
layerId = "BC15D09A-B757-48E3-911F-803B0089DB3F";
shapes = (
{
closed = 1;
nodes = (
(1238,451,l),
(1238,588,l),
(-10,588,l),
(-10,451,l)
);
}
);
width = 1229;
}
);
note = emdash;
unicode = 8212;
},
{
glyphname = quotedblleft;
lastChange = "2019-12-03 14:54:35 +0000";
layers = (
{
layerId = "BC15D09A-B757-48E3-911F-803B0089DB3F";
shapes = (
{
closed = 1;
nodes = (
(488,1484,l),
(177,862,l),
(442,862,l),
(611,1484,l)
);
},
{
closed = 1;
nodes = (
(927,1484,l),
(616,862,l),
(881,862,l),
(1050,1484,l)
);
}
);
width = 1229;
}
);
note = quotedblleft;
unicode = 8220;
},
{
glyphname = quotedblright;
lastChange = "2019-12-03 14:54:35 +0000";
layers = (
{
layerId = "BC15D09A-B757-48E3-911F-803B0089DB3F";
shapes = (
{
closed = 1;
nodes = (
(740,862,l),
(1051,1484,l),
(786,1484,l),
(617,862,l)
);
},
{
closed = 1;
nodes = (
(301,862,l),
(612,1484,l),
(347,1484,l),
(178,862,l)
);
}
);
width = 1229;
}
);
note = quotedblright;
unicode = 8221;
},
{
glyphname = quoteleft;
lastChange = "2019-12-03 14:54:35 +0000";
layers = (
{
layerId = "BC15D09A-B757-48E3-911F-803B0089DB3F";
shapes = (
{
closed = 1;
nodes = (
(708,1484,l),
(397,862,l),
(662,862,l),
(831,1484,l)
);
}
);
width = 1229;
}
);
note = quoteleft;
unicode = 8216;
},
{
glyphname = quoteright;
lastChange = "2019-12-03 14:54:35 +0000";
layers = (
{
layerId = "BC15D09A-B757-48E3-911F-803B0089DB3F";
shapes = (
{
closed = 1;
nodes = (
(522,862,l),
(833,1484,l),
(568,1484,l),
(399,862,l)
);
}
);
width = 1229;
}
);
note = quoteright;
unicode = 8217;
},
{
glyphname = divide;
lastChange = "2019-12-03 14:54:35 +0000";
layers = (
{
layerId = "BC15D09A-B757-48E3-911F-803B0089DB3F";
shapes = (
{
closed = 1;
nodes = (
(697,958,l),
(697,1141,l),
(529,1141,l),
(529,958,l)
);
},
{
closed = 1;
nodes = (
(1111,608,l),
(1111,754,l),
(116,754,l),
(116,608,l)
);
},
{
closed = 1;
nodes = (
(697,223,l),
(697,406,l),
(529,406,l),
(529,223,l)
);
}
);
width = 1229;
}
);
note = divide;
unicode = 247;
},
{
glyphname = lozenge;
lastChange = "2019-12-03 14:54:35 +0000";
layers = (
{
layerId = "BC15D09A-B757-48E3-911F-803B0089DB3F";
shapes = (
{
closed = 1;
nodes = (
(1113,721,l),
(654,1440,l),
(572,1440,l),
(115,719,l),
(572,0,l),
(654,0,l)
);
},
{
closed = 1;
nodes = (
(967,721,l),
(615,147,l),
(261,721,l),
(615,1286,l)
);
}
);
width = 1229;
}
);
note = lozenge;
unicode = 9674;
},
{
glyphname = fraction;
lastChange = "2019-12-03 14:54:35 +0000";
layers = (
{
layerId = "BC15D09A-B757-48E3-911F-803B0089DB3F";
shapes = (
{
closed = 1;
nodes = (
(1022,1349,l),
(907,1349,l),
(204,0,l),
(322,0,l)
);
}
);
width = 1229;
}
);
note = fraction;
unicode = (8260,8725);
},
{
glyphname = Euro;
lastChange = "2019-12-03 14:54:35 +0000";
layers = (
{
layerId = "BC15D09A-B757-48E3-911F-803B0089DB3F";
shapes = (
{
closed = 1;
nodes = (
(873,605,l),
(399,605,l),
(396,679,l),
(398,757,l),
(873,757,l),
(873,898,l),
(412,898,l),
(432,1069,o),
(580,1214,o),
(744,1214,qs),
(888,1214,o),
(1026,1114,q),
(1108,1254,l),
(1017,1317,o),
(835,1370,o),
(729,1370,qs),
(278,1370,o),
(220,900,q),
(91,900,l),
(91,758,l),
(210,758,l),
(206,722,o),
(206,679,qs),
(210,604,l),
(91,604,l),
(91,460,l),
(222,460,l),
(251,220,o),
(506,-20,o),
(727,-20,qs),
(833,-20,o),
(1023,37,o),
(1123,104,q),
(1047,239,l),
(950,178,o),
(812,135,o),
(737,135,qs),
(586,135,o),
(431,291,o),
(414,463,q),
(873,463,l)
);
}
);
width = 1229;
}
);
note = Euro;
unicode = 8364;
},
{
glyphname = guilsinglleft;
lastChange = "2019-12-03 14:54:35 +0000";
layers = (
{
layerId = "BC15D09A-B757-48E3-911F-803B0089DB3F";
shapes = (
{
closed = 1;
nodes = (
(861,141,l),
(861,170,l),
(524,537,l),
(859,909,l),
(859,940,l),
(682,940,l),
(346,569,l),
(346,506,l),
(682,141,l)
);
}
);
width = 1229;
}
);
note = guilsinglleft;
unicode = 8249;
},
{
glyphname = guilsinglright;
lastChange = "2019-12-03 14:54:35 +0000";
layers = (
{
layerId = "BC15D09A-B757-48E3-911F-803B0089DB3F";
shapes = (
{
closed = 1;
nodes = (
(881,506,l),
(881,569,l),
(544,940,l),
(368,940,l),
(368,909,l),
(704,537,l),
(366,170,l),
(366,141,l),
(544,141,l)
);
}
);
width = 1229;
}
);
note = guilsinglright;
unicode = 8250;
},
{
glyphname = fi;
lastChange = "2019-12-03 14:54:35 +0000";
layers = (
{
layerId = "BC15D09A-B757-48E3-911F-803B0089DB3F";
shapes = (
{
closed = 1;
nodes = (
(627,951,l),
(627,1082,l),
(416,1082,l),
(416,1179,ls),
(416,1271,o),
(478,1341,o),
(547,1341,qs),
(582,1341,o),
(627,1333,q),
(627,1470,l),
(575,1482,o),
(500,1482,qs),
(366,1482,o),
(236,1352,o),
(236,1204,qs),
(236,1082,l),
(84,1082,l),
(84,951,l),
(236,951,l),
(236,0,l),
(416,0,l),
(416,951,l)
);
},
{
closed = 1;
nodes = (
(1061,1312,l),
(1061,1484,l),
(881,1484,l),
(881,1312,l)
);
},
{
closed = 1;
nodes = (
(1061,0,l),
(1061,1082,l),
(881,1082,l),
(881,0,l)
);
}
);
width = 1229;
}
);
note = fi;
unicode = 64257;
},
{
glyphname = fl;
lastChange = "2019-12-03 14:54:35 +0000";
layers = (
{
layerId = "BC15D09A-B757-48E3-911F-803B0089DB3F";
shapes = (
{
closed = 1;
nodes = (
(627,951,l),
(627,1082,l),
(416,1082,l),
(416,1179,ls),
(416,1271,o),
(478,1341,o),
(547,1341,qs),
(582,1341,o),
(627,1333,q),
(627,1470,l),
(575,1482,o),
(500,1482,qs),
(366,1482,o),
(236,1352,o),
(236,1204,qs),
(236,1082,l),
(84,1082,l),
(84,951,l),
(236,951,l),
(236,0,l),
(416,0,l),
(416,951,l)
);
},
{
closed = 1;
nodes = (
(1061,0,l),
(1061,1484,l),
(881,1484,l),
(881,0,l)
);
}
);
width = 1229;
}
);
note = fl;
unicode = 64258;
},
{
glyphname = daggerdbl;
lastChange = "2019-12-03 14:54:35 +0000";
layers = (
{
layerId = "BC15D09A-B757-48E3-911F-803B0089DB3F";
shapes = (
{
closed = 1;
nodes = (
(685,281,l),
(651,635,l),
(685,989,l),
(1046,972,l),
(1046,1136,l),
(685,1117,l),
(711,1483,l),
(516,1483,l),
(542,1117,l),
(182,1136,l),
(182,972,l),
(542,989,l),
(576,635,l),
(542,281,l),
(182,298,l),
(182,134,l),
(542,153,l),
(516,-213,l),
(711,-213,l),
(685,153,l),
(1046,134,l),
(1046,298,l)
);
}
);
width = 1229;
}
);
note = daggerdbl;
unicode = 8225;
},
{
glyphname = periodcentered;
lastChange = "2019-12-03 14:54:35 +0000";
layers = (
{
layerId = "BC15D09A-B757-48E3-911F-803B0089DB3F";
shapes = (
{
closed = 1;
nodes = (
(731,420,l),
(731,719,l),
(496,719,l),
(496,420,l)
);
}
);
width = 1229;
}
);
note = periodcentered;
unicode = 8729;
},
{
glyphname = quotesinglbase;
lastChange = "2019-12-03 14:54:35 +0000";
layers = (
{
layerId = "BC15D09A-B757-48E3-911F-803B0089DB3F";
shapes = (
{
closed = 1;
nodes = (
(472,-363,l),
(783,259,l),
(518,259,l),
(349,-363,l)
);
}
);
width = 1229;
}
);
note = quotesinglbase;
unicode = 8218;
},
{
glyphname = quotedblbase;
lastChange = "2019-12-03 14:54:35 +0000";
layers = (
{
layerId = "BC15D09A-B757-48E3-911F-803B0089DB3F";
shapes = (
{
closed = 1;
nodes = (
(740,-364,l),
(1051,258,l),
(786,258,l),
(617,-364,l)
);
},
{
closed = 1;
nodes = (
(301,-364,l),
(612,258,l),
(347,258,l),
(178,-364,l)
);
}
);
width = 1229;
}
);
note = quotedblbase;
unicode = 8222;
},
{
glyphname = perthousand;
lastChange = "2019-12-03 14:54:35 +0000";
layers = (
{
layerId = "BC15D09A-B757-48E3-911F-803B0089DB3F";
shapes = (
{
closed = 1;
nodes = (
(732,1034,l),
(585,1034,l),
(2,395,l),
(147,395,l)
);
},
{
closed = 1;
nodes = (
(114,1411,o),
(0,1263,o),
(0,1115,qs),
(0,968,o),
(116,814,o),
(232,814,qs),
(345,814,o),
(464,966,o),
(464,1115,qs),
(464,1262,o),
(353,1411,o),
(236,1411,qs)
);
},
{
closed = 1;
nodes = (
(334,927,o),
(234,927,qs),
(180,927,o),
(130,1014,o),
(130,1115,qs),
(130,1216,o),
(178,1303,o),
(235,1303,qs),
(289,1303,o),
(334,1213,o),
(334,1115,qs)
);
},
{
closed = 1;
nodes = (
(373,597,o),
(259,449,o),
(259,301,qs),
(259,152,o),
(377,0,o),
(492,0,qs),
(605,0,o),
(724,152,o),
(724,301,qs),
(724,597,o),
(495,597,qs)
);
},
{
closed = 1;
nodes = (
(594,202,o),
(544,113,o),
(493,113,qs),
(437,113,o),
(389,206,o),
(389,301,qs),
(389,403,o),
(438,489,o),
(494,489,qs),
(546,489,o),
(594,402,o),
(594,301,qs)
);
},
{
closed = 1;
nodes = (
(878,597,o),
(764,449,o),
(764,301,qs),
(764,153,o),
(882,0,o),
(996,0,qs),
(1109,0,o),
(1228,152,o),
(1228,301,qs),
(1228,448,o),
(1117,597,o),
(1000,597,qs)
);
},
{
closed = 1;
nodes = (
(1099,113,o),
(998,113,qs),
(944,113,o),
(894,200,o),
(894,301,qs),
(894,402,o),
(942,489,o),
(999,489,qs),
(1051,489,o),
(1099,402,o),
(1099,301,qs)
);
}
);
width = 1229;
}
);
note = perthousand;
unicode = 8240;
},
{
glyphname = dotlessi;
lastChange = "2019-12-03 14:54:35 +0000";
layers = (
{
layerId = "BC15D09A-B757-48E3-911F-803B0089DB3F";
shapes = (
{
closed = 1;
nodes = (
(745,1082,l),
(246,1082,l),
(246,940,l),
(565,940,l),
(565,142,l),
(143,142,l),
(143,0,l),
(1125,0,l),
(1125,142,l),
(745,142,l)
);
}
);
width = 1229;
}
);
note = dotlessi;
unicode = 305;
},
{
glyphname = circumflex;
lastChange = "2019-12-03 14:54:35 +0000";
layers = (
{
layerId = "BC15D09A-B757-48E3-911F-803B0089DB3F";
shapes = (
{
closed = 1;
nodes = (
(701,1460,l),
(537,1460,l),
(283,1221,l),
(283,1201,l),
(387,1201,l),
(619,1339,l),
(621,1339,l),
(840,1201,l),
(945,1201,l),
(945,1221,l)
);
}
);
width = 1229;
}
);
note = circumflex;
unicode = 710;
},
{
glyphname = tilde;
lastChange = "2019-12-03 14:54:35 +0000";
layers = (
{
layerId = "BC15D09A-B757-48E3-911F-803B0089DB3F";
shapes = (
{
closed = 1;
nodes = (
(857,1201,o),
(956,1311,o),
(972,1449,q),
(860,1449,l),
(850,1377,o),
(810,1330,o),
(773,1330,qs),
(740,1330,o),
(666,1367,o),
(586,1412,o),
(502,1449,o),
(458,1449,qs),
(395,1449,o),
(313,1395,o),
(266,1297,o),
(255,1201,q),
(366,1201,l),
(377,1265,o),
(397,1301,o),
(427,1320,o),
(452,1320,qs),
(487,1320,o),
(564,1283,o),
(644,1238,o),
(728,1201,o),
(770,1201,qs)
);
}
);
width = 1229;
}
);
note = tilde;
unicode = 732;
},
{
glyphname = uni02C9;
lastChange = "2019-12-03 14:54:35 +0000";
layers = (
{
layerId = "BC15D09A-B757-48E3-911F-803B0089DB3F";
shapes = (
{
closed = 1;
nodes = (
(888,1363,l),
(337,1363,l),
(337,1236,l),
(888,1236,l)
);
}
);
width = 1229;
}
);
note = uni02C9;
unicode = 713;
},
{
glyphname = breve;
lastChange = "2019-12-03 14:54:35 +0000";
layers = (
{
layerId = "BC15D09A-B757-48E3-911F-803B0089DB3F";
shapes = (
{
closed = 1;
nodes = (
(738,1201,o),
(903,1341,o),
(927,1460,q),
(800,1460,l),
(783,1397,o),
(698,1327,o),
(613,1327,qs),
(531,1327,o),
(445,1397,o),
(428,1460,q),
(301,1460,l),
(322,1343,o),
(489,1201,o),
(613,1201,qs)
);
}
);
width = 1229;
}
);
note = breve;
unicode = 728;
},
{
glyphname = dotaccent;
lastChange = "2019-12-03 14:54:35 +0000";
layers = (
{
layerId = "BC15D09A-B757-48E3-911F-803B0089DB3F";
shapes = (
{
closed = 1;
nodes = (
(715,1292,l),
(715,1484,l),
(515,1484,l),
(515,1292,l)
);
}
);
width = 1229;
}
);
note = dotaccent;
unicode = 729;
},
{
glyphname = ring;
lastChange = "2019-12-03 14:54:35 +0000";
layers = (
{
layerId = "BC15D09A-B757-48E3-911F-803B0089DB3F";
shapes = (
{
closed = 1;
nodes = (
(856,1436,o),
(725,1547,o),
(614,1547,qs),
(505,1547,o),
(372,1437,o),
(372,1348,qs),
(372,1261,o),
(502,1148,o),
(614,1148,qs),
(725,1148,o),
(856,1261,o),
(856,1348,qs)
);
},
{
closed = 1;
nodes = (
(735,1310,o),
(670,1264,o),
(614,1264,qs),
(559,1264,o),
(492,1310,o),
(492,1348,qs),
(492,1385,o),
(559,1431,o),
(614,1431,qs),
(670,1431,o),
(735,1385,o),
(735,1348,qs)
);
}
);
width = 1229;
}
);
note = ring;
unicode = 730;
},
{
glyphname = cedilla;
lastChange = "2019-12-03 14:54:35 +0000";
layers = (
{
layerId = "BC15D09A-B757-48E3-911F-803B0089DB3F";
shapes = (
{
closed = 1;
nodes = (
(483,-186,o),
(389,-103,o),
(295,-100,q),
(334,0,l),
(227,0,l),
(162,-182,l),
(176,-180,o),
(219,-180,qs),
(291,-180,o),
(352,-222,o),
(352,-262,qs),
(352,-348,o),
(205,-348,qs),
(169,-348,o),
(119,-342,q),
(119,-440,l),
(152,-444,o),
(209,-444,qs),
(483,-444,o),
(483,-258,qs)
);
}
);
width = 1229;
}
);
note = cedilla;
unicode = 184;
},
{
glyphname = hungarumlaut;
lastChange = "2019-12-03 14:54:35 +0000";
layers = (
{
layerId = "BC15D09A-B757-48E3-911F-803B0089DB3F";
shapes = (
{
closed = 1;
nodes = (
(487,1201,l),
(787,1431,l),
(787,1460,l),
(600,1460,l),
(393,1221,l),
(393,1201,l)
);
},
{
closed = 1;
nodes = (
(123,1201,l),
(423,1431,l),
(423,1460,l),
(236,1460,l),
(29,1221,l),
(29,1201,l)
);
}
);
width = 1229;
}
);
note = hungarumlaut;
unicode = 733;
},
{
glyphname = ogonek;
lastChange = "2019-12-03 14:54:35 +0000";
layers = (
{
layerId = "BC15D09A-B757-48E3-911F-803B0089DB3F";
shapes = (
{
closed = 1;
nodes = (
(791,-293,l),
(730,-317,o),
(676,-317,qs),
(631,-317,o),
(582,-269,o),
(582,-227,qs),
(582,-161,o),
(665,-36,o),
(729,0,q),
(596,0,l),
(524,-41,o),
(441,-172,o),
(441,-240,qs),
(441,-325,o),
(547,-427,o),
(652,-427,qs),
(728,-427,o),
(791,-400,q)
);
}
);
width = 1229;
}
);
note = ogonek;
unicode = 731;
},
{
glyphname = caron;
lastChange = "2019-12-03 14:54:35 +0000";
layers = (
{
layerId = "BC15D09A-B757-48E3-911F-803B0089DB3F";
shapes = (
{
closed = 1;
nodes = (
(945,1440,l),
(945,1460,l),
(840,1460,l),
(621,1322,l),
(619,1322,l),
(387,1460,l),
(283,1460,l),
(283,1440,l),
(537,1201,l),
(701,1201,l)
);
}
);
width = 1229;
}
);
note = caron;
unicode = 711;
},
{
glyphname = Lslash;
lastChange = "2019-12-03 14:54:35 +0000";
layers = (
{
layerId = "BC15D09A-B757-48E3-911F-803B0089DB3F";
shapes = (
{
closed = 1;
nodes = (
(1100,0,l),
(1100,156,l),
(428,156,l),
(428,558,l),
(781,743,l),
(720,864,l),
(428,713,l),
(428,1349,l),
(237,1349,l),
(237,614,l),
(54,518,l),
(120,397,l),
(237,458,l),
(237,0,l)
);
}
);
width = 1229;
}
);
note = Lslash;
unicode = 321;
},
{
glyphname = lslash;
lastChange = "2019-12-03 14:54:35 +0000";
layers = (
{
layerId = "BC15D09A-B757-48E3-911F-803B0089DB3F";
shapes = (
{
closed = 1;
nodes = (
(736,1484,l),
(217,1484,l),
(217,1342,l),
(556,1342,l),
(556,783,l),
(274,624,l),
(338,512,l),
(556,635,l),
(556,142,l),
(134,142,l),
(134,0,l),
(1116,0,l),
(1116,142,l),
(736,142,l),
(736,736,l),
(1023,900,l),
(961,1013,l),
(736,884,l)
);
}
);
width = 1229;
}
);
note = lslash;
unicode = 322;
},
{
glyphname = brokenbar;
lastChange = "2019-12-03 14:54:35 +0000";
layers = (
{
layerId = "BC15D09A-B757-48E3-911F-803B0089DB3F";
shapes = (
{
closed = 1;
nodes = (
(697,676,l),
(697,1454,l),
(531,1454,l),
(531,676,l)
);
},
{
closed = 1;
nodes = (
(697,-455,l),
(697,324,l),
(531,324,l),
(531,-455,l)
);
}
);
width = 1229;
}
);
note = brokenbar;
unicode = 166;
},
{
glyphname = Eth;
lastChange = "2019-12-03 14:54:35 +0000";
layers = (
{
layerId = "BC15D09A-B757-48E3-911F-803B0089DB3F";
shapes = (
{
closed = 1;
nodes = (
(1125,1020,o),
(802,1349,o),
(473,1349,qs),
(162,1349,l),
(162,746,l),
(27,746,l),
(27,597,l),
(162,597,l),
(162,0,l),
(532,0,ls),
(818,0,o),
(1125,357,o),
(1125,688,qs)
);
},
{
closed = 1;
nodes = (
(642,746,l),
(353,746,l),
(353,1193,l),
(474,1193,ls),
(713,1193,o),
(933,952,o),
(933,688,qs),
(933,422,o),
(727,156,o),
(515,156,qs),
(353,156,l),
(353,597,l),
(642,597,l)
);
}
);
width = 1229;
}
);
note = Eth;
unicode = 208;
},
{
glyphname = eth;
lastChange = "2019-12-03 14:54:35 +0000";
layers = (
{
layerId = "BC15D09A-B757-48E3-911F-803B0089DB3F";
shapes = (
{
closed = 1;
nodes = (
(373,979,o),
(125,725,o),
(125,481,qs),
(125,238,o),
(373,-20,o),
(605,-20,qs),
(851,-20,o),
(1102,249,o),
(1102,510,qs),
(1102,516,ls),
(1102,995,o),
(771,1296,q),
(982,1388,l),
(927,1496,l),
(663,1382,l),
(573,1448,o),
(493,1484,q),
(284,1484,l),
(417,1413,o),
(526,1326,q),
(308,1232,l),
(363,1122,l),
(623,1237,l),
(758,1115,o),
(843,920,q),
(749,979,o),
(612,979,qs)
);
},
{
closed = 1;
nodes = (
(913,288,o),
(764,113,o),
(603,113,qs),
(458,113,o),
(314,291,o),
(314,481,qs),
(314,672,o),
(459,846,o),
(616,846,qs),
(772,846,o),
(913,673,o),
(913,481,qs)
);
}
);
width = 1229;
}
);
note = eth;
unicode = 240;
},
{
glyphname = Thorn;
lastChange = "2019-12-03 14:54:35 +0000";
layers = (
{
layerId = "BC15D09A-B757-48E3-911F-803B0089DB3F";
shapes = (
{
closed = 1;
nodes = (
(1119,892,o),
(861,1114,o),
(622,1114,qs),
(353,1114,l),
(353,1349,l),
(162,1349,l),
(162,0,l),
(353,0,l),
(353,254,l),
(634,254,ls),
(784,254,o),
(1003,365,o),
(1119,564,o),
(1119,692,qs)
);
},
{
closed = 1;
nodes = (
(927,550,o),
(760,395,o),
(607,395,qs),
(353,395,l),
(353,971,l),
(599,971,ls),
(763,971,o),
(927,822,o),
(927,688,qs)
);
}
);
width = 1229;
}
);
note = Thorn;
unicode = 222;
},
{
glyphname = thorn;
lastChange = "2019-12-03 14:54:35 +0000";
layers = (
{
layerId = "BC15D09A-B757-48E3-911F-803B0089DB3F";
shapes = (
{
closed = 1;
nodes = (
(904,315,o),
(782,113,o),
(649,113,qs),
(500,113,o),
(366,311,o),
(366,524,qs),
(366,746,o),
(500,965,o),
(651,965,qs),
(782,965,o),
(904,772,o),
(904,546,qs)
);
},
{
closed = 1;
nodes = (
(361,904,l),
(365,996,o),
(365,1061,qs),
(365,1484,l),
(185,1484,l),
(185,-425,l),
(366,-425,l),
(366,-2,ls),
(366,156,o),
(362,164,q),
(367,164,l),
(452,-20,o),
(698,-20,qs),
(1090,-20,o),
(1090,546,qs),
(1090,831,o),
(896,1104,o),
(698,1104,qs),
(573,1104,o),
(418,1009,o),
(368,904,q)
);
}
);
width = 1229;
}
);
note = thorn;
unicode = 254;
},
{
glyphname = minus;
lastChange = "2019-12-03 14:54:35 +0000";
layers = (
{
layerId = "BC15D09A-B757-48E3-911F-803B0089DB3F";
shapes = (
{
closed = 1;
nodes = (
(1112,608,l),
(1112,754,l),
(117,754,l),
(117,608,l)
);
}
);
width = 1229;
}
);
note = minus;
unicode = 8722;
},
{
glyphname = multiply;
lastChange = "2019-12-03 14:54:35 +0000";
layers = (
{
layerId = "BC15D09A-B757-48E3-911F-803B0089DB3F";
shapes = (
{
closed = 1;
nodes = (
(259,225,l),
(615,580,l),
(968,227,l),
(1070,332,l),
(718,684,l),
(1068,1032,l),
(963,1137,l),
(613,786,l),
(263,1139,l),
(159,1036,l),
(511,684,l),
(157,330,l)
);
}
);
width = 1229;
}
);
note = multiply;
unicode = 215;
},
{
glyphname = onesuperior;
lastChange = "2019-12-03 14:54:35 +0000";
layers = (
{
layerId = "BC15D09A-B757-48E3-911F-803B0089DB3F";
shapes = (
{
closed = 1;
nodes = (
(923,563,l),
(923,670,l),
(687,670,l),
(687,1410,l),
(566,1410,l),
(533,1347,o),
(384,1274,o),
(285,1274,q),
(285,1165,l),
(373,1165,o),
(531,1230,o),
(556,1280,q),
(556,670,l),
(291,670,l),
(291,563,l)
);
}
);
width = 1229;
}
);
note = onesuperior;
unicode = 185;
},
{
glyphname = twosuperior;
lastChange = "2019-12-03 14:54:35 +0000";
layers = (
{
layerId = "BC15D09A-B757-48E3-911F-803B0089DB3F";
shapes = (
{
closed = 1;
nodes = (
(916,563,l),
(914,670,l),
(455,670,l),
(479,720,o),
(579,812,o),
(711,905,qs),
(807,973,o),
(901,1107,o),
(901,1182,qs),
(901,1294,o),
(756,1421,o),
(625,1421,qs),
(499,1421,o),
(335,1290,o),
(322,1182,q),
(455,1174,l),
(463,1242,o),
(551,1315,o),
(619,1315,qs),
(693,1315,o),
(764,1240,o),
(764,1178,qs),
(764,1118,o),
(676,1004,o),
(579,938,qs),
(471,863,o),
(343,735,o),
(312,666,q),
(314,563,l)
);
}
);
width = 1229;
}
);
note = twosuperior;
unicode = 178;
},
{
glyphname = threesuperior;
lastChange = "2019-12-03 14:54:35 +0000";
layers = (
{
layerId = "BC15D09A-B757-48E3-911F-803B0089DB3F";
shapes = (
{
closed = 1;
nodes = (
(921,883,o),
(815,988,o),
(724,997,q),
(724,999,l),
(814,1019,o),
(900,1129,o),
(900,1204,qs),
(900,1302,o),
(752,1421,o),
(622,1421,qs),
(495,1421,o),
(338,1301,o),
(325,1192,q),
(460,1180,l),
(466,1245,o),
(550,1315,o),
(618,1315,qs),
(689,1315,o),
(763,1246,o),
(763,1186,qs),
(763,1121,o),
(671,1049,o),
(591,1049,qs),
(534,1049,l),
(534,940,l),
(595,940,ls),
(784,940,o),
(784,803,qs),
(784,655,o),
(624,655,qs),
(460,655,o),
(442,791,q),
(306,778,l),
(338,551,o),
(624,551,qs),
(766,551,o),
(921,679,o),
(921,795,qs)
);
}
);
width = 1229;
}
);
note = threesuperior;
unicode = 179;
},
{
glyphname = franc;
lastChange = "2019-12-03 14:54:35 +0000";
layers = (
{
layerId = "BC15D09A-B757-48E3-911F-803B0089DB3F";
shapes = (
{
closed = 1;
nodes = (
(1100,1193,l),
(1100,1349,l),
(209,1349,l),
(209,388,l),
(34,388,l),
(34,259,l),
(209,259,l),
(209,0,l),
(400,0,l),
(400,259,l),
(791,259,l),
(791,388,l),
(400,388,l),
(400,591,l),
(1076,591,l),
(1076,749,l),
(400,749,l),
(400,1193,l)
);
}
);
width = 1229;
}
);
note = franc;
unicode = 8355;
},
{
glyphname = dcroat;
lastChange = "2019-12-03 14:54:35 +0000";
layers = (
{
layerId = "BC15D09A-B757-48E3-911F-803B0089DB3F";
shapes = (
{
closed = 1;
nodes = (
(1174,1196,l),
(1174,1327,l),
(1043,1327,l),
(1043,1484,l),
(863,1484,l),
(863,1327,l),
(563,1327,l),
(563,1196,l),
(863,1196,l),
(863,1039,l),
(865,888,l),
(863,888,l),
(814,986,o),
(651,1072,o),
(530,1072,qs),
(138,1072,o),
(138,517,qs),
(138,245,o),
(328,-26,o),
(530,-26,qs),
(651,-26,o),
(813,69,o),
(862,174,q),
(867,174,l),
(867,131,o),
(873,15,o),
(877,0,q),
(1049,0,l),
(1043,54,o),
(1043,223,qs),
(1043,1196,l)
);
},
{
closed = 1;
nodes = (
(324,736,o),
(445,939,o),
(579,939,qs),
(730,939,o),
(863,745,o),
(863,538,qs),
(863,319,o),
(724,113,o),
(577,113,qs),
(442,113,o),
(324,308,o),
(324,523,qs)
);
}
);
width = 1229;
}
);
note = dcroat;
unicode = 273;
},
{
glyphname = dcaron;
lastChange = "2019-12-03 14:54:35 +0000";
layers = (
{
layerId = "BC15D09A-B757-48E3-911F-803B0089DB3F";
shapes = (
{
closed = 1;
nodes = (
(667,174,l),
(667,131,o),
(673,15,o),
(677,0,q),
(849,0,l),
(843,54,o),
(843,223,qs),
(843,1484,l),
(663,1484,l),
(663,1065,l),
(665,914,l),
(663,914,l),
(614,1012,o),
(482,1098,o),
(384,1098,qs),
(219,1098,o),
(31,801,o),
(31,532,qs),
(31,265,o),
(214,-26,o),
(384,-26,qs),
(481,-26,o),
(614,69,o),
(663,174,q)
);
},
{
closed = 1;
nodes = (
(217,757,o),
(313,965,o),
(416,965,qs),
(530,965,o),
(663,743,o),
(663,554,qs),
(663,353,o),
(526,113,o),
(415,113,qs),
(310,113,o),
(217,321,o),
(217,538,qs)
);
},
{
closed = 1;
nodes = (
(1060,1159,l),
(1231,1447,l),
(1231,1484,l),
(1034,1484,l),
(955,1192,l),
(955,1159,l)
);
}
);
width = 1229;
}
);
note = dcaron;
unicode = 271;
},
{
glyphname = lacute;
lastChange = "2019-12-03 14:54:35 +0000";
layers = (
{
layerId = "BC15D09A-B757-48E3-911F-803B0089DB3F";
shapes = (
{
closed = 1;
nodes = (
(736,1349,l),
(267,1349,l),
(267,1207,l),
(556,1207,l),
(556,142,l),
(134,142,l),
(134,0,l),
(1116,0,l),
(1116,142,l),
(736,142,l)
);
},
{
closed = 1;
nodes = (
(655,1445,l),
(955,1676,l),
(955,1705,l),
(758,1705,l),
(531,1465,l),
(531,1445,l)
);
}
);
width = 1229;
}
);
note = lacute;
unicode = 314;
},
{
glyphname = Gamma;
lastChange = "2019-12-03 14:54:35 +0000";
layers = (
{
layerId = "BC15D09A-B757-48E3-911F-803B0089DB3F";
shapes = (
{
closed = 1;
nodes = (
(415,1193,l),
(1115,1193,l),
(1115,1349,l),
(224,1349,l),
(224,0,l),
(415,0,l)
);
}
);
width = 1229;
}
);
note = Gamma;
unicode = 915;
},
{
glyphname = Theta;
lastChange = "2019-12-03 14:54:35 +0000";
layers = (
{
layerId = "BC15D09A-B757-48E3-911F-803B0089DB3F";
shapes = (
{
closed = 1;
nodes = (
(1126,1023,o),
(862,1370,o),
(615,1370,qs),
(362,1370,o),
(102,1018,o),
(102,681,qs),
(102,338,o),
(364,-20,o),
(613,-20,qs),
(861,-20,o),
(1126,344,o),
(1126,681,qs)
);
},
{
closed = 1;
nodes = (
(925,415,o),
(777,135,o),
(614,135,qs),
(461,135,o),
(303,411,o),
(303,681,qs),
(303,1214,o),
(615,1214,qs),
(925,1214,o),
(925,681,qs)
);
},
{
closed = 1;
nodes = (
(447,757,l),
(447,603,l),
(782,603,l),
(782,757,l)
);
}
);
width = 1229;
}
);
note = Theta;
unicode = 920;
},
{
glyphname = Phi;
lastChange = "2019-12-03 14:54:35 +0000";
layers = (
{
layerId = "BC15D09A-B757-48E3-911F-803B0089DB3F";
shapes = (
{
closed = 1;
nodes = (
(1221,927,o),
(958,1187,o),
(734,1187,qs),
(705,1187,l),
(705,1359,l),
(524,1359,l),
(524,1187,l),
(494,1187,ls),
(270,1187,o),
(8,926,o),
(8,706,qs),
(8,569,o),
(128,336,o),
(344,206,o),
(483,206,qs),
(524,206,l),
(524,-11,l),
(705,-11,l),
(705,206,l),
(746,206,ls),
(886,206,o),
(1101,337,o),
(1221,568,o),
(1221,706,qs)
);
},
{
closed = 1;
nodes = (
(1027,541,o),
(864,348,o),
(717,348,qs),
(705,348,l),
(705,1044,l),
(710,1044,ls),
(862,1044,o),
(1027,866,o),
(1027,702,qs)
);
},
{
closed = 1;
nodes = (
(202,868,o),
(367,1044,o),
(516,1044,qs),
(524,1044,l),
(524,348,l),
(512,348,ls),
(365,348,o),
(202,540,o),
(202,702,qs)
);
}
);
width = 1229;
}
);
note = Phi;
unicode = 934;
},
{
glyphname = alpha;
lastChange = "2019-12-03 14:54:35 +0000";
layers = (
{
layerId = "BC15D09A-B757-48E3-911F-803B0089DB3F";
shapes = (
{
closed = 1;
nodes = (
(890,237,l),
(895,204,o),
(930,61,o),
(954,0,q),
(1137,0,l),
(1090,103,o),
(1031,411,o),
(1026,571,q),
(1034,669,o),
(1118,976,o),
(1168,1082,q),
(980,1082,l),
(930,966,o),
(907,847,q),
(905,847,l),
(860,968,o),
(681,1102,o),
(555,1102,qs),
(346,1102,o),
(129,820,o),
(129,536,qs),
(129,256,o),
(322,-20,o),
(527,-20,qs),
(771,-20,o),
(886,237,q)
);
},
{
closed = 1;
nodes = (
(318,768,o),
(439,969,o),
(575,969,qs),
(694,969,o),
(846,757,o),
(875,546,q),
(849,350,o),
(684,119,o),
(564,119,qs),
(432,119,o),
(318,320,o),
(318,542,qs)
);
}
);
width = 1229;
}
);
note = alpha;
unicode = 945;
},
{
glyphname = delta;
lastChange = "2019-12-03 14:54:35 +0000";
layers = (
{
layerId = "BC15D09A-B757-48E3-911F-803B0089DB3F";
shapes = (
{
closed = 1;
nodes = (
(920,297,o),
(759,113,o),
(612,113,qs),
(468,113,o),
(301,308,o),
(301,471,qs),
(301,624,o),
(501,864,o),
(685,929,q),
(783,827,o),
(864,705,o),
(920,557,o),
(920,471,qs)
);
},
{
closed = 1;
nodes = (
(1021,1341,l),
(1021,1484,l),
(273,1484,l),
(273,1354,l),
(592,1026,l),
(354,944,o),
(112,662,o),
(112,473,qs),
(112,245,o),
(382,-20,o),
(612,-20,qs),
(841,-20,o),
(1109,253,o),
(1109,475,qs),
(1109,579,o),
(1049,751,o),
(938,910,o),
(810,1036,qs),
(494,1349,l),
(648,1341,l)
);
}
);
width = 1229;
}
);
note = delta;
unicode = 948;
},
{
glyphname = epsilon;
lastChange = "2019-12-03 14:54:35 +0000";
layers = (
{
layerId = "BC15D09A-B757-48E3-911F-803B0089DB3F";
shapes = (
{
closed = 1;
nodes = (
(494,114,o),
(362,207,o),
(362,298,qs),
(362,399,o),
(562,498,o),
(818,498,q),
(818,633,l),
(581,633,o),
(390,721,o),
(390,809,qs),
(390,883,o),
(509,968,o),
(637,968,qs),
(742,968,o),
(887,900,o),
(934,829,q),
(1062,917,l),
(995,1016,o),
(784,1102,o),
(636,1102,qs),
(440,1102,o),
(208,946,o),
(208,813,qs),
(208,715,o),
(342,579,o),
(449,566,q),
(449,564,l),
(330,553,o),
(175,403,o),
(175,295,qs),
(175,144,o),
(395,-20,o),
(609,-20,qs),
(764,-20,o),
(1009,78,o),
(1089,175,q),
(984,275,l),
(920,198,o),
(729,114,o),
(621,114,qs)
);
}
);
width = 1229;
}
);
note = epsilon;
unicode = 949;
},
{
glyphname = sigma;
lastChange = "2019-12-03 14:54:35 +0000";
layers = (
{
layerId = "BC15D09A-B757-48E3-911F-803B0089DB3F";
shapes = (
{
closed = 1;
nodes = (
(1078,605,o),
(1010,816,o),
(926,942,q),
(926,946,l),
(1074,940,l),
(1229,940,l),
(1229,1082,l),
(670,1082,ls),
(392,1082,o),
(92,789,o),
(92,524,qs),
(92,261,o),
(348,-20,o),
(588,-20,qs),
(817,-20,o),
(1078,250,o),
(1078,491,qs)
);
},
{
closed = 1;
nodes = (
(889,306,o),
(731,113,o),
(580,113,qs),
(282,113,o),
(282,526,qs),
(282,725,o),
(490,940,o),
(676,940,qs),
(765,940,l),
(889,732,o),
(889,488,qs)
);
}
);
width = 1229;
}
);
note = sigma;
unicode = 963;
},
{
glyphname = tau;
lastChange = "2019-12-03 14:54:35 +0000";
layers = (
{
layerId = "BC15D09A-B757-48E3-911F-803B0089DB3F";
shapes = (
{
closed = 1;
nodes = (
(498,940,l),
(498,227,ls),
(498,99,o),
(617,-20,o),
(745,-20,qs),
(801,-20,o),
(915,-6,o),
(938,0,q),
(938,131,l),
(858,121,o),
(802,121,qs),
(678,121,o),
(678,256,qs),
(678,940,l),
(1052,940,l),
(1052,1082,l),
(332,1082,ls),
(280,1082,o),
(173,1065,o),
(149,1053,q),
(149,903,l),
(171,916,o),
(319,940,o),
(401,940,qs)
);
}
);
width = 1229;
}
);
note = tau;
unicode = 964;
},
{
glyphname = phi;
lastChange = "2019-12-03 14:54:35 +0000";
layers = (
{
layerId = "BC15D09A-B757-48E3-911F-803B0089DB3F";
shapes = (
{
closed = 1;
nodes = (
(1177,813,o),
(994,1104,o),
(834,1104,qs),
(685,1104,o),
(527,884,o),
(527,689,qs),
(527,109,l),
(219,125,o),
(219,541,qs),
(219,714,o),
(354,942,o),
(476,970,q),
(455,1106,l),
(263,1073,o),
(50,774,o),
(50,545,qs),
(50,277,o),
(294,-7,o),
(527,-18,q),
(527,-425,l),
(687,-425,l),
(687,-18,l),
(926,-5,o),
(1177,292,o),
(1177,565,qs)
);
},
{
closed = 1;
nodes = (
(1008,122,o),
(687,109,q),
(687,692,ls),
(687,981,o),
(836,981,qs),
(917,981,o),
(1008,758,o),
(1008,567,qs)
);
}
);
width = 1229;
}
);
note = phi;
unicode = 966;
},
{
glyphname = underscoredbl;
lastChange = "2019-12-03 14:54:35 +0000";
layers = (
{
layerId = "BC15D09A-B757-48E3-911F-803B0089DB3F";
shapes = (
{
closed = 1;
nodes = (
(1233,-220,l),
(1233,-124,l),
(-5,-124,l),
(-5,-220,l)
);
},
{
closed = 1;
nodes = (
(1233,-425,l),
(1233,-329,l),
(-5,-329,l),
(-5,-425,l)
);
}
);
width = 1229;
}
);
note = underscoredbl;
unicode = 8215;
},
{
glyphname = exclamdbl;
lastChange = "2019-12-03 14:54:35 +0000";
layers = (
{
layerId = "BC15D09A-B757-48E3-911F-803B0089DB3F";
shapes = (
{
closed = 1;
nodes = (
(435,1348,l),
(239,1348,l),
(263,397,l),
(411,397,l)
);
},
{
closed = 1;
nodes = (
(431,0,l),
(431,201,l),
(237,201,l),
(237,0,l)
);
},
{
closed = 1;
nodes = (
(992,1348,l),
(796,1348,l),
(820,397,l),
(968,397,l)
);
},
{
closed = 1;
nodes = (
(988,0,l),
(988,201,l),
(794,201,l),
(794,0,l)
);
}
);
width = 1229;
}
);
note = exclamdbl;
unicode = 8252;
},
{
glyphname = nsuperior;
lastChange = "2019-12-03 14:54:35 +0000";
layers = (
{
layerId = "BC15D09A-B757-48E3-911F-803B0089DB3F";
shapes = (
{
closed = 1;
nodes = (
(899,519,l),
(899,952,ls),
(899,1073,o),
(802,1181,o),
(692,1181,qs),
(618,1181,o),
(519,1123,o),
(484,1058,q),
(482,1058,l),
(476,1169,l),
(357,1169,l),
(361,1030,l),
(361,519,l),
(489,519,l),
(489,883,ls),
(489,977,o),
(574,1077,o),
(646,1077,qs),
(716,1077,o),
(770,1007,o),
(770,917,qs),
(770,519,l)
);
}
);
width = 1229;
}
);
note = nsuperior;
unicode = 8319;
},
{
glyphname = peseta;
lastChange = "2019-12-03 14:54:35 +0000";
layers = (
{
layerId = "BC15D09A-B757-48E3-911F-803B0089DB3F";
shapes = (
{
closed = 1;
nodes = (
(582,1349,o),
(255,1349,qs),
(45,1349,l),
(45,0,l),
(206,0,l),
(206,654,l),
(267,654,ls),
(412,654,o),
(582,850,o),
(582,1015,qs)
);
},
{
closed = 1;
nodes = (
(1204,282,o),
(1073,371,qs),
(1022,406,o),
(969,463,o),
(969,500,qs),
(969,573,o),
(1024,573,qs),
(1043,573,o),
(1078,538,o),
(1083,494,q),
(1192,506,l),
(1184,578,o),
(1096,664,o),
(1026,664,qs),
(939,664,o),
(845,578,o),
(845,499,qs),
(845,443,o),
(910,342,o),
(987,290,qs),
(1035,257,o),
(1080,195,o),
(1080,159,qs),
(1080,119,o),
(1046,82,o),
(1020,82,qs),
(959,82,o),
(943,170,q),
(835,153,l),
(846,73,o),
(944,-10,o),
(1018,-10,qs),
(1108,-10,o),
(1204,90,o),
(1204,173,qs)
);
},
{
closed = 1;
nodes = (
(420,909,o),
(345,795,o),
(270,795,qs),
(206,795,l),
(206,1206,l),
(262,1206,ls),
(343,1206,o),
(420,1112,o),
(420,1012,qs)
);
},
{
closed = 1;
nodes = (
(534,553,l),
(534,151,ls),
(534,-10,o),
(702,-10,qs),
(754,-10,o),
(805,1,q),
(805,98,l),
(778,91,o),
(733,91,qs),
(665,91,o),
(665,169,qs),
(665,553,l),
(814,553,l),
(814,650,l),
(665,650,l),
(665,792,l),
(594,792,l),
(535,650,l),
(445,650,l),
(445,553,l)
);
}
);
width = 1229;
}
);
note = peseta;
unicode = 8359;
},
{
glyphname = arrowleft;
lastChange = "2019-12-03 14:54:35 +0000";
layers = (
{
layerId = "BC15D09A-B757-48E3-911F-803B0089DB3F";
shapes = (
{
closed = 1;
nodes = (
(1220,487,l),
(1220,573,l),
(231,573,l),
(288,640,o),
(350,770,q),
(278,770,l),
(151,621,o),
(8,548,q),
(8,512,l),
(151,439,o),
(278,290,q),
(350,290,l),
(288,420,o),
(231,487,q)
);
}
);
width = 1229;
}
);
note = arrowleft;
unicode = 8592;
},
{
glyphname = arrowup;
lastChange = "2019-12-03 14:54:35 +0000";
layers = (
{
layerId = "BC15D09A-B757-48E3-911F-803B0089DB3F";
shapes = (
{
closed = 1;
nodes = (
(571,-61,l),
(657,-61,l),
(657,928,l),
(724,871,o),
(854,809,q),
(854,881,l),
(705,1008,o),
(632,1151,q),
(596,1151,l),
(523,1008,o),
(374,881,q),
(374,809,l),
(504,871,o),
(571,928,q)
);
}
);
width = 1229;
}
);
note = arrowup;
unicode = 8593;
},
{
glyphname = arrowright;
lastChange = "2019-12-03 14:54:35 +0000";
layers = (
{
layerId = "BC15D09A-B757-48E3-911F-803B0089DB3F";
shapes = (
{
closed = 1;
nodes = (
(8,573,l),
(8,487,l),
(997,487,l),
(940,420,o),
(878,290,q),
(950,290,l),
(1077,439,o),
(1220,512,q),
(1220,548,l),
(1077,621,o),
(950,770,q),
(878,770,l),
(940,640,o),
(997,573,q)
);
}
);
width = 1229;
}
);
note = arrowright;
unicode = 8594;
},
{
glyphname = arrowdown;
lastChange = "2019-12-03 14:54:35 +0000";
layers = (
{
layerId = "BC15D09A-B757-48E3-911F-803B0089DB3F";
shapes = (
{
closed = 1;
nodes = (
(657,1151,l),
(571,1151,l),
(571,162,l),
(504,219,o),
(374,281,q),
(374,209,l),
(523,82,o),
(596,-61,q),
(632,-61,l),
(705,82,o),
(854,209,q),
(854,281,l),
(724,219,o),
(657,162,q)
);
}
);
width = 1229;
}
);
note = arrowdown;
unicode = 8595;
},
{
glyphname = arrowboth;
lastChange = "2019-12-03 14:54:35 +0000";
layers = (
{
layerId = "BC15D09A-B757-48E3-911F-803B0089DB3F";
shapes = (
{
closed = 1;
nodes = (
(997,487,l),
(940,420,o),
(878,290,q),
(950,290,l),
(1077,439,o),
(1220,512,q),
(1220,548,l),
(1077,621,o),
(950,770,q),
(878,770,l),
(940,640,o),
(997,573,q),
(231,573,l),
(288,640,o),
(350,770,q),
(278,770,l),
(151,621,o),
(8,548,q),
(8,512,l),
(151,439,o),
(278,290,q),
(350,290,l),
(288,420,o),
(231,487,q)
);
}
);
width = 1229;
}
);
note = arrowboth;
unicode = 8596;
},
{
glyphname = arrowupdn;
lastChange = "2019-12-03 14:54:35 +0000";
layers = (
{
layerId = "BC15D09A-B757-48E3-911F-803B0089DB3F";
shapes = (
{
closed = 1;
nodes = (
(571,162,l),
(504,219,o),
(374,281,q),
(374,209,l),
(523,82,o),
(596,-61,q),
(632,-61,l),
(705,82,o),
(854,209,q),
(854,281,l),
(724,219,o),
(657,162,q),
(657,928,l),
(724,871,o),
(854,809,q),
(854,881,l),
(705,1008,o),
(632,1151,q),
(596,1151,l),
(523,1008,o),
(374,881,q),
(374,809,l),
(504,871,o),
(571,928,q)
);
}
);
width = 1229;
}
);
note = arrowupdn;
unicode = 8597;
},
{
glyphname = arrowupdnbse;
lastChange = "2019-12-03 14:54:35 +0000";
layers = (
{
layerId = "BC15D09A-B757-48E3-911F-803B0089DB3F";
shapes = (
{
closed = 1;
nodes = (
(374,-184,l),
(854,-184,l),
(854,-104,l),
(374,-104,l)
);
},
{
closed = 1;
nodes = (
(571,162,l),
(504,219,o),
(374,281,q),
(374,209,l),
(523,82,o),
(596,-61,q),
(632,-61,l),
(705,82,o),
(854,209,q),
(854,281,l),
(724,219,o),
(657,162,q),
(657,928,l),
(724,871,o),
(854,809,q),
(854,881,l),
(705,1008,o),
(632,1151,q),
(596,1151,l),
(523,1008,o),
(374,881,q),
(374,809,l),
(504,871,o),
(571,928,q)
);
}
);
width = 1229;
}
);
note = arrowupdnbse;
unicode = 8616;
},
{
glyphname = orthogonal;
lastChange = "2019-12-03 14:54:35 +0000";
layers = (
{
layerId = "BC15D09A-B757-48E3-911F-803B0089DB3F";
shapes = (
{
closed = 1;
nodes = (
(52,0,l),
(1176,0,l),
(1176,94,l),
(146,94,l),
(146,1223,l),
(52,1223,l)
);
}
);
width = 1229;
}
);
note = orthogonal;
unicode = 8735;
},
{
glyphname = intersection;
lastChange = "2019-12-03 14:54:35 +0000";
layers = (
{
layerId = "BC15D09A-B757-48E3-911F-803B0089DB3F";
shapes = (
{
closed = 1;
nodes = (
(259,-2,l),
(259,510,ls),
(259,704,o),
(451,930,o),
(613,930,qs),
(773,930,o),
(969,702,o),
(969,512,qs),
(969,-2,l),
(1072,-2,l),
(1072,510,ls),
(1072,658,o),
(953,900,o),
(742,1032,o),
(611,1032,qs),
(481,1032,o),
(272,899,o),
(156,660,o),
(156,510,qs),
(156,-2,l)
);
}
);
width = 1229;
}
);
note = intersection;
unicode = 8745;
},
{
glyphname = equivalence;
lastChange = "2019-12-03 14:54:35 +0000";
layers = (
{
layerId = "BC15D09A-B757-48E3-911F-803B0089DB3F";
shapes = (
{
closed = 1;
nodes = (
(1111,956,l),
(1111,1104,l),
(116,1104,l),
(116,956,l)
);
},
{
closed = 1;
nodes = (
(1111,244,l),
(1111,392,l),
(116,392,l),
(116,244,l)
);
},
{
closed = 1;
nodes = (
(1111,600,l),
(1111,748,l),
(116,748,l),
(116,600,l)
);
}
);
width = 1229;
}
);
note = equivalence;
unicode = 8801;
},
{
glyphname = house;
lastChange = "2019-12-03 14:54:35 +0000";
layers = (
{
layerId = "BC15D09A-B757-48E3-911F-803B0089DB3F";
shapes = (
{
closed = 1;
nodes = (
(1090,0,l),
(1090,635,l),
(614,1083,l),
(138,635,l),
(138,0,l)
);
},
{
closed = 1;
nodes = (
(221,597,l),
(614,967,l),
(1007,597,l),
(1007,85,l),
(221,85,l)
);
}
);
width = 1229;
}
);
note = house;
unicode = 8962;
},
{
glyphname = revlogicalnot;
lastChange = "2019-12-03 14:54:35 +0000";
layers = (
{
layerId = "BC15D09A-B757-48E3-911F-803B0089DB3F";
shapes = (
{
closed = 1;
nodes = (
(1111,608,l),
(1111,754,l),
(116,754,l),
(115,180,l),
(262,180,l),
(262,608,l)
);
}
);
width = 1229;
}
);
note = revlogicalnot;
unicode = 8976;
},
{
glyphname = integraltp;
lastChange = "2019-12-03 14:54:35 +0000";
layers = (
{
layerId = "BC15D09A-B757-48E3-911F-803B0089DB3F";
shapes = (
{
closed = 1;
nodes = (
(687,1285,ls),
(687,1452,o),
(730,1603,o),
(781,1603,qs),
(803,1603,o),
(830,1567,o),
(859,1524,o),
(902,1488,o),
(941,1488,qs),
(976,1488,o),
(1026,1537,o),
(1026,1576,qs),
(1026,1632,o),
(925,1705,o),
(855,1705,qs),
(706,1705,o),
(542,1440,o),
(542,1207,qs),
(542,-615,l),
(687,-615,l)
);
}
);
width = 1229;
}
);
note = integraltp;
unicode = 8992;
},
{
glyphname = integralbt;
lastChange = "2019-12-03 14:54:35 +0000";
layers = (
{
layerId = "BC15D09A-B757-48E3-911F-803B0089DB3F";
shapes = (
{
closed = 1;
nodes = (
(542,-195,ls),
(542,-362,o),
(499,-513,o),
(448,-513,qs),
(426,-513,o),
(399,-477,o),
(370,-434,o),
(327,-398,o),
(288,-398,qs),
(253,-398,o),
(203,-447,o),
(203,-486,qs),
(203,-542,o),
(304,-615,o),
(374,-615,qs),
(521,-615,o),
(687,-354,o),
(687,-117,qs),
(687,1705,l),
(542,1705,l)
);
}
);
width = 1229;
}
);
note = integralbt;
unicode = 8993;
},
{
glyphname = uni2500;
lastChange = "2019-12-03 14:54:35 +0000";
layers = (
{
layerId = "BC15D09A-B757-48E3-911F-803B0089DB3F";
shapes = (
{
closed = 1;
nodes = (
(1239,555,l),
(1239,700,l),
(-10,700,l),
(-10,555,l)
);
}
);
width = 1229;
}
);
note = uni2500;
unicode = 9472;
},
{
glyphname = uni2502;
lastChange = "2019-12-03 14:54:35 +0000";
layers = (
{
layerId = "BC15D09A-B757-48E3-911F-803B0089DB3F";
shapes = (
{
closed = 1;
nodes = (
(542,-615,l),
(687,-615,l),
(687,1705,l),
(542,1705,l)
);
}
);
width = 1229;
}
);
note = uni2502;
unicode = 9474;
},
{
glyphname = uni250C;
lastChange = "2019-12-03 14:54:35 +0000";
layers = (
{
layerId = "BC15D09A-B757-48E3-911F-803B0089DB3F";
shapes = (
{
closed = 1;
nodes = (
(542,-615,l),
(687,-615,l),
(687,555,l),
(1239,555,l),
(1239,700,l),
(542,700,l)
);
}
);
width = 1229;
}
);
note = uni250C;
unicode = 9484;
},
{
glyphname = uni2510;
lastChange = "2019-12-03 14:54:35 +0000";
layers = (
{
layerId = "BC15D09A-B757-48E3-911F-803B0089DB3F";
shapes = (
{
closed = 1;
nodes = (
(542,555,l),
(542,-615,l),
(687,-615,l),
(687,700,l),
(-10,700,l),
(-10,555,l)
);
}
);
width = 1229;
}
);
note = uni2510;
unicode = 9488;
},
{
glyphname = uni2514;
lastChange = "2019-12-03 14:54:35 +0000";
layers = (
{
layerId = "BC15D09A-B757-48E3-911F-803B0089DB3F";
shapes = (
{
closed = 1;
nodes = (
(542,555,l),
(1239,555,l),
(1239,700,l),
(687,700,l),
(687,1705,l),
(542,1705,l)
);
}
);
width = 1229;
}
);
note = uni2514;
unicode = 9492;
},
{
glyphname = uni2518;
lastChange = "2019-12-03 14:54:35 +0000";
layers = (
{
layerId = "BC15D09A-B757-48E3-911F-803B0089DB3F";
shapes = (
{
closed = 1;
nodes = (
(687,555,l),
(687,1705,l),
(542,1705,l),
(542,700,l),
(-10,700,l),
(-10,555,l)
);
}
);
width = 1229;
}
);
note = uni2518;
unicode = 9496;
},
{
glyphname = uni251C;
lastChange = "2019-12-03 14:54:35 +0000";
layers = (
{
layerId = "BC15D09A-B757-48E3-911F-803B0089DB3F";
shapes = (
{
closed = 1;
nodes = (
(542,-615,l),
(687,-615,l),
(687,555,l),
(1239,555,l),
(1239,700,l),
(687,700,l),
(687,1705,l),
(542,1705,l)
);
}
);
width = 1229;
}
);
note = uni251C;
unicode = 9500;
},
{
glyphname = uni2524;
lastChange = "2019-12-03 14:54:35 +0000";
layers = (
{
layerId = "BC15D09A-B757-48E3-911F-803B0089DB3F";
shapes = (
{
closed = 1;
nodes = (
(542,555,l),
(542,-615,l),
(687,-615,l),
(687,1705,l),
(542,1705,l),
(542,700,l),
(-10,700,l),
(-10,555,l)
);
}
);
width = 1229;
}
);
note = uni2524;
unicode = 9508;
},
{
glyphname = uni252C;
lastChange = "2019-12-03 14:54:35 +0000";
layers = (
{
layerId = "BC15D09A-B757-48E3-911F-803B0089DB3F";
shapes = (
{
closed = 1;
nodes = (
(542,555,l),
(542,-615,l),
(687,-615,l),
(687,555,l),
(1239,555,l),
(1239,700,l),
(-10,700,l),
(-10,555,l)
);
}
);
width = 1229;
}
);
note = uni252C;
unicode = 9516;
},
{
glyphname = uni2534;
lastChange = "2019-12-03 14:54:35 +0000";
layers = (
{
layerId = "BC15D09A-B757-48E3-911F-803B0089DB3F";
shapes = (
{
closed = 1;
nodes = (
(1239,555,l),
(1239,700,l),
(687,700,l),
(687,1705,l),
(542,1705,l),
(542,700,l),
(-10,700,l),
(-10,555,l)
);
}
);
width = 1229;
}
);
note = uni2534;
unicode = 9524;
},
{
glyphname = uni253C;
lastChange = "2019-12-03 14:54:35 +0000";
layers = (
{
layerId = "BC15D09A-B757-48E3-911F-803B0089DB3F";
shapes = (
{
closed = 1;
nodes = (
(542,555,l),
(542,-615,l),
(687,-615,l),
(687,555,l),
(1239,555,l),
(1239,700,l),
(687,700,l),
(687,1705,l),
(542,1705,l),
(542,700,l),
(-10,700,l),
(-10,555,l)
);
}
);
width = 1229;
}
);
note = uni253C;
unicode = 9532;
},
{
glyphname = uni2550;
lastChange = "2019-12-03 14:54:35 +0000";
layers = (
{
layerId = "BC15D09A-B757-48E3-911F-803B0089DB3F";
shapes = (
{
closed = 1;
nodes = (
(1239,735,l),
(1239,880,l),
(-10,880,l),
(-10,735,l)
);
},
{
closed = 1;
nodes = (
(1239,375,l),
(1239,520,l),
(-10,520,l),
(-10,375,l)
);
}
);
width = 1229;
}
);
note = uni2550;
unicode = 9552;
},
{
glyphname = uni2551;
lastChange = "2019-12-03 14:54:35 +0000";
layers = (
{
layerId = "BC15D09A-B757-48E3-911F-803B0089DB3F";
shapes = (
{
closed = 1;
nodes = (
(362,-615,l),
(507,-615,l),
(507,1705,l),
(362,1705,l)
);
},
{
closed = 1;
nodes = (
(722,-615,l),
(867,-615,l),
(867,1705,l),
(722,1705,l)
);
}
);
width = 1229;
}
);
note = uni2551;
unicode = 9553;
},
{
glyphname = uni2552;
lastChange = "2019-12-03 14:54:35 +0000";
layers = (
{
layerId = "BC15D09A-B757-48E3-911F-803B0089DB3F";
shapes = (
{
closed = 1;
nodes = (
(542,-615,l),
(687,-615,l),
(687,375,l),
(1239,375,l),
(1239,520,l),
(687,520,l),
(687,735,l),
(1239,735,l),
(1239,880,l),
(542,880,l)
);
}
);
width = 1229;
}
);
note = uni2552;
unicode = 9554;
},
{
glyphname = uni2553;
lastChange = "2019-12-03 14:54:35 +0000";
layers = (
{
layerId = "BC15D09A-B757-48E3-911F-803B0089DB3F";
shapes = (
{
closed = 1;
nodes = (
(362,700,l),
(362,-615,l),
(507,-615,l),
(507,555,l),
(722,555,l),
(722,-615,l),
(867,-615,l),
(867,555,l),
(1239,555,l),
(1239,700,l)
);
}
);
width = 1229;
}
);
note = uni2553;
unicode = 9555;
},
{
glyphname = uni2554;
lastChange = "2019-12-03 14:54:35 +0000";
layers = (
{
layerId = "BC15D09A-B757-48E3-911F-803B0089DB3F";
shapes = (
{
closed = 1;
nodes = (
(362,-615,l),
(507,-615,l),
(507,735,l),
(1239,735,l),
(1239,880,l),
(362,880,l)
);
},
{
closed = 1;
nodes = (
(722,-615,l),
(867,-615,l),
(867,375,l),
(1239,375,l),
(1239,520,l),
(722,520,l)
);
}
);
width = 1229;
}
);
note = uni2554;
unicode = 9556;
},
{
glyphname = uni2555;
lastChange = "2019-12-03 14:54:35 +0000";
layers = (
{
layerId = "BC15D09A-B757-48E3-911F-803B0089DB3F";
shapes = (
{
closed = 1;
nodes = (
(542,375,l),
(542,-615,l),
(687,-615,l),
(687,880,l),
(-10,880,l),
(-10,735,l),
(542,735,l),
(542,520,l),
(-10,520,l),
(-10,375,l)
);
}
);
width = 1229;
}
);
note = uni2555;
unicode = 9557;
},
{
glyphname = uni2556;
lastChange = "2019-12-03 14:54:35 +0000";
layers = (
{
layerId = "BC15D09A-B757-48E3-911F-803B0089DB3F";
shapes = (
{
closed = 1;
nodes = (
(362,555,l),
(362,-615,l),
(507,-615,l),
(507,555,l),
(722,555,l),
(722,-615,l),
(867,-615,l),
(867,700,l),
(-10,700,l),
(-10,555,l)
);
}
);
width = 1229;
}
);
note = uni2556;
unicode = 9558;
},
{
glyphname = uni2557;
lastChange = "2019-12-03 14:54:35 +0000";
layers = (
{
layerId = "BC15D09A-B757-48E3-911F-803B0089DB3F";
shapes = (
{
closed = 1;
nodes = (
(-10,880,l),
(-10,735,l),
(722,735,l),
(722,-615,l),
(867,-615,l),
(867,880,l)
);
},
{
closed = 1;
nodes = (
(507,520,l),
(-10,520,l),
(-10,375,l),
(362,375,l),
(362,-615,l),
(507,-615,l)
);
}
);
width = 1229;
}
);
note = uni2557;
unicode = 9559;
},
{
glyphname = uni2558;
lastChange = "2019-12-03 14:54:35 +0000";
layers = (
{
layerId = "BC15D09A-B757-48E3-911F-803B0089DB3F";
shapes = (
{
closed = 1;
nodes = (
(542,375,l),
(1239,375,l),
(1239,520,l),
(687,520,l),
(687,735,l),
(1239,735,l),
(1239,880,l),
(687,880,l),
(687,1705,l),
(542,1705,l)
);
}
);
width = 1229;
}
);
note = uni2558;
unicode = 9560;
},
{
glyphname = uni2559;
lastChange = "2019-12-03 14:54:35 +0000";
layers = (
{
layerId = "BC15D09A-B757-48E3-911F-803B0089DB3F";
shapes = (
{
closed = 1;
nodes = (
(722,700,l),
(507,700,l),
(507,1705,l),
(362,1705,l),
(362,555,l),
(1239,555,l),
(1239,700,l),
(867,700,l),
(867,1705,l),
(722,1705,l)
);
}
);
width = 1229;
}
);
note = uni2559;
unicode = 9561;
},
{
glyphname = uni255A;
lastChange = "2019-12-03 14:54:35 +0000";
layers = (
{
layerId = "BC15D09A-B757-48E3-911F-803B0089DB3F";
shapes = (
{
closed = 1;
nodes = (
(362,375,l),
(1239,375,l),
(1239,520,l),
(507,520,l),
(507,1705,l),
(362,1705,l)
);
},
{
closed = 1;
nodes = (
(722,735,l),
(1239,735,l),
(1239,880,l),
(867,880,l),
(867,1705,l),
(722,1705,l)
);
}
);
width = 1229;
}
);
note = uni255A;
unicode = 9562;
},
{
glyphname = uni255B;
lastChange = "2019-12-03 14:54:35 +0000";
layers = (
{
layerId = "BC15D09A-B757-48E3-911F-803B0089DB3F";
shapes = (
{
closed = 1;
nodes = (
(687,375,l),
(687,1705,l),
(542,1705,l),
(542,880,l),
(-10,880,l),
(-10,735,l),
(542,735,l),
(542,520,l),
(-10,520,l),
(-10,375,l)
);
}
);
width = 1229;
}
);
note = uni255B;
unicode = 9563;
},
{
glyphname = uni255C;
lastChange = "2019-12-03 14:54:35 +0000";
layers = (
{
layerId = "BC15D09A-B757-48E3-911F-803B0089DB3F";
shapes = (
{
closed = 1;
nodes = (
(867,1705,l),
(722,1705,l),
(722,700,l),
(507,700,l),
(507,1705,l),
(362,1705,l),
(362,700,l),
(-10,700,l),
(-10,555,l),
(867,555,l)
);
}
);
width = 1229;
}
);
note = uni255C;
unicode = 9564;
},
{
glyphname = uni255D;
lastChange = "2019-12-03 14:54:35 +0000";
layers = (
{
layerId = "BC15D09A-B757-48E3-911F-803B0089DB3F";
shapes = (
{
closed = 1;
nodes = (
(867,1705,l),
(722,1705,l),
(722,520,l),
(-10,520,l),
(-10,375,l),
(867,375,l)
);
},
{
closed = 1;
nodes = (
(362,880,l),
(-10,880,l),
(-10,735,l),
(507,735,l),
(507,1705,l),
(362,1705,l)
);
}
);
width = 1229;
}
);
note = uni255D;
unicode = 9565;
},
{
glyphname = uni255E;
lastChange = "2019-12-03 14:54:35 +0000";
layers = (
{
layerId = "BC15D09A-B757-48E3-911F-803B0089DB3F";
shapes = (
{
closed = 1;
nodes = (
(542,-615,l),
(687,-615,l),
(687,375,l),
(1239,375,l),
(1239,520,l),
(687,520,l),
(687,735,l),
(1239,735,l),
(1239,880,l),
(687,880,l),
(687,1705,l),
(542,1705,l)
);
}
);
width = 1229;
}
);
note = uni255E;
unicode = 9566;
},
{
glyphname = uni255F;
lastChange = "2019-12-03 14:54:35 +0000";
layers = (
{
layerId = "BC15D09A-B757-48E3-911F-803B0089DB3F";
shapes = (
{
closed = 1;
nodes = (
(722,-615,l),
(867,-615,l),
(867,555,l),
(1239,555,l),
(1239,700,l),
(867,700,l),
(867,1705,l),
(722,1705,l)
);
},
{
closed = 1;
nodes = (
(362,-615,l),
(507,-615,l),
(507,1705,l),
(362,1705,l)
);
}
);
width = 1229;
}
);
note = uni255F;
unicode = 9567;
},
{
glyphname = uni2560;
lastChange = "2019-12-03 14:54:35 +0000";
layers = (
{
layerId = "BC15D09A-B757-48E3-911F-803B0089DB3F";
shapes = (
{
closed = 1;
nodes = (
(507,1705,l),
(362,1705,l),
(362,-615,l),
(507,-615,l)
);
},
{
closed = 1;
nodes = (
(722,-615,l),
(867,-615,l),
(867,375,l),
(1239,375,l),
(1239,520,l),
(722,520,l)
);
},
{
closed = 1;
nodes = (
(722,735,l),
(1239,735,l),
(1239,880,l),
(867,880,l),
(867,1705,l),
(722,1705,l)
);
}
);
width = 1229;
}
);
note = uni2560;
unicode = 9568;
},
{
glyphname = uni2561;
lastChange = "2019-12-03 14:54:35 +0000";
layers = (
{
layerId = "BC15D09A-B757-48E3-911F-803B0089DB3F";
shapes = (
{
closed = 1;
nodes = (
(542,375,l),
(542,-615,l),
(687,-615,l),
(687,1705,l),
(542,1705,l),
(542,880,l),
(-10,880,l),
(-10,735,l),
(542,735,l),
(542,520,l),
(-10,520,l),
(-10,375,l)
);
}
);
width = 1229;
}
);
note = uni2561;
unicode = 9569;
},
{
glyphname = uni2562;
lastChange = "2019-12-03 14:54:35 +0000";
layers = (
{
layerId = "BC15D09A-B757-48E3-911F-803B0089DB3F";
shapes = (
{
closed = 1;
nodes = (
(362,555,l),
(362,-615,l),
(507,-615,l),
(507,1705,l),
(362,1705,l),
(362,700,l),
(-10,700,l),
(-10,555,l)
);
},
{
closed = 1;
nodes = (
(722,-615,l),
(867,-615,l),
(867,1705,l),
(722,1705,l)
);
}
);
width = 1229;
}
);
note = uni2562;
unicode = 9570;
},
{
glyphname = uni2563;
lastChange = "2019-12-03 14:54:35 +0000";
layers = (
{
layerId = "BC15D09A-B757-48E3-911F-803B0089DB3F";
shapes = (
{
closed = 1;
nodes = (
(722,-615,l),
(867,-615,l),
(867,1705,l),
(722,1705,l)
);
},
{
closed = 1;
nodes = (
(362,880,l),
(-10,880,l),
(-10,735,l),
(507,735,l),
(507,1705,l),
(362,1705,l)
);
},
{
closed = 1;
nodes = (
(507,520,l),
(-10,520,l),
(-10,375,l),
(362,375,l),
(362,-615,l),
(507,-615,l)
);
}
);
width = 1229;
}
);
note = uni2563;
unicode = 9571;
},
{
glyphname = uni2564;
lastChange = "2019-12-03 14:54:35 +0000";
layers = (
{
layerId = "BC15D09A-B757-48E3-911F-803B0089DB3F";
shapes = (
{
closed = 1;
nodes = (
(542,375,l),
(542,-615,l),
(687,-615,l),
(687,375,l),
(1239,375,l),
(1239,520,l),
(-10,520,l),
(-10,375,l)
);
},
{
closed = 1;
nodes = (
(1239,735,l),
(1239,880,l),
(-10,880,l),
(-10,735,l)
);
}
);
width = 1229;
}
);
note = uni2564;
unicode = 9572;
},
{
glyphname = uni2565;
lastChange = "2019-12-03 14:54:35 +0000";
layers = (
{
layerId = "BC15D09A-B757-48E3-911F-803B0089DB3F";
shapes = (
{
closed = 1;
nodes = (
(362,555,l),
(362,-615,l),
(507,-615,l),
(507,555,l),
(722,555,l),
(722,-615,l),
(867,-615,l),
(867,555,l),
(1239,555,l),
(1239,700,l),
(-10,700,l),
(-10,555,l)
);
}
);
width = 1229;
}
);
note = uni2565;
unicode = 9573;
},
{
glyphname = uni2566;
lastChange = "2019-12-03 14:54:35 +0000";
layers = (
{
layerId = "BC15D09A-B757-48E3-911F-803B0089DB3F";
shapes = (
{
closed = 1;
nodes = (
(507,520,l),
(-10,520,l),
(-10,375,l),
(362,375,l),
(362,-615,l),
(507,-615,l)
);
},
{
closed = 1;
nodes = (
(722,-615,l),
(867,-615,l),
(867,375,l),
(1239,375,l),
(1239,520,l),
(722,520,l)
);
},
{
closed = 1;
nodes = (
(-10,880,l),
(-10,735,l),
(1239,735,l),
(1239,880,l)
);
}
);
width = 1229;
}
);
note = uni2566;
unicode = 9574;
},
{
glyphname = uni2567;
lastChange = "2019-12-03 14:54:35 +0000";
layers = (
{
layerId = "BC15D09A-B757-48E3-911F-803B0089DB3F";
shapes = (
{
closed = 1;
nodes = (
(1239,735,l),
(1239,880,l),
(687,880,l),
(687,1705,l),
(542,1705,l),
(542,880,l),
(-10,880,l),
(-10,735,l)
);
},
{
closed = 1;
nodes = (
(1239,375,l),
(1239,520,l),
(-10,520,l),
(-10,375,l)
);
}
);
width = 1229;
}
);
note = uni2567;
unicode = 9575;
},
{
glyphname = uni2568;
lastChange = "2019-12-03 14:54:35 +0000";
layers = (
{
layerId = "BC15D09A-B757-48E3-911F-803B0089DB3F";
shapes = (
{
closed = 1;
nodes = (
(1239,555,l),
(1239,700,l),
(867,700,l),
(867,1705,l),
(722,1705,l),
(722,700,l),
(507,700,l),
(507,1705,l),
(362,1705,l),
(362,700,l),
(-10,700,l),
(-10,555,l)
);
}
);
width = 1229;
}
);
note = uni2568;
unicode = 9576;
},
{
glyphname = uni2569;
lastChange = "2019-12-03 14:54:35 +0000";
layers = (
{
layerId = "BC15D09A-B757-48E3-911F-803B0089DB3F";
shapes = (
{
closed = 1;
nodes = (
(722,735,l),
(1239,735,l),
(1239,880,l),
(867,880,l),
(867,1705,l),
(722,1705,l)
);
},
{
closed = 1;
nodes = (
(362,880,l),
(-10,880,l),
(-10,735,l),
(507,735,l),
(507,1705,l),
(362,1705,l)
);
},
{
closed = 1;
nodes = (
(1239,375,l),
(1239,520,l),
(-10,520,l),
(-10,375,l)
);
}
);
width = 1229;
}
);
note = uni2569;
unicode = 9577;
},
{
glyphname = uni256A;
lastChange = "2019-12-03 14:54:35 +0000";
layers = (
{
layerId = "BC15D09A-B757-48E3-911F-803B0089DB3F";
shapes = (
{
closed = 1;
nodes = (
(542,375,l),
(542,-615,l),
(687,-615,l),
(687,375,l),
(1239,375,l),
(1239,520,l),
(687,520,l),
(687,735,l),
(1239,735,l),
(1239,880,l),
(687,880,l),
(687,1705,l),
(542,1705,l),
(542,880,l),
(-10,880,l),
(-10,735,l),
(542,735,l),
(542,520,l),
(-10,520,l),
(-10,375,l)
);
}
);
width = 1229;
}
);
note = uni256A;
unicode = 9578;
},
{
glyphname = uni256B;
lastChange = "2019-12-03 14:54:35 +0000";
layers = (
{
layerId = "BC15D09A-B757-48E3-911F-803B0089DB3F";
shapes = (
{
closed = 1;
nodes = (
(722,700,l),
(507,700,l),
(507,1705,l),
(362,1705,l),
(362,700,l),
(-10,700,l),
(-10,555,l),
(362,555,l),
(362,-615,l),
(507,-615,l),
(507,555,l),
(722,555,l),
(722,-615,l),
(867,-615,l),
(867,555,l),
(1239,555,l),
(1239,700,l),
(867,700,l),
(867,1705,l),
(722,1705,l)
);
}
);
width = 1229;
}
);
note = uni256B;
unicode = 9579;
},
{
glyphname = uni256C;
lastChange = "2019-12-03 14:54:35 +0000";
layers = (
{
layerId = "BC15D09A-B757-48E3-911F-803B0089DB3F";
shapes = (
{
closed = 1;
nodes = (
(722,735,l),
(1239,735,l),
(1239,880,l),
(867,880,l),
(867,1705,l),
(722,1705,l)
);
},
{
closed = 1;
nodes = (
(507,520,l),
(-10,520,l),
(-10,375,l),
(362,375,l),
(362,-615,l),
(507,-615,l)
);
},
{
closed = 1;
nodes = (
(722,-615,l),
(867,-615,l),
(867,375,l),
(1239,375,l),
(1239,520,l),
(722,520,l)
);
},
{
closed = 1;
nodes = (
(362,880,l),
(-10,880,l),
(-10,735,l),
(507,735,l),
(507,1705,l),
(362,1705,l)
);
}
);
width = 1229;
}
);
note = uni256C;
unicode = 9580;
},
{
glyphname = upblock;
lastChange = "2019-12-03 14:54:35 +0000";
layers = (
{
layerId = "BC15D09A-B757-48E3-911F-803B0089DB3F";
shapes = (
{
closed = 1;
nodes = (
(1229,1705,l),
(0,1705,l),
(0,627,l),
(1229,627,l)
);
}
);
width = 1229;
}
);
note = upblock;
unicode = 9600;
},
{
glyphname = dnblock;
lastChange = "2019-12-03 14:54:35 +0000";
layers = (
{
layerId = "BC15D09A-B757-48E3-911F-803B0089DB3F";
shapes = (
{
closed = 1;
nodes = (
(1229,627,l),
(0,627,l),
(0,-615,l),
(1229,-615,l)
);
}
);
width = 1229;
}
);
note = dnblock;
unicode = 9604;
},
{
glyphname = block;
lastChange = "2019-12-03 14:54:35 +0000";
layers = (
{
layerId = "BC15D09A-B757-48E3-911F-803B0089DB3F";
shapes = (
{
closed = 1;
nodes = (
(1229,1705,l),
(0,1705,l),
(0,-615,l),
(1229,-615,l)
);
}
);
width = 1229;
}
);
note = block;
unicode = 9608;
},
{
glyphname = lfblock;
lastChange = "2019-12-03 14:54:35 +0000";
layers = (
{
layerId = "BC15D09A-B757-48E3-911F-803B0089DB3F";
shapes = (
{
closed = 1;
nodes = (
(615,1705,l),
(0,1705,l),
(0,-615,l),
(615,-615,l)
);
}
);
width = 1229;
}
);
note = lfblock;
unicode = 9612;
},
{
glyphname = rtblock;
lastChange = "2019-12-03 14:54:35 +0000";
layers = (
{
layerId = "BC15D09A-B757-48E3-911F-803B0089DB3F";
shapes = (
{
closed = 1;
nodes = (
(1229,1705,l),
(614,1705,l),
(614,-615,l),
(1229,-615,l)
);
}
);
width = 1229;
}
);
note = rtblock;
unicode = 9616;
},
{
glyphname = ltshade;
lastChange = "2019-12-03 14:54:35 +0000";
layers = (
{
layerId = "BC15D09A-B757-48E3-911F-803B0089DB3F";
shapes = (
{
closed = 1;
nodes = (
(0,1222,l),
(103,1222,l),
(103,1320,l),
(0,1320,l)
);
},
{
closed = 1;
nodes = (
(410,1222,l),
(513,1222,l),
(513,1320,l),
(410,1320,l)
);
},
{
closed = 1;
nodes = (
(820,1222,l),
(923,1222,l),
(923,1320,l),
(820,1320,l)
);
},
{
closed = 1;
nodes = (
(205,1029,l),
(307,1029,l),
(307,1125,l),
(205,1125,l)
);
},
{
closed = 1;
nodes = (
(615,1029,l),
(717,1029,l),
(717,1125,l),
(615,1125,l)
);
},
{
closed = 1;
nodes = (
(1025,1029,l),
(1127,1029,l),
(1127,1125,l),
(1025,1125,l)
);
},
{
closed = 1;
nodes = (
(0,837,l),
(103,837,l),
(103,933,l),
(0,933,l)
);
},
{
closed = 1;
nodes = (
(410,837,l),
(513,837,l),
(513,933,l),
(410,933,l)
);
},
{
closed = 1;
nodes = (
(820,837,l),
(923,837,l),
(923,933,l),
(820,933,l)
);
},
{
closed = 1;
nodes = (
(205,642,l),
(307,642,l),
(307,738,l),
(205,738,l)
);
},
{
closed = 1;
nodes = (
(615,642,l),
(717,642,l),
(717,738,l),
(615,738,l)
);
},
{
closed = 1;
nodes = (
(1025,642,l),
(1127,642,l),
(1127,738,l),
(1025,738,l)
);
},
{
closed = 1;
nodes = (
(0,450,l),
(103,450,l),
(103,546,l),
(0,546,l)
);
},
{
closed = 1;
nodes = (
(410,450,l),
(513,450,l),
(513,546,l),
(410,546,l)
);
},
{
closed = 1;
nodes = (
(820,450,l),
(923,450,l),
(923,546,l),
(820,546,l)
);
},
{
closed = 1;
nodes = (
(615,255,l),
(717,255,l),
(717,351,l),
(615,351,l)
);
},
{
closed = 1;
nodes = (
(1025,255,l),
(1127,255,l),
(1127,351,l),
(1025,351,l)
);
},
{
closed = 1;
nodes = (
(205,255,l),
(307,255,l),
(307,351,l),
(205,351,l)
);
},
{
closed = 1;
nodes = (
(820,62,l),
(923,62,l),
(923,159,l),
(820,159,l)
);
},
{
closed = 1;
nodes = (
(410,62,l),
(513,62,l),
(513,159,l),
(410,159,l)
);
},
{
closed = 1;
nodes = (
(0,62,l),
(103,62,l),
(103,159,l),
(0,159,l)
);
},
{
closed = 1;
nodes = (
(205,-130,l),
(307,-130,l),
(307,-36,l),
(205,-36,l)
);
},
{
closed = 1;
nodes = (
(615,-130,l),
(717,-130,l),
(717,-36,l),
(615,-36,l)
);
},
{
closed = 1;
nodes = (
(1025,-130,l),
(1127,-130,l),
(1127,-36,l),
(1025,-36,l)
);
},
{
closed = 1;
nodes = (
(820,-325,l),
(923,-325,l),
(923,-228,l),
(820,-228,l)
);
},
{
closed = 1;
nodes = (
(410,-325,l),
(513,-325,l),
(513,-228,l),
(410,-228,l)
);
},
{
closed = 1;
nodes = (
(0,-325,l),
(103,-325,l),
(103,-228,l),
(0,-228,l)
);
},
{
closed = 1;
nodes = (
(205,-517,l),
(307,-517,l),
(307,-421,l),
(205,-421,l)
);
},
{
closed = 1;
nodes = (
(615,-517,l),
(717,-517,l),
(717,-421,l),
(615,-421,l)
);
},
{
closed = 1;
nodes = (
(1025,-517,l),
(1127,-517,l),
(1127,-421,l),
(1025,-421,l)
);
},
{
closed = 1;
nodes = (
(205,1414,l),
(307,1414,l),
(307,1512,l),
(205,1512,l)
);
},
{
closed = 1;
nodes = (
(615,1414,l),
(717,1414,l),
(717,1512,l),
(615,1512,l)
);
},
{
closed = 1;
nodes = (
(1025,1414,l),
(1127,1414,l),
(1127,1512,l),
(1025,1512,l)
);
},
{
closed = 1;
nodes = (
(0,1609,l),
(103,1609,l),
(103,1705,l),
(0,1705,l)
);
},
{
closed = 1;
nodes = (
(410,1609,l),
(513,1609,l),
(513,1705,l),
(410,1705,l)
);
},
{
closed = 1;
nodes = (
(820,1609,l),
(923,1609,l),
(923,1705,l),
(820,1705,l)
);
}
);
width = 1229;
}
);
note = ltshade;
unicode = 9617;
},
{
glyphname = shade;
lastChange = "2019-12-03 14:54:35 +0000";
layers = (
{
layerId = "BC15D09A-B757-48E3-911F-803B0089DB3F";
shapes = (
{
closed = 1;
nodes = (
(102,1222,l),
(205,1222,l),
(205,1320,l),
(102,1320,l)
);
},
{
closed = 1;
nodes = (
(307,1222,l),
(410,1222,l),
(410,1320,l),
(307,1320,l)
);
},
{
closed = 1;
nodes = (
(512,1222,l),
(615,1222,l),
(615,1320,l),
(512,1320,l)
);
},
{
closed = 1;
nodes = (
(717,1222,l),
(820,1222,l),
(820,1320,l),
(717,1320,l)
);
},
{
closed = 1;
nodes = (
(922,1222,l),
(1025,1222,l),
(1025,1320,l),
(922,1320,l)
);
},
{
closed = 1;
nodes = (
(1127,1222,l),
(1230,1222,l),
(1230,1320,l),
(1127,1320,l)
);
},
{
closed = 1;
nodes = (
(0,1029,l),
(102,1029,l),
(102,1125,l),
(0,1125,l)
);
},
{
closed = 1;
nodes = (
(205,1029,l),
(307,1029,l),
(307,1125,l),
(205,1125,l)
);
},
{
closed = 1;
nodes = (
(410,1029,l),
(512,1029,l),
(512,1125,l),
(410,1125,l)
);
},
{
closed = 1;
nodes = (
(615,1029,l),
(717,1029,l),
(717,1125,l),
(615,1125,l)
);
},
{
closed = 1;
nodes = (
(820,1029,l),
(922,1029,l),
(922,1125,l),
(820,1125,l)
);
},
{
closed = 1;
nodes = (
(1025,1029,l),
(1127,1029,l),
(1127,1125,l),
(1025,1125,l)
);
},
{
closed = 1;
nodes = (
(102,837,l),
(205,837,l),
(205,933,l),
(102,933,l)
);
},
{
closed = 1;
nodes = (
(307,837,l),
(410,837,l),
(410,933,l),
(307,933,l)
);
},
{
closed = 1;
nodes = (
(512,837,l),
(615,837,l),
(615,933,l),
(512,933,l)
);
},
{
closed = 1;
nodes = (
(717,837,l),
(820,837,l),
(820,933,l),
(717,933,l)
);
},
{
closed = 1;
nodes = (
(922,837,l),
(1025,837,l),
(1025,933,l),
(922,933,l)
);
},
{
closed = 1;
nodes = (
(1127,837,l),
(1230,837,l),
(1230,933,l),
(1127,933,l)
);
},
{
closed = 1;
nodes = (
(0,642,l),
(102,642,l),
(102,738,l),
(0,738,l)
);
},
{
closed = 1;
nodes = (
(205,642,l),
(307,642,l),
(307,738,l),
(205,738,l)
);
},
{
closed = 1;
nodes = (
(410,642,l),
(512,642,l),
(512,738,l),
(410,738,l)
);
},
{
closed = 1;
nodes = (
(615,642,l),
(717,642,l),
(717,738,l),
(615,738,l)
);
},
{
closed = 1;
nodes = (
(820,642,l),
(922,642,l),
(922,738,l),
(820,738,l)
);
},
{
closed = 1;
nodes = (
(1025,642,l),
(1127,642,l),
(1127,738,l),
(1025,738,l)
);
},
{
closed = 1;
nodes = (
(102,450,l),
(205,450,l),
(205,546,l),
(102,546,l)
);
},
{
closed = 1;
nodes = (
(307,450,l),
(410,450,l),
(410,546,l),
(307,546,l)
);
},
{
closed = 1;
nodes = (
(512,450,l),
(615,450,l),
(615,546,l),
(512,546,l)
);
},
{
closed = 1;
nodes = (
(717,450,l),
(820,450,l),
(820,546,l),
(717,546,l)
);
},
{
closed = 1;
nodes = (
(922,450,l),
(1025,450,l),
(1025,546,l),
(922,546,l)
);
},
{
closed = 1;
nodes = (
(1127,450,l),
(1230,450,l),
(1230,546,l),
(1127,546,l)
);
},
{
closed = 1;
nodes = (
(0,255,l),
(102,255,l),
(102,351,l),
(0,351,l)
);
},
{
closed = 1;
nodes = (
(410,255,l),
(512,255,l),
(512,351,l),
(410,351,l)
);
},
{
closed = 1;
nodes = (
(615,255,l),
(717,255,l),
(717,351,l),
(615,351,l)
);
},
{
closed = 1;
nodes = (
(820,255,l),
(922,255,l),
(922,351,l),
(820,351,l)
);
},
{
closed = 1;
nodes = (
(1025,255,l),
(1127,255,l),
(1127,351,l),
(1025,351,l)
);
},
{
closed = 1;
nodes = (
(205,255,l),
(307,255,l),
(307,351,l),
(205,351,l)
);
},
{
closed = 1;
nodes = (
(1127,62,l),
(1230,62,l),
(1230,159,l),
(1127,159,l)
);
},
{
closed = 1;
nodes = (
(922,62,l),
(1025,62,l),
(1025,159,l),
(922,159,l)
);
},
{
closed = 1;
nodes = (
(717,62,l),
(820,62,l),
(820,159,l),
(717,159,l)
);
},
{
closed = 1;
nodes = (
(512,62,l),
(615,62,l),
(615,159,l),
(512,159,l)
);
},
{
closed = 1;
nodes = (
(307,62,l),
(410,62,l),
(410,159,l),
(307,159,l)
);
},
{
closed = 1;
nodes = (
(102,62,l),
(205,62,l),
(205,159,l),
(102,159,l)
);
},
{
closed = 1;
nodes = (
(0,-130,l),
(102,-130,l),
(102,-36,l),
(0,-36,l)
);
},
{
closed = 1;
nodes = (
(205,-130,l),
(307,-130,l),
(307,-36,l),
(205,-36,l)
);
},
{
closed = 1;
nodes = (
(410,-130,l),
(512,-130,l),
(512,-36,l),
(410,-36,l)
);
},
{
closed = 1;
nodes = (
(615,-130,l),
(717,-130,l),
(717,-36,l),
(615,-36,l)
);
},
{
closed = 1;
nodes = (
(820,-130,l),
(922,-130,l),
(922,-36,l),
(820,-36,l)
);
},
{
closed = 1;
nodes = (
(1025,-130,l),
(1127,-130,l),
(1127,-36,l),
(1025,-36,l)
);
},
{
closed = 1;
nodes = (
(1127,-325,l),
(1230,-325,l),
(1230,-228,l),
(1127,-228,l)
);
},
{
closed = 1;
nodes = (
(922,-325,l),
(1025,-325,l),
(1025,-228,l),
(922,-228,l)
);
},
{
closed = 1;
nodes = (
(717,-325,l),
(820,-325,l),
(820,-228,l),
(717,-228,l)
);
},
{
closed = 1;
nodes = (
(512,-325,l),
(615,-325,l),
(615,-228,l),
(512,-228,l)
);
},
{
closed = 1;
nodes = (
(307,-325,l),
(410,-325,l),
(410,-228,l),
(307,-228,l)
);
},
{
closed = 1;
nodes = (
(102,-325,l),
(205,-325,l),
(205,-228,l),
(102,-228,l)
);
},
{
closed = 1;
nodes = (
(0,-517,l),
(102,-517,l),
(102,-421,l),
(0,-421,l)
);
},
{
closed = 1;
nodes = (
(205,-517,l),
(307,-517,l),
(307,-421,l),
(205,-421,l)
);
},
{
closed = 1;
nodes = (
(410,-517,l),
(512,-517,l),
(512,-421,l),
(410,-421,l)
);
},
{
closed = 1;
nodes = (
(615,-517,l),
(717,-517,l),
(717,-421,l),
(615,-421,l)
);
},
{
closed = 1;
nodes = (
(820,-517,l),
(922,-517,l),
(922,-421,l),
(820,-421,l)
);
},
{
closed = 1;
nodes = (
(1025,-517,l),
(1127,-517,l),
(1127,-421,l),
(1025,-421,l)
);
},
{
closed = 1;
nodes = (
(0,1414,l),
(102,1414,l),
(102,1512,l),
(0,1512,l)
);
},
{
closed = 1;
nodes = (
(205,1414,l),
(307,1414,l),
(307,1512,l),
(205,1512,l)
);
},
{
closed = 1;
nodes = (
(410,1414,l),
(512,1414,l),
(512,1512,l),
(410,1512,l)
);
},
{
closed = 1;
nodes = (
(615,1414,l),
(717,1414,l),
(717,1512,l),
(615,1512,l)
);
},
{
closed = 1;
nodes = (
(820,1414,l),
(922,1414,l),
(922,1512,l),
(820,1512,l)
);
},
{
closed = 1;
nodes = (
(1025,1414,l),
(1127,1414,l),
(1127,1512,l),
(1025,1512,l)
);
},
{
closed = 1;
nodes = (
(102,1609,l),
(205,1609,l),
(205,1705,l),
(102,1705,l)
);
},
{
closed = 1;
nodes = (
(307,1609,l),
(410,1609,l),
(410,1705,l),
(307,1705,l)
);
},
{
closed = 1;
nodes = (
(512,1609,l),
(615,1609,l),
(615,1705,l),
(512,1705,l)
);
},
{
closed = 1;
nodes = (
(717,1609,l),
(820,1609,l),
(820,1705,l),
(717,1705,l)
);
},
{
closed = 1;
nodes = (
(922,1609,l),
(1025,1609,l),
(1025,1705,l),
(922,1705,l)
);
},
{
closed = 1;
nodes = (
(1127,1609,l),
(1230,1609,l),
(1230,1705,l),
(1127,1705,l)
);
}
);
width = 1229;
}
);
note = shade;
unicode = 9618;
},
{
glyphname = dkshade;
lastChange = "2019-12-03 14:54:35 +0000";
layers = (
{
layerId = "BC15D09A-B757-48E3-911F-803B0089DB3F";
shapes = (
{
closed = 1;
nodes = (
(1230,-517,l),
(1127,-517,l),
(1127,-421,l),
(1230,-421,l),
(1230,-130,l),
(1127,-130,l),
(1127,-36,l),
(1230,-36,l),
(1230,255,l),
(1127,255,l),
(1127,351,l),
(1230,351,l),
(1230,642,l),
(1127,642,l),
(1127,738,l),
(1230,738,l),
(1230,1029,l),
(1127,1029,l),
(1127,1125,l),
(1230,1125,l),
(1230,1414,l),
(1127,1414,l),
(1127,1512,l),
(1230,1512,l),
(1230,1705,l),
(1127,1705,l),
(1127,1609,l),
(1025,1609,l),
(1025,1705,l),
(922,1705,l),
(922,1609,l),
(820,1609,l),
(820,1705,l),
(717,1705,l),
(717,1609,l),
(615,1609,l),
(615,1705,l),
(512,1705,l),
(512,1609,l),
(410,1609,l),
(410,1705,l),
(307,1705,l),
(307,1609,l),
(205,1609,l),
(205,1705,l),
(102,1705,l),
(102,1609,l),
(0,1609,l),
(0,1320,l),
(102,1320,l),
(102,1222,l),
(0,1222,l),
(0,933,l),
(102,933,l),
(102,835,l),
(0,835,l),
(0,546,l),
(102,546,l),
(102,450,l),
(0,450,l),
(0,159,l),
(102,159,l),
(102,62,l),
(0,62,l),
(0,-228,l),
(102,-228,l),
(102,-325,l),
(0,-325,l),
(0,-615,l),
(1230,-615,l)
);
},
{
closed = 1;
nodes = (
(205,1125,l),
(205,1029,l),
(102,1029,l),
(102,1125,l)
);
},
{
closed = 1;
nodes = (
(410,1125,l),
(410,1029,l),
(307,1029,l),
(307,1125,l)
);
},
{
closed = 1;
nodes = (
(615,1125,l),
(615,1029,l),
(512,1029,l),
(512,1125,l)
);
},
{
closed = 1;
nodes = (
(820,1125,l),
(820,1029,l),
(717,1029,l),
(717,1125,l)
);
},
{
closed = 1;
nodes = (
(922,835,l),
(820,835,l),
(820,933,l),
(922,933,l)
);
},
{
closed = 1;
nodes = (
(717,835,l),
(615,835,l),
(615,933,l),
(717,933,l)
);
},
{
closed = 1;
nodes = (
(512,835,l),
(410,835,l),
(410,933,l),
(512,933,l)
);
},
{
closed = 1;
nodes = (
(307,835,l),
(205,835,l),
(205,933,l),
(307,933,l)
);
},
{
closed = 1;
nodes = (
(205,738,l),
(205,642,l),
(102,642,l),
(102,738,l)
);
},
{
closed = 1;
nodes = (
(410,738,l),
(410,642,l),
(307,642,l),
(307,738,l)
);
},
{
closed = 1;
nodes = (
(615,738,l),
(615,642,l),
(512,642,l),
(512,738,l)
);
},
{
closed = 1;
nodes = (
(820,738,l),
(820,642,l),
(717,642,l),
(717,738,l)
);
},
{
closed = 1;
nodes = (
(307,450,l),
(205,450,l),
(205,546,l),
(307,546,l)
);
},
{
closed = 1;
nodes = (
(512,546,l),
(512,450,l),
(410,450,l),
(410,546,l)
);
},
{
closed = 1;
nodes = (
(717,546,l),
(717,450,l),
(615,450,l),
(615,546,l)
);
},
{
closed = 1;
nodes = (
(922,546,l),
(922,450,l),
(820,450,l),
(820,546,l)
);
},
{
closed = 1;
nodes = (
(205,351,l),
(205,255,l),
(102,255,l),
(102,351,l)
);
},
{
closed = 1;
nodes = (
(615,351,l),
(615,255,l),
(512,255,l),
(512,351,l)
);
},
{
closed = 1;
nodes = (
(307,255,l),
(307,351,l),
(410,351,l),
(410,255,l)
);
},
{
closed = 1;
nodes = (
(820,351,l),
(820,255,l),
(717,255,l),
(717,351,l)
);
},
{
closed = 1;
nodes = (
(820,62,l),
(820,159,l),
(922,159,l),
(922,62,l)
);
},
{
closed = 1;
nodes = (
(615,62,l),
(615,159,l),
(717,159,l),
(717,62,l)
);
},
{
closed = 1;
nodes = (
(410,62,l),
(410,159,l),
(512,159,l),
(512,62,l)
);
},
{
closed = 1;
nodes = (
(205,62,l),
(205,159,l),
(307,159,l),
(307,62,l)
);
},
{
closed = 1;
nodes = (
(205,-36,l),
(205,-130,l),
(102,-130,l),
(102,-36,l)
);
},
{
closed = 1;
nodes = (
(410,-36,l),
(410,-130,l),
(307,-130,l),
(307,-36,l)
);
},
{
closed = 1;
nodes = (
(615,-36,l),
(615,-130,l),
(512,-130,l),
(512,-36,l)
);
},
{
closed = 1;
nodes = (
(820,-36,l),
(820,-130,l),
(717,-130,l),
(717,-36,l)
);
},
{
closed = 1;
nodes = (
(820,-325,l),
(820,-228,l),
(922,-228,l),
(922,-325,l)
);
},
{
closed = 1;
nodes = (
(615,-325,l),
(615,-228,l),
(717,-228,l),
(717,-325,l)
);
},
{
closed = 1;
nodes = (
(410,-325,l),
(410,-228,l),
(512,-228,l),
(512,-325,l)
);
},
{
closed = 1;
nodes = (
(205,-325,l),
(205,-228,l),
(307,-228,l),
(307,-325,l)
);
},
{
closed = 1;
nodes = (
(205,-421,l),
(205,-517,l),
(102,-517,l),
(102,-421,l)
);
},
{
closed = 1;
nodes = (
(410,-421,l),
(410,-517,l),
(307,-517,l),
(307,-421,l)
);
},
{
closed = 1;
nodes = (
(615,-421,l),
(615,-517,l),
(512,-517,l),
(512,-421,l)
);
},
{
closed = 1;
nodes = (
(820,-421,l),
(820,-517,l),
(717,-517,l),
(717,-421,l)
);
},
{
closed = 1;
nodes = (
(922,1222,l),
(820,1222,l),
(820,1320,l),
(922,1320,l)
);
},
{
closed = 1;
nodes = (
(717,1222,l),
(615,1222,l),
(615,1320,l),
(717,1320,l)
);
},
{
closed = 1;
nodes = (
(512,1222,l),
(410,1222,l),
(410,1320,l),
(512,1320,l)
);
},
{
closed = 1;
nodes = (
(307,1222,l),
(205,1222,l),
(205,1320,l),
(307,1320,l)
);
},
{
closed = 1;
nodes = (
(820,1414,l),
(717,1414,l),
(717,1512,l),
(820,1512,l)
);
},
{
closed = 1;
nodes = (
(615,1414,l),
(512,1414,l),
(512,1512,l),
(615,1512,l)
);
},
{
closed = 1;
nodes = (
(410,1414,l),
(307,1414,l),
(307,1512,l),
(410,1512,l)
);
},
{
closed = 1;
nodes = (
(205,1414,l),
(102,1414,l),
(102,1512,l),
(205,1512,l)
);
},
{
closed = 1;
nodes = (
(1025,1125,l),
(1025,1029,l),
(922,1029,l),
(922,1125,l)
);
},
{
closed = 1;
nodes = (
(1127,835,l),
(1025,835,l),
(1025,933,l),
(1127,933,l)
);
},
{
closed = 1;
nodes = (
(1025,738,l),
(1025,642,l),
(922,642,l),
(922,738,l)
);
},
{
closed = 1;
nodes = (
(1127,546,l),
(1127,450,l),
(1025,450,l),
(1025,546,l)
);
},
{
closed = 1;
nodes = (
(1025,351,l),
(1025,255,l),
(922,255,l),
(922,351,l)
);
},
{
closed = 1;
nodes = (
(1025,62,l),
(1025,159,l),
(1127,159,l),
(1127,62,l)
);
},
{
closed = 1;
nodes = (
(1025,-36,l),
(1025,-130,l),
(922,-130,l),
(922,-36,l)
);
},
{
closed = 1;
nodes = (
(1025,-325,l),
(1025,-228,l),
(1127,-228,l),
(1127,-325,l)
);
},
{
closed = 1;
nodes = (
(1025,-421,l),
(1025,-517,l),
(922,-517,l),
(922,-421,l)
);
},
{
closed = 1;
nodes = (
(1127,1222,l),
(1025,1222,l),
(1025,1320,l),
(1127,1320,l)
);
},
{
closed = 1;
nodes = (
(1025,1414,l),
(922,1414,l),
(922,1512,l),
(1025,1512,l)
);
}
);
width = 1229;
}
);
note = dkshade;
unicode = 9619;
},
{
glyphname = filledbox;
lastChange = "2019-12-03 14:54:35 +0000";
layers = (
{
layerId = "BC15D09A-B757-48E3-911F-803B0089DB3F";
shapes = (
{
closed = 1;
nodes = (
(119,117,l),
(1110,117,l),
(1110,1108,l),
(119,1108,l)
);
}
);
width = 1229;
}
);
note = filledbox;
unicode = 9632;
},
{
glyphname = filledrect;
lastChange = "2019-12-03 14:54:35 +0000";
layers = (
{
layerId = "BC15D09A-B757-48E3-911F-803B0089DB3F";
shapes = (
{
closed = 1;
nodes = (
(8,70,l),
(1221,70,l),
(1221,546,l),
(8,546,l)
);
}
);
width = 1229;
}
);
note = filledrect;
unicode = 9644;
},
{
glyphname = triagup;
lastChange = "2019-12-03 14:54:35 +0000";
layers = (
{
layerId = "BC15D09A-B757-48E3-911F-803B0089DB3F";
shapes = (
{
closed = 1;
nodes = (
(1213,50,l),
(615,1198,l),
(15,50,l)
);
}
);
width = 1229;
}
);
note = triagup;
unicode = 9650;
},
{
glyphname = triagrt;
lastChange = "2019-12-03 14:54:35 +0000";
layers = (
{
layerId = "BC15D09A-B757-48E3-911F-803B0089DB3F";
shapes = (
{
closed = 1;
nodes = (
(52,-27,l),
(1227,586,l),
(52,1196,l)
);
}
);
width = 1229;
}
);
note = triagrt;
unicode = 9658;
},
{
glyphname = triagdn;
lastChange = "2019-12-03 14:54:35 +0000";
layers = (
{
layerId = "BC15D09A-B757-48E3-911F-803B0089DB3F";
shapes = (
{
closed = 1;
nodes = (
(15,1121,l),
(615,-27,l),
(1213,1121,l)
);
}
);
width = 1229;
}
);
note = triagdn;
unicode = 9660;
},
{
glyphname = triaglf;
lastChange = "2019-12-03 14:54:35 +0000";
layers = (
{
layerId = "BC15D09A-B757-48E3-911F-803B0089DB3F";
shapes = (
{
closed = 1;
nodes = (
(2,586,l),
(1177,-27,l),
(1177,1196,l)
);
}
);
width = 1229;
}
);
note = triaglf;
unicode = 9668;
},
{
glyphname = circle;
lastChange = "2019-12-03 14:54:35 +0000";
layers = (
{
layerId = "BC15D09A-B757-48E3-911F-803B0089DB3F";
shapes = (
{
closed = 1;
nodes = (
(163,490,o),
(283,282,o),
(491,162,o),
(613,162,qs),
(736,162,o),
(945,282,o),
(1066,491,o),
(1066,612,qs),
(1066,733,o),
(945,944,o),
(735,1065,o),
(613,1065,qs),
(492,1065,o),
(283,944,o),
(163,734,o),
(163,612,qs)
);
},
{
closed = 1;
nodes = (
(249,712,o),
(347,881,o),
(516,979,o),
(613,979,qs),
(711,979,o),
(882,881,o),
(980,710,o),
(980,612,qs),
(980,514,o),
(880,344,o),
(711,248,o),
(613,248,qs),
(514,248,o),
(347,345,o),
(249,514,o),
(249,612,qs)
);
}
);
width = 1229;
}
);
note = circle;
unicode = 9675;
},
{
glyphname = invbullet;
lastChange = "2019-12-03 14:54:35 +0000";
layers = (
{
layerId = "BC15D09A-B757-48E3-911F-803B0089DB3F";
shapes = (
{
closed = 1;
nodes = (
(1192,0,l),
(1192,1155,l),
(37,1155,l),
(37,0,l)
);
},
{
closed = 1;
nodes = (
(172,695,o),
(289,899,o),
(494,1018,o),
(612,1018,qs),
(731,1018,o),
(935,900,o),
(1053,695,o),
(1053,577,qs),
(1053,460,o),
(935,255,o),
(730,137,o),
(612,137,qs),
(493,137,o),
(290,255,o),
(172,459,o),
(172,577,qs)
);
}
);
width = 1229;
}
);
note = invbullet;
unicode = 9688;
},
{
glyphname = invcircle;
lastChange = "2019-12-03 14:54:35 +0000";
layers = (
{
layerId = "BC15D09A-B757-48E3-911F-803B0089DB3F";
shapes = (
{
closed = 1;
nodes = (
(1192,0,l),
(1192,1155,l),
(37,1155,l),
(37,0,l)
);
},
{
closed = 1;
nodes = (
(249,480,o),
(347,310,o),
(517,212,o),
(614,212,qs),
(711,212,o),
(881,310,o),
(979,480,o),
(979,577,qs),
(979,674,o),
(881,844,o),
(711,942,o),
(614,942,qs),
(517,942,o),
(347,844,o),
(249,674,o),
(249,577,qs)
);
},
{
closed = 1;
nodes = (
(172,695,o),
(289,899,o),
(494,1018,o),
(612,1018,qs),
(731,1018,o),
(935,900,o),
(1053,695,o),
(1053,577,qs),
(1053,460,o),
(935,255,o),
(730,137,o),
(612,137,qs),
(493,137,o),
(290,255,o),
(172,459,o),
(172,577,qs)
);
}
);
width = 1229;
}
);
note = invcircle;
unicode = 9689;
},
{
glyphname = smileface;
lastChange = "2019-12-03 14:54:35 +0000";
layers = (
{
layerId = "BC15D09A-B757-48E3-911F-803B0089DB3F";
shapes = (
{
closed = 1;
nodes = (
(27,431,o),
(184,159,o),
(456,2,o),
(614,2,qs),
(772,2,o),
(1044,159,o),
(1201,431,o),
(1201,589,qs),
(1201,747,o),
(1043,1019,o),
(772,1176,o),
(614,1176,qs),
(456,1176,o),
(184,1019,o),
(27,747,o),
(27,589,qs)
);
},
{
closed = 1;
nodes = (
(90,728,o),
(231,972,o),
(474,1112,o),
(614,1112,qs),
(755,1112,o),
(997,971,o),
(1137,729,o),
(1137,589,qs),
(1137,450,o),
(997,206,o),
(754,65,o),
(614,65,qs),
(473,65,o),
(230,206,o),
(90,449,o),
(90,589,qs)
);
},
{
closed = 1;
nodes = (
(326,712,o),
(367,671,o),
(396,671,qs),
(425,671,o),
(467,712,o),
(467,741,qs),
(467,770,o),
(425,812,o),
(396,812,qs),
(367,812,o),
(326,770,o),
(326,741,qs)
);
},
{
closed = 1;
nodes = (
(761,712,o),
(802,671,o),
(831,671,qs),
(860,671,o),
(902,712,o),
(902,741,qs),
(902,770,o),
(860,812,o),
(831,812,qs),
(802,812,o),
(761,770,o),
(761,741,qs)
);
},
{
closed = 1;
nodes = (
(295,393,l),
(341,324,o),
(428,256,o),
(543,216,o),
(614,216,qs),
(821,216,o),
(933,393,q),
(875,442,l),
(818,365,o),
(694,306,o),
(614,306,qs),
(536,306,o),
(411,364,o),
(353,442,q)
);
}
);
width = 1229;
}
);
note = smileface;
unicode = 9786;
},
{
glyphname = invsmileface;
lastChange = "2019-12-03 14:54:35 +0000";
layers = (
{
layerId = "BC15D09A-B757-48E3-911F-803B0089DB3F";
shapes = (
{
closed = 1;
nodes = (
(27,431,o),
(184,159,o),
(456,2,o),
(614,2,qs),
(772,2,o),
(1044,159,o),
(1201,431,o),
(1201,589,qs),
(1201,747,o),
(1043,1019,o),
(772,1176,o),
(614,1176,qs),
(456,1176,o),
(184,1019,o),
(27,747,o),
(27,589,qs)
);
},
{
closed = 1;
nodes = (
(326,770,o),
(367,812,o),
(396,812,qs),
(425,812,o),
(467,770,o),
(467,741,qs),
(467,712,o),
(425,671,o),
(396,671,qs),
(367,671,o),
(326,712,o),
(326,741,qs)
);
},
{
closed = 1;
nodes = (
(761,770,o),
(802,812,o),
(831,812,qs),
(860,812,o),
(902,770,o),
(902,741,qs),
(902,712,o),
(860,671,o),
(831,671,qs),
(802,671,o),
(761,712,o),
(761,741,qs)
);
},
{
closed = 1;
nodes = (
(353,442,l),
(410,365,o),
(535,306,o),
(614,306,qs),
(692,306,o),
(817,364,o),
(875,442,q),
(933,393,l),
(821,216,o),
(614,216,qs),
(541,216,o),
(427,257,o),
(340,325,o),
(295,393,q)
);
}
);
width = 1229;
}
);
note = invsmileface;
unicode = 9787;
},
{
glyphname = sun;
lastChange = "2019-12-03 14:54:35 +0000";
layers = (
{
layerId = "BC15D09A-B757-48E3-911F-803B0089DB3F";
shapes = (
{
closed = 1;
nodes = (
(173,856,l),
(337,691,l),
(267,604,o),
(258,502,q),
(26,502,l),
(26,430,l),
(258,430,l),
(268,327,o),
(337,240,q),
(173,76,l),
(224,25,l),
(388,189,l),
(475,120,o),
(578,110,q),
(578,-122,l),
(650,-122,l),
(650,110,l),
(752,119,o),
(839,189,q),
(1004,25,l),
(1055,76,l),
(890,240,l),
(959,327,o),
(969,430,q),
(1202,430,l),
(1202,502,l),
(969,502,l),
(960,604,o),
(890,691,q),
(1055,856,l),
(1004,907,l),
(839,742,l),
(752,812,o),
(650,821,q),
(650,1054,l),
(578,1054,l),
(578,821,l),
(475,811,o),
(388,742,q),
(224,907,l)
);
},
{
closed = 1;
nodes = (
(329,584,o),
(496,751,o),
(614,751,qs),
(732,751,o),
(899,584,o),
(899,466,qs),
(899,348,o),
(734,181,o),
(614,181,qs),
(494,181,o),
(329,348,o),
(329,466,qs)
);
}
);
width = 1229;
}
);
note = sun;
unicode = 9788;
},
{
glyphname = female;
lastChange = "2019-12-03 14:54:35 +0000";
layers = (
{
layerId = "BC15D09A-B757-48E3-911F-803B0089DB3F";
shapes = (
{
closed = 1;
nodes = (
(344,304,l),
(578,304,l),
(578,70,l),
(650,70,l),
(650,304,l),
(884,304,l),
(884,376,l),
(650,376,l),
(650,578,l),
(764,593,o),
(912,763,o),
(912,874,qs),
(912,997,o),
(737,1172,o),
(614,1172,qs),
(491,1172,o),
(316,997,o),
(316,874,qs),
(316,762,o),
(464,592,o),
(578,578,q),
(578,376,l),
(344,376,l)
);
},
{
closed = 1;
nodes = (
(388,970,o),
(523,1100,o),
(614,1100,qs),
(708,1100,o),
(840,967,o),
(840,874,qs),
(840,782,o),
(709,648,o),
(614,648,qs),
(520,648,o),
(388,780,o),
(388,874,qs)
);
}
);
width = 1229;
}
);
note = female;
unicode = 9792;
},
{
glyphname = male;
lastChange = "2019-12-03 14:54:35 +0000";
layers = (
{
layerId = "BC15D09A-B757-48E3-911F-803B0089DB3F";
shapes = (
{
closed = 1;
nodes = (
(164,289,o),
(339,114,o),
(462,114,qs),
(585,114,o),
(760,289,o),
(760,412,qs),
(760,514,o),
(696,595,q),
(953,852,l),
(973,626,l),
(1028,624,l),
(1028,955,l),
(1005,978,l),
(674,978,l),
(676,923,l),
(902,903,l),
(645,646,l),
(564,710,o),
(462,710,qs),
(339,710,o),
(164,535,o),
(164,412,qs)
);
},
{
closed = 1;
nodes = (
(236,508,o),
(371,638,o),
(462,638,qs),
(556,638,o),
(688,505,o),
(688,412,qs),
(688,320,o),
(557,186,o),
(462,186,qs),
(368,186,o),
(236,318,o),
(236,412,qs)
);
}
);
width = 1229;
}
);
note = male;
unicode = 9794;
},
{
glyphname = spade;
lastChange = "2019-12-03 14:54:35 +0000";
layers = (
{
layerId = "BC15D09A-B757-48E3-911F-803B0089DB3F";
shapes = (
{
closed = 1;
nodes = (
(588,1195,l),
(588,1110,o),
(446,895,o),
(337,810,qs),
(201,701,o),
(102,555,o),
(102,478,qs),
(102,370,o),
(237,240,o),
(337,240,qs),
(396,240,o),
(528,297,o),
(566,340,q),
(566,207,o),
(391,56,o),
(246,56,q),
(246,0,l),
(982,0,l),
(982,56,l),
(837,56,o),
(662,207,o),
(662,340,q),
(699,297,o),
(831,240,o),
(891,240,qs),
(990,240,o),
(1126,370,o),
(1126,478,qs),
(1126,557,o),
(1021,708,o),
(891,810,qs),
(782,896,o),
(640,1109,o),
(640,1195,q)
);
}
);
width = 1229;
}
);
note = spade;
unicode = 9824;
},
{
glyphname = club;
lastChange = "2019-12-03 14:54:35 +0000";
layers = (
{
layerId = "BC15D09A-B757-48E3-911F-803B0089DB3F";
shapes = (
{
closed = 1;
nodes = (
(529,1195,o),
(405,1134,o),
(337,1025,o),
(337,961,qs),
(337,894,o),
(404,761,o),
(455,725,q),
(400,728,l),
(265,728,o),
(97,592,o),
(97,478,qs),
(97,370,o),
(232,240,o),
(332,240,qs),
(395,240,o),
(530,299,o),
(566,340,q),
(566,207,o),
(391,56,o),
(246,56,q),
(246,0,l),
(982,0,l),
(982,56,l),
(837,56,o),
(662,207,o),
(662,340,q),
(699,299,o),
(835,240,o),
(896,240,qs),
(995,240,o),
(1131,370,o),
(1131,478,qs),
(1131,591,o),
(963,728,o),
(828,728,q),
(773,725,l),
(824,761,o),
(891,894,o),
(891,961,qs),
(891,1025,o),
(823,1134,o),
(699,1195,o),
(614,1195,qs)
);
}
);
width = 1229;
}
);
note = club;
unicode = 9827;
},
{
glyphname = heart;
lastChange = "2019-12-03 14:54:35 +0000";
layers = (
{
layerId = "BC15D09A-B757-48E3-911F-803B0089DB3F";
shapes = (
{
closed = 1;
nodes = (
(640,-1,l),
(640,48,o),
(694,167,o),
(783,301,o),
(891,434,qs),
(1126,719,o),
(1126,880,qs),
(1126,949,o),
(1059,1064,o),
(945,1128,o),
(881,1128,qs),
(793,1128,o),
(647,998,o),
(617,898,q),
(611,898,l),
(581,997,o),
(436,1128,o),
(347,1128,qs),
(283,1128,o),
(169,1064,o),
(102,950,o),
(102,880,qs),
(102,719,o),
(337,434,qs),
(469,276,o),
(588,67,o),
(588,-1,q)
);
}
);
width = 1229;
}
);
note = heart;
unicode = 9829;
},
{
glyphname = diamond;
lastChange = "2019-12-03 14:54:35 +0000";
layers = (
{
layerId = "BC15D09A-B757-48E3-911F-803B0089DB3F";
shapes = (
{
closed = 1;
nodes = (
(381,313,o),
(608,-1,q),
(620,-1,l),
(847,313,o),
(1096,597,q),
(1096,600,l),
(847,884,o),
(620,1198,q),
(608,1198,l),
(381,884,o),
(132,600,q),
(132,597,l)
);
}
);
width = 1229;
}
);
note = diamond;
unicode = 9830;
},
{
glyphname = musicalnote;
lastChange = "2019-12-03 14:54:35 +0000";
layers = (
{
layerId = "BC15D09A-B757-48E3-911F-803B0089DB3F";
shapes = (
{
closed = 1;
nodes = (
(834,272,l),
(882,323,o),
(937,459,o),
(937,531,qs),
(937,633,o),
(860,798,o),
(773,887,qs),
(652,1010,o),
(640,1126,q),
(602,1126,l),
(602,290,l),
(560,313,o),
(502,313,qs),
(419,313,o),
(282,213,o),
(282,148,qs),
(282,92,o),
(373,24,o),
(442,24,qs),
(528,24,o),
(664,123,o),
(664,191,qs),
(664,789,l),
(754,759,o),
(864,594,o),
(864,490,qs),
(864,425,o),
(823,310,o),
(788,272,q)
);
}
);
width = 1229;
}
);
note = musicalnote;
unicode = 9834;
},
{
glyphname = musicalnotedbl;
lastChange = "2019-12-03 14:54:35 +0000";
layers = (
{
layerId = "BC15D09A-B757-48E3-911F-803B0089DB3F";
shapes = (
{
closed = 1;
nodes = (
(948,44,o),
(1084,143,o),
(1084,211,qs),
(1084,1155,l),
(432,1055,l),
(432,220,l),
(390,243,o),
(332,243,qs),
(249,243,o),
(112,143,o),
(112,78,qs),
(112,22,o),
(203,-46,o),
(272,-46,qs),
(358,-46,o),
(494,53,o),
(494,121,qs),
(494,664,l),
(1022,745,l),
(1022,310,l),
(980,333,o),
(922,333,qs),
(839,333,o),
(702,233,o),
(702,168,qs),
(702,112,o),
(793,44,o),
(862,44,qs)
);
},
{
closed = 1;
nodes = (
(494,924,l),
(1022,1005,l),
(1022,885,l),
(494,804,l)
);
}
);
width = 1229;
}
);
note = musicalnotedbl;
unicode = 9835;
},
{
glyphname = IJ;
lastChange = "2019-12-03 14:54:35 +0000";
layers = (
{
layerId = "BC15D09A-B757-48E3-911F-803B0089DB3F";
shapes = (
{
closed = 1;
nodes = (
(98,0,l),
(289,0,l),
(289,1349,l),
(98,1349,l)
);
},
{
closed = 1;
nodes = (
(686,135,o),
(583,252,o),
(563,381,q),
(377,350,l),
(414,153,o),
(599,-20,o),
(767,-20,qs),
(955,-20,o),
(1157,209,o),
(1157,420,qs),
(1157,1349,l),
(696,1349,l),
(696,1193,l),
(967,1193,l),
(967,416,ls),
(967,278,o),
(872,135,o),
(768,135,qs)
);
}
);
width = 1229;
}
);
note = IJ;
unicode = 306;
},
{
glyphname = ij;
lastChange = "2019-12-03 14:54:35 +0000";
layers = (
{
layerId = "BC15D09A-B757-48E3-911F-803B0089DB3F";
shapes = (
{
closed = 1;
nodes = (
(236,0,l),
(416,0,l),
(416,1082,l),
(237,1082,l)
);
},
{
closed = 1;
nodes = (
(416,1292,l),
(416,1484,l),
(216,1484,l),
(216,1292,l)
);
},
{
closed = 1;
nodes = (
(881,-25,ls),
(881,-144,o),
(743,-276,o),
(615,-276,qs),
(492,-276,o),
(342,-242,q),
(342,-382,l),
(387,-399,o),
(551,-425,o),
(630,-425,qs),
(837,-425,o),
(1061,-215,o),
(1061,-28,qs),
(1061,1082,l),
(881,1082,l)
);
},
{
closed = 1;
nodes = (
(1061,1292,l),
(1061,1484,l),
(861,1484,l),
(861,1292,l)
);
}
);
width = 1229;
}
);
note = ij;
unicode = 307;
},
{
glyphname = minute;
lastChange = "2019-12-03 14:54:35 +0000";
layers = (
{
layerId = "BC15D09A-B757-48E3-911F-803B0089DB3F";
shapes = (
{
closed = 1;
nodes = (
(726,1484,l),
(502,1484,l),
(543,845,l),
(684,845,l)
);
}
);
width = 1229;
}
);
note = minute;
unicode = 8242;
},
{
glyphname = second;
lastChange = "2019-12-03 14:54:35 +0000";
layers = (
{
layerId = "BC15D09A-B757-48E3-911F-803B0089DB3F";
shapes = (
{
closed = 1;
nodes = (
(950,1484,l),
(726,1484,l),
(766,845,l),
(908,845,l)
);
},
{
closed = 1;
nodes = (
(501,1484,l),
(277,1484,l),
(318,845,l),
(459,845,l)
);
}
);
width = 1229;
}
);
note = second;
unicode = 8243;
},
{
glyphname = uni2105;
lastChange = "2019-12-03 14:54:35 +0000";
layers = (
{
layerId = "BC15D09A-B757-48E3-911F-803B0089DB3F";
shapes = (
{
closed = 1;
nodes = (
(1229,825,o),
(963,825,qs),
(827,825,o),
(694,615,o),
(694,404,qs),
(694,203,o),
(831,-12,o),
(959,-12,qs),
(1087,-12,o),
(1229,203,o),
(1229,404,qs)
);
},
{
closed = 1;
nodes = (
(1081,246,o),
(1022,98,o),
(961,98,qs),
(898,98,o),
(841,250,o),
(841,404,qs),
(841,568,o),
(897,714,o),
(963,714,qs),
(1025,714,o),
(1081,569,o),
(1081,404,qs)
);
},
{
closed = 1;
nodes = (
(146,1247,o),
(271,1247,qs),
(316,1247,o),
(359,1162,o),
(369,1090,q),
(512,1101,l),
(491,1225,o),
(369,1360,o),
(275,1360,qs),
(140,1360,o),
(0,1144,o),
(0,942,qs),
(0,745,o),
(141,522,o),
(276,522,qs),
(374,522,o),
(504,675,o),
(517,796,q),
(376,805,l),
(355,636,o),
(272,636,qs),
(215,636,o),
(146,801,o),
(146,945,qs)
);
},
{
closed = 1;
nodes = (
(1022,1349,l),
(907,1349,l),
(204,0,l),
(322,0,l)
);
}
);
width = 1229;
}
);
note = uni2105;
unicode = 8453;
},
{
glyphname = uni2113;
lastChange = "2019-12-03 14:54:35 +0000";
layers = (
{
layerId = "BC15D09A-B757-48E3-911F-803B0089DB3F";
shapes = (
{
closed = 1;
nodes = (
(656,78,o),
(584,197,o),
(584,298,qs),
(584,542,l),
(727,624,o),
(903,944,o),
(903,1129,qs),
(903,1266,o),
(777,1429,o),
(672,1429,qs),
(549,1429,o),
(418,1277,o),
(418,1130,qs),
(418,543,l),
(365,515,o),
(286,484,q),
(286,411,l),
(367,442,o),
(418,469,q),
(418,294,ls),
(418,146,o),
(551,-20,o),
(666,-20,qs),
(885,-20,o),
(925,291,q),
(856,291,l),
(839,182,o),
(761,78,o),
(710,78,qs)
);
},
{
closed = 1;
nodes = (
(812,966,o),
(686,691,o),
(584,622,q),
(584,1129,ls),
(584,1250,o),
(635,1353,o),
(685,1353,qs),
(740,1353,o),
(812,1221,o),
(812,1122,qs)
);
}
);
width = 1229;
}
);
note = uni2113;
unicode = 8467;
},
{
glyphname = uni25A1;
lastChange = "2019-12-03 14:54:35 +0000";
layers = (
{
layerId = "BC15D09A-B757-48E3-911F-803B0089DB3F";
shapes = (
{
closed = 1;
nodes = (
(2,0,l),
(1227,0,l),
(1227,1225,l),
(2,1225,l)
);
},
{
closed = 1;
nodes = (
(1151,1149,l),
(1151,76,l),
(78,76,l),
(78,1149,l)
);
}
);
width = 1229;
}
);
note = uni25A1;
unicode = 9633;
},
{
glyphname = uni25AA;
lastChange = "2019-12-03 14:54:35 +0000";
layers = (
{
layerId = "BC15D09A-B757-48E3-911F-803B0089DB3F";
shapes = (
{
closed = 1;
nodes = (
(868,891,l),
(360,891,l),
(360,383,l),
(868,383,l)
);
}
);
width = 1229;
}
);
note = uni25AA;
unicode = 9642;
},
{
glyphname = uni25AB;
lastChange = "2019-12-03 14:54:35 +0000";
layers = (
{
layerId = "BC15D09A-B757-48E3-911F-803B0089DB3F";
shapes = (
{
closed = 1;
nodes = (
(868,891,l),
(360,891,l),
(360,383,l),
(868,383,l)
);
},
{
closed = 1;
nodes = (
(436,459,l),
(436,813,l),
(792,813,l),
(792,459,l)
);
}
);
width = 1229;
}
);
note = uni25AB;
unicode = 9643;
},
{
glyphname = uni25CF;
lastChange = "2019-12-03 14:54:35 +0000";
layers = (
{
layerId = "BC15D09A-B757-48E3-911F-803B0089DB3F";
shapes = (
{
closed = 1;
nodes = (
(500,1018,o),
(285,899,o),
(174,686,o),
(174,578,qs),
(174,396,o),
(432,137,o),
(614,137,qs),
(797,137,o),
(1055,395,o),
(1055,578,qs),
(1055,684,o),
(941,902,o),
(724,1018,o),
(614,1018,qs)
);
}
);
width = 1229;
}
);
note = uni25CF;
unicode = 9679;
},
{
glyphname = openbullet;
lastChange = "2019-12-03 14:54:35 +0000";
layers = (
{
layerId = "BC15D09A-B757-48E3-911F-803B0089DB3F";
shapes = (
{
closed = 1;
nodes = (
(862,740,o),
(788,811,qs),
(717,885,o),
(614,885,qs),
(513,885,o),
(366,740,o),
(366,637,qs),
(366,568,o),
(434,454,o),
(546,389,o),
(614,389,qs),
(711,389,o),
(862,530,o),
(862,637,qs)
);
},
{
closed = 1;
nodes = (
(786,570,o),
(691,465,o),
(614,465,qs),
(540,465,o),
(442,566,o),
(442,637,qs),
(442,707,o),
(544,809,o),
(614,809,qs),
(684,809,o),
(786,707,o),
(786,637,qs)
);
}
);
width = 1229;
}
);
note = openbullet;
unicode = 9702;
},
{
glyphname = hcircumflex;
lastChange = "2019-12-03 14:54:35 +0000";
layers = (
{
layerId = "BC15D09A-B757-48E3-911F-803B0089DB3F";
shapes = (
{
closed = 1;
nodes = (
(185,0,l),
(365,0,l),
(365,567,ls),
(365,722,o),
(524,903,o),
(648,903,qs),
(763,903,o),
(868,771,o),
(868,635,qs),
(868,0,l),
(1049,0,l),
(1049,661,ls),
(1049,1042,o),
(699,1042,qs),
(465,1042,o),
(360,837,q),
(357,837,l),
(366,975,o),
(366,1034,qs),
(366,1349,l),
(185,1349,l)
);
},
{
closed = 1;
nodes = (
(701,1705,l),
(537,1705,l),
(283,1465,l),
(283,1445,l),
(387,1445,l),
(619,1584,l),
(621,1584,l),
(840,1445,l),
(945,1445,l),
(945,1465,l)
);
}
);
width = 1229;
}
);
note = hcircumflex;
unicode = 293;
},
{
glyphname = Hbar;
lastChange = "2019-12-03 14:54:35 +0000";
layers = (
{
layerId = "BC15D09A-B757-48E3-911F-803B0089DB3F";
shapes = (
{
closed = 1;
nodes = (
(2,1153,l),
(2,1005,l),
(162,1005,l),
(162,0,l),
(353,0,l),
(353,623,l),
(875,623,l),
(875,0,l),
(1066,0,l),
(1066,1005,l),
(1226,1005,l),
(1226,1153,l),
(1066,1153,l),
(1066,1349,l),
(875,1349,l),
(875,1153,l),
(353,1153,l),
(353,1349,l),
(162,1349,l),
(162,1153,l)
);
},
{
closed = 1;
nodes = (
(353,783,l),
(353,1005,l),
(875,1005,l),
(875,783,l)
);
}
);
width = 1229;
}
);
note = Hbar;
unicode = 294;
},
{
glyphname = hbar;
lastChange = "2019-12-03 14:54:35 +0000";
layers = (
{
layerId = "BC15D09A-B757-48E3-911F-803B0089DB3F";
shapes = (
{
closed = 1;
nodes = (
(185,1327,l),
(53,1327,l),
(53,1196,l),
(185,1196,l),
(185,0,l),
(365,0,l),
(365,597,ls),
(365,752,o),
(524,933,o),
(648,933,qs),
(763,933,o),
(868,801,o),
(868,665,qs),
(868,0,l),
(1049,0,l),
(1049,691,ls),
(1049,1072,o),
(699,1072,qs),
(465,1072,o),
(360,867,q),
(357,867,l),
(366,1005,o),
(366,1064,qs),
(366,1196,l),
(665,1196,l),
(665,1327,l),
(366,1327,l),
(366,1484,l),
(185,1484,l)
);
}
);
width = 1229;
}
);
note = hbar;
unicode = 295;
},
{
glyphname = kgreenlandic;
lastChange = "2019-12-03 14:54:35 +0000";
layers = (
{
layerId = "BC15D09A-B757-48E3-911F-803B0089DB3F";
shapes = (
{
closed = 1;
nodes = (
(1125,0,l),
(663,617,l),
(1102,1082,l),
(891,1082,l),
(416,544,l),
(416,1082,l),
(236,1082,l),
(236,0,l),
(416,0,l),
(416,396,l),
(548,494,l),
(914,0,l)
);
}
);
width = 1229;
}
);
note = kgreenlandic;
unicode = 312;
},
{
glyphname = Eng;
lastChange = "2019-12-03 14:54:35 +0000";
layers = (
{
layerId = "BC15D09A-B757-48E3-911F-803B0089DB3F";
shapes = (
{
closed = 1;
nodes = (
(1109,989,ls),
(1109,1370,o),
(746,1370,qs),
(466,1370,o),
(360,1165,q),
(357,1165,l),
(355,1244,o),
(352,1301,o),
(350,1345,o),
(349,1350,q),
(179,1350,l),
(185,1308,o),
(185,1119,qs),
(185,0,l),
(365,0,l),
(365,895,ls),
(365,1048,o),
(547,1231,o),
(688,1231,qs),
(812,1231,o),
(928,1100,o),
(928,963,qs),
(928,546,ls),
(928,321,o),
(854,133,o),
(775,133,qs),
(729,133,o),
(659,172,o),
(616,232,q),
(485,132,l),
(547,43,o),
(678,-20,o),
(770,-20,qs),
(947,-20,o),
(1109,241,o),
(1109,542,qs)
);
}
);
width = 1229;
}
);
note = Eng;
unicode = 330;
},
{
glyphname = eng;
lastChange = "2019-12-03 14:54:35 +0000";
layers = (
{
layerId = "BC15D09A-B757-48E3-911F-803B0089DB3F";
shapes = (
{
closed = 1;
nodes = (
(763,963,o),
(868,831,o),
(868,695,qs),
(868,-107,ls),
(868,-211,o),
(812,-283,o),
(743,-283,q),
(681,-277,l),
(681,-416,l),
(731,-425,o),
(808,-425,qs),
(929,-425,o),
(1049,-285,o),
(1049,-134,qs),
(1049,721,ls),
(1049,915,o),
(879,1102,o),
(706,1102,qs),
(465,1102,o),
(360,897,q),
(357,897,l),
(355,976,o),
(352,1033,o),
(350,1077,o),
(349,1082,q),
(179,1082,l),
(185,1040,o),
(185,851,qs),
(185,0,l),
(365,0,l),
(365,627,ls),
(365,782,o),
(524,963,o),
(648,963,qs)
);
}
);
width = 1229;
}
);
note = eng;
unicode = 331;
},
{
glyphname = Tbar;
lastChange = "2019-12-03 14:54:35 +0000";
layers = (
{
layerId = "BC15D09A-B757-48E3-911F-803B0089DB3F";
shapes = (
{
closed = 1;
nodes = (
(1152,1193,l),
(1152,1349,l),
(76,1349,l),
(76,1193,l),
(519,1193,l),
(519,769,l),
(279,769,l),
(279,620,l),
(519,620,l),
(519,0,l),
(709,0,l),
(709,620,l),
(949,620,l),
(949,769,l),
(709,769,l),
(709,1193,l)
);
}
);
width = 1229;
}
);
note = Tbar;
unicode = 358;
},
{
glyphname = tbar;
lastChange = "2019-12-03 14:54:35 +0000";
layers = (
{
layerId = "BC15D09A-B757-48E3-911F-803B0089DB3F";
shapes = (
{
closed = 1;
nodes = (
(548,647,l),
(548,940,l),
(980,940,l),
(980,1082,l),
(548,1082,l),
(548,1364,l),
(428,1364,l),
(370,1082,l),
(200,1082,l),
(200,940,l),
(368,940,l),
(368,647,l),
(200,647,l),
(200,515,l),
(368,515,l),
(368,269,ls),
(368,121,o),
(530,-16,o),
(692,-16,qs),
(858,-16,o),
(1027,30,q),
(1027,167,l),
(864,133,o),
(730,133,qs),
(633,133,o),
(548,209,o),
(548,288,qs),
(548,515,l),
(980,515,l),
(980,647,l)
);
}
);
width = 1229;
}
);
note = tbar;
unicode = 359;
},
{
glyphname = longs;
lastChange = "2019-12-03 14:54:35 +0000";
layers = (
{
layerId = "BC15D09A-B757-48E3-911F-803B0089DB3F";
shapes = (
{
closed = 1;
nodes = (
(580,1092,ls),
(580,1185,o),
(629,1289,o),
(735,1335,o),
(839,1335,qs),
(886,1335,o),
(1069,1323,o),
(1099,1318,q),
(1099,1463,l),
(1057,1471,o),
(890,1484,o),
(818,1484,qs),
(593,1484,o),
(400,1312,o),
(400,1107,qs),
(400,0,l),
(580,0,l)
);
}
);
width = 1229;
}
);
note = longs;
unicode = 383;
},
{
glyphname = Aringacute;
lastChange = "2019-12-03 14:54:35 +0000";
layers = (
{
layerId = "BC15D09A-B757-48E3-911F-803B0089DB3F";
shapes = (
{
closed = 1;
nodes = (
(856,1299,o),
(725,1410,o),
(614,1410,qs),
(505,1410,o),
(372,1300,o),
(372,1211,qs),
(372,1104,o),
(465,1047,q),
(0,0,l),
(196,0,l),
(333,323,l),
(896,323,l),
(1034,0,l),
(1228,0,l),
(769,1051,l),
(856,1108,o),
(856,1211,qs)
);
},
{
closed = 1;
nodes = (
(635,982,o),
(701,811,qs),
(836,476,l),
(395,476,l),
(535,811,ls),
(556,858,o),
(593,970,qs),
(607,1011,l),
(625,1011,l)
);
},
{
closed = 1;
nodes = (
(649,1445,l),
(949,1676,l),
(949,1705,l),
(752,1705,l),
(525,1465,l),
(525,1445,l)
);
},
{
closed = 1;
nodes = (
(735,1173,o),
(670,1127,o),
(614,1127,qs),
(559,1127,o),
(492,1173,o),
(492,1211,qs),
(492,1248,o),
(559,1294,o),
(614,1294,qs),
(670,1294,o),
(735,1248,o),
(735,1211,qs)
);
}
);
width = 1229;
}
);
note = Aringacute;
unicode = 506;
},
{
glyphname = aringacute;
lastChange = "2019-12-03 14:54:35 +0000";
layers = (
{
layerId = "BC15D09A-B757-48E3-911F-803B0089DB3F";
shapes = (
{
closed = 1;
nodes = (
(846,1344,o),
(715,1455,o),
(604,1455,qs),
(495,1455,o),
(362,1345,o),
(362,1256,qs),
(362,1206,o),
(410,1118,o),
(459,1090,q),
(212,1043,o),
(176,810,q),
(364,793,l),
(374,881,o),
(478,965,o),
(596,965,qs),
(712,965,o),
(818,850,o),
(818,719,qs),
(818,660,l),
(582,656,ls),
(128,651,o),
(128,302,qs),
(128,152,o),
(288,-20,o),
(446,-20,qs),
(576,-20,o),
(753,86,o),
(818,207,q),
(824,207,l),
(830,95,o),
(921,-10,o),
(1021,-10,qs),
(1092,-10,o),
(1160,6,q),
(1160,118,l),
(1127,111,o),
(1101,111,qs),
(1042,111,o),
(1000,192,o),
(1000,272,qs),
(1000,738,ls),
(1000,1026,o),
(742,1086,q),
(795,1114,o),
(846,1204,o),
(846,1256,qs)
);
},
{
closed = 1;
nodes = (
(406,117,o),
(317,217,o),
(317,299,qs),
(317,381,o),
(386,480,o),
(510,528,o),
(628,530,qs),
(818,534,l),
(818,445,ls),
(818,363,o),
(736,209,o),
(588,117,o),
(492,117,qs)
);
},
{
closed = 1;
nodes = (
(632,1496,l),
(932,1676,l),
(932,1705,l),
(735,1705,l),
(508,1516,l),
(508,1496,l)
);
},
{
closed = 1;
nodes = (
(725,1218,o),
(660,1172,o),
(604,1172,qs),
(549,1172,o),
(482,1218,o),
(482,1256,qs),
(482,1293,o),
(549,1339,o),
(604,1339,qs),
(660,1339,o),
(725,1293,o),
(725,1256,qs)
);
}
);
width = 1229;
}
);
note = aringacute;
unicode = 507;
},
{
glyphname = anoteleia;
lastChange = "2019-12-03 14:54:35 +0000";
layers = (
{
layerId = "BC15D09A-B757-48E3-911F-803B0089DB3F";
shapes = (
{
closed = 1;
nodes = (
(731,420,l),
(731,719,l),
(496,719,l),
(496,420,l)
);
}
);
width = 1229;
}
);
note = anoteleia;
unicode = 903;
},
{
glyphname = quotereversed;
lastChange = "2019-12-03 14:54:35 +0000";
layers = (
{
layerId = "BC15D09A-B757-48E3-911F-803B0089DB3F";
shapes = (
{
closed = 1;
nodes = (
(832,862,l),
(663,1484,l),
(398,1484,l),
(709,862,l)
);
}
);
width = 1229;
}
);
note = quotereversed;
unicode = 8219;
},
{
glyphname = lira;
lastChange = "2019-12-03 14:54:35 +0000";
layers = (
{
layerId = "BC15D09A-B757-48E3-911F-803B0089DB3F";
shapes = (
{
closed = 1;
nodes = (
(963,329,l),
(934,153,o),
(760,153,qs),
(277,153,l),
(446,241,o),
(446,456,qs),
(446,463,l),
(854,463,l),
(854,605,l),
(446,605,l),
(446,757,l),
(854,757,l),
(854,898,l),
(446,898,l),
(446,982,ls),
(446,1107,o),
(558,1222,o),
(672,1222,qs),
(744,1222,o),
(855,1146,o),
(875,1083,q),
(1049,1140,l),
(1015,1249,o),
(815,1370,o),
(668,1370,qs),
(472,1370,o),
(266,1169,o),
(266,974,qs),
(266,898,l),
(80,898,l),
(80,757,l),
(266,757,l),
(266,605,l),
(80,605,l),
(80,463,l),
(266,463,l),
(266,438,ls),
(266,331,o),
(194,208,o),
(91,154,q),
(91,0,l),
(789,0,ls),
(933,0,o),
(1109,161,o),
(1126,311,q)
);
}
);
width = 1229;
}
);
note = lira;
unicode = 8356;
},
{
glyphname = estimated;
lastChange = "2019-12-03 14:54:35 +0000";
layers = (
{
layerId = "BC15D09A-B757-48E3-911F-803B0089DB3F";
shapes = (
{
closed = 1;
nodes = (
(775,-34,o),
(995,88,o),
(1093,243,q),
(1021,285,l),
(943,159,o),
(758,51,o),
(626,51,qs),
(541,51,o),
(378,121,o),
(328,175,q),
(328,531,l),
(1155,531,l),
(1155,696,o),
(1021,954,o),
(778,1096,o),
(626,1096,qs),
(476,1096,o),
(229,952,o),
(95,697,o),
(95,531,qs),
(95,374,o),
(228,111,o),
(468,-34,o),
(626,-34,qs)
);
},
{
closed = 1;
nodes = (
(328,616,l),
(328,894,l),
(445,1011,o),
(624,1011,qs),
(711,1011,o),
(873,946,o),
(924,893,q),
(924,616,l)
);
}
);
width = 1229;
}
);
note = estimated;
unicode = 8494;
},
{
glyphname = undercommaaccent;
lastChange = "2019-12-03 14:54:35 +0000";
layers = (
{
layerId = "BC15D09A-B757-48E3-911F-803B0089DB3F";
shapes = (
{
closed = 1;
nodes = (
(580,-423,l),
(751,-135,l),
(751,-98,l),
(554,-98,l),
(475,-390,l),
(475,-423,l)
);
}
);
width = 1229;
}
);
note = undercommaaccent;
},
{
glyphname = tonos;
lastChange = "2019-12-03 14:54:35 +0000";
layers = (
{
layerId = "BC15D09A-B757-48E3-911F-803B0089DB3F";
shapes = (
{
closed = 1;
nodes = (
(580,1201,l),
(751,1489,l),
(751,1526,l),
(554,1526,l),
(475,1234,l),
(475,1201,l)
);
}
);
width = 1229;
}
);
note = tonos;
unicode = 900;
},
{
glyphname = dieresistonos;
lastChange = "2019-12-03 14:54:35 +0000";
layers = (
{
layerId = "BC15D09A-B757-48E3-911F-803B0089DB3F";
shapes = (
{
closed = 1;
nodes = (
(626,1201,l),
(772,1564,l),
(772,1601,l),
(575,1601,l),
(521,1234,l),
(521,1201,l)
);
},
{
closed = 1;
nodes = (
(918,1219,l),
(918,1403,l),
(775,1403,l),
(775,1219,l)
);
},
{
closed = 1;
nodes = (
(456,1219,l),
(456,1403,l),
(311,1403,l),
(311,1219,l)
);
}
);
width = 1229;
}
);
note = dieresistonos;
unicode = 901;
},
{
glyphname = Etatonos;
lastChange = "2019-12-03 14:54:35 +0000";
layers = (
{
layerId = "BC15D09A-B757-48E3-911F-803B0089DB3F";
shapes = (
{
closed = 1;
nodes = (
(1129,0,l),
(1129,1349,l),
(943,1349,l),
(943,783,l),
(519,783,l),
(519,1349,l),
(328,1349,l),
(328,0,l),
(519,0,l),
(519,623,l),
(943,623,l),
(943,0,l)
);
},
{
closed = 1;
nodes = (
(105,1024,l),
(276,1312,l),
(276,1349,l),
(79,1349,l),
(0,1057,l),
(0,1024,l)
);
}
);
width = 1229;
}
);
note = Etatonos;
unicode = 905;
},
{
glyphname = Upsilontonos;
lastChange = "2019-12-03 14:54:35 +0000";
layers = (
{
layerId = "BC15D09A-B757-48E3-911F-803B0089DB3F";
shapes = (
{
closed = 1;
nodes = (
(1199,1349,l),
(998,1349,l),
(752,748,l),
(504,1349,l),
(303,1349,l),
(657,584,l),
(657,0,l),
(845,0,l),
(845,584,l)
);
},
{
closed = 1;
nodes = (
(105,1024,l),
(276,1312,l),
(276,1349,l),
(79,1349,l),
(0,1057,l),
(0,1024,l)
);
}
);
width = 1229;
}
);
note = Upsilontonos;
unicode = 910;
},
{
glyphname = Omegatonos;
lastChange = "2019-12-03 14:54:35 +0000";
layers = (
{
layerId = "BC15D09A-B757-48E3-911F-803B0089DB3F";
shapes = (
{
closed = 1;
nodes = (
(505,1370,o),
(277,1222,o),
(151,948,o),
(151,771,qs),
(151,567,o),
(316,246,o),
(468,145,q),
(373,156,o),
(327,156,qs),
(127,156,l),
(127,0,l),
(590,0,l),
(590,224,l),
(466,316,o),
(346,569,o),
(346,758,qs),
(346,975,o),
(506,1214,o),
(654,1214,qs),
(802,1214,o),
(960,973,o),
(960,758,qs),
(960,569,o),
(840,315,o),
(716,224,q),
(716,0,l),
(1179,0,l),
(1179,156,l),
(979,156,ls),
(933,156,o),
(838,145,q),
(990,247,o),
(1155,568,o),
(1155,771,qs),
(1155,1042,o),
(880,1370,o),
(653,1370,qs)
);
},
{
closed = 1;
nodes = (
(55,1024,l),
(226,1312,l),
(226,1349,l),
(29,1349,l),
(-50,1057,l),
(-50,1024,l)
);
}
);
width = 1229;
}
);
note = Omegatonos;
unicode = 911;
},
{
glyphname = Delta;
lastChange = "2019-12-03 14:54:35 +0000";
layers = (
{
layerId = "BC15D09A-B757-48E3-911F-803B0089DB3F";
shapes = (
{
closed = 1;
nodes = (
(1216,0,l),
(1216,147,l),
(733,1349,l),
(489,1349,l),
(12,145,l),
(12,0,l)
);
},
{
closed = 1;
nodes = (
(623,1183,ls),
(659,1068,o),
(710,937,qs),
(1024,156,l),
(204,156,l),
(499,898,o),
(546,1019,o),
(609,1204,o),
(612,1214,q)
);
}
);
width = 1229;
}
);
note = Delta;
unicode = 916;
},
{
glyphname = Lambda;
lastChange = "2019-12-03 14:54:35 +0000";
layers = (
{
layerId = "BC15D09A-B757-48E3-911F-803B0089DB3F";
shapes = (
{
closed = 1;
nodes = (
(713,1349,l),
(515,1349,l),
(10,0,l),
(211,0,l),
(531,902,ls),
(562,988,o),
(615,1181,q),
(651,1046,o),
(699,902,qs),
(1017,0,l),
(1218,0,l)
);
}
);
width = 1229;
}
);
note = Lambda;
unicode = 923;
},
{
glyphname = Xi;
lastChange = "2019-12-03 14:54:35 +0000";
layers = (
{
layerId = "BC15D09A-B757-48E3-911F-803B0089DB3F";
shapes = (
{
closed = 1;
nodes = (
(1074,1193,l),
(1074,1349,l),
(155,1349,l),
(155,1193,l)
);
},
{
closed = 1;
nodes = (
(1094,0,l),
(1094,156,l),
(135,156,l),
(135,0,l)
);
},
{
closed = 1;
nodes = (
(280,771,l),
(280,617,l),
(949,617,l),
(949,771,l)
);
}
);
width = 1229;
}
);
note = Xi;
unicode = 926;
},
{
glyphname = Pi;
lastChange = "2019-12-03 14:54:35 +0000";
layers = (
{
layerId = "BC15D09A-B757-48E3-911F-803B0089DB3F";
shapes = (
{
closed = 1;
nodes = (
(354,0,l),
(354,1193,l),
(875,1193,l),
(875,0,l),
(1066,0,l),
(1066,1349,l),
(163,1349,l),
(163,0,l)
);
}
);
width = 1229;
}
);
note = Pi;
unicode = 928;
},
{
glyphname = Sigma;
lastChange = "2019-12-03 14:54:35 +0000";
layers = (
{
layerId = "BC15D09A-B757-48E3-911F-803B0089DB3F";
shapes = (
{
closed = 1;
nodes = (
(1185,0,l),
(1185,156,l),
(308,156,l),
(798,654,l),
(798,778,l),
(340,1193,l),
(1124,1193,l),
(1124,1349,l),
(125,1349,l),
(125,1188,l),
(646,711,l),
(108,162,l),
(108,0,l)
);
}
);
width = 1229;
}
);
note = Sigma;
unicode = 931;
},
{
glyphname = Psi;
lastChange = "2019-12-03 14:54:35 +0000";
layers = (
{
layerId = "BC15D09A-B757-48E3-911F-803B0089DB3F";
shapes = (
{
closed = 1;
nodes = (
(692,0,l),
(692,397,l),
(750,397,ls),
(952,397,o),
(1180,676,o),
(1180,916,qs),
(1180,1349,l),
(1019,1349,l),
(1019,912,ls),
(1019,733,o),
(876,533,o),
(743,533,qs),
(692,533,l),
(692,1349,l),
(537,1349,l),
(537,533,l),
(486,533,ls),
(354,533,o),
(210,730,o),
(210,912,qs),
(210,1349,l),
(49,1349,l),
(49,916,ls),
(49,676,o),
(276,397,o),
(479,397,qs),
(537,397,l),
(537,0,l)
);
}
);
width = 1229;
}
);
note = Psi;
unicode = 936;
},
{
glyphname = Omega;
lastChange = "2019-12-03 14:54:35 +0000";
layers = (
{
layerId = "BC15D09A-B757-48E3-911F-803B0089DB3F";
shapes = (
{
closed = 1;
nodes = (
(370,1370,o),
(83,1047,o),
(83,771,qs),
(83,583,o),
(257,254,o),
(420,145,q),
(303,156,o),
(259,156,qs),
(59,156,l),
(59,0,l),
(542,0,l),
(542,224,l),
(409,322,o),
(278,585,o),
(278,758,qs),
(278,978,o),
(448,1214,o),
(616,1214,qs),
(780,1214,o),
(952,982,o),
(952,758,qs),
(952,586,o),
(822,322,o),
(688,224,q),
(688,0,l),
(1171,0,l),
(1171,156,l),
(971,156,ls),
(927,156,o),
(810,145,q),
(973,253,o),
(1147,582,o),
(1147,771,qs),
(1147,1046,o),
(860,1370,o),
(615,1370,qs)
);
}
);
width = 1229;
}
);
note = Omega;
unicode = 937;
},
{
glyphname = beta;
lastChange = "2019-12-03 14:54:35 +0000";
layers = (
{
layerId = "BC15D09A-B757-48E3-911F-803B0089DB3F";
shapes = (
{
closed = 1;
nodes = (
(1127,562,o),
(957,766,o),
(809,795,q),
(1032,882,o),
(1032,1135,qs),
(1032,1301,o),
(823,1484,o),
(626,1484,qs),
(400,1484,o),
(172,1264,o),
(172,1027,qs),
(172,-425,l),
(352,-425,l),
(352,-128,ls),
(352,-40,o),
(346,74,q),
(352,74,l),
(487,-20,o),
(670,-20,qs),
(890,-20,o),
(1127,207,o),
(1127,405,qs)
);
},
{
closed = 1;
nodes = (
(859,1002,o),
(703,856,o),
(552,845,q),
(552,703,l),
(749,703,o),
(955,545,o),
(955,402,qs),
(955,267,o),
(803,113,o),
(662,113,qs),
(581,113,o),
(416,162,o),
(352,205,q),
(352,1021,ls),
(352,1188,o),
(481,1343,o),
(628,1343,qs),
(738,1343,o),
(859,1231,o),
(859,1133,qs)
);
}
);
width = 1229;
}
);
note = beta;
unicode = 946;
},
{
glyphname = gamma;
lastChange = "2019-12-03 14:54:35 +0000";
layers = (
{
layerId = "BC15D09A-B757-48E3-911F-803B0089DB3F";
shapes = (
{
closed = 1;
nodes = (
(53,1082,l),
(524,11,l),
(460,-232,o),
(435,-424,q),
(626,-424,l),
(662,-129,o),
(731,53,q),
(1168,1082,l),
(971,1082,l),
(677,334,o),
(623,192,o),
(617,171,q),
(613,189,o),
(539,393,o),
(526,425,qs),
(255,1082,l)
);
}
);
width = 1229;
}
);
note = gamma;
unicode = 947;
},
{
glyphname = zeta;
lastChange = "2019-12-03 14:54:35 +0000";
layers = (
{
layerId = "BC15D09A-B757-48E3-911F-803B0089DB3F";
shapes = (
{
closed = 1;
nodes = (
(375,490,o),
(511,763,o),
(799,1103,o),
(1067,1346,q),
(1067,1484,l),
(265,1484,l),
(265,1342,l),
(727,1342,ls),
(812,1342,o),
(884,1348,q),
(884,1342,l),
(518,1026,o),
(184,550,o),
(184,361,qs),
(184,268,o),
(276,124,o),
(461,29,o),
(635,-6,qs),
(814,-41,o),
(948,-115,o),
(948,-166,qs),
(948,-194,o),
(916,-276,o),
(893,-307,q),
(1019,-363,l),
(1102,-222,o),
(1102,-121,qs),
(1102,-57,o),
(1031,42,o),
(882,114,o),
(729,149,qs),
(605,178,ls),
(490,202,o),
(375,301,o),
(375,379,qs)
);
}
);
width = 1229;
}
);
note = zeta;
unicode = 950;
},
{
glyphname = eta;
lastChange = "2019-12-03 14:54:35 +0000";
layers = (
{
layerId = "BC15D09A-B757-48E3-911F-803B0089DB3F";
shapes = (
{
closed = 1;
nodes = (
(1049,-425,l),
(1049,721,ls),
(1049,915,o),
(879,1102,o),
(706,1102,qs),
(465,1102,o),
(360,897,q),
(357,897,l),
(355,976,o),
(352,1033,o),
(350,1077,o),
(349,1082,q),
(179,1082,l),
(185,1040,o),
(185,851,qs),
(185,0,l),
(365,0,l),
(365,627,ls),
(365,782,o),
(524,963,o),
(648,963,qs),
(763,963,o),
(868,831,o),
(868,695,qs),
(868,-425,l)
);
}
);
width = 1229;
}
);
note = eta;
unicode = 951;
},
{
glyphname = theta;
lastChange = "2019-12-03 14:54:35 +0000";
layers = (
{
layerId = "BC15D09A-B757-48E3-911F-803B0089DB3F";
shapes = (
{
closed = 1;
nodes = (
(1078,1114,o),
(855,1483,o),
(616,1483,qs),
(151,1483,o),
(151,733,qs),
(151,361,o),
(386,-20,o),
(610,-20,qs),
(838,-20,o),
(1078,352,o),
(1078,733,qs)
);
},
{
closed = 1;
nodes = (
(475,113,o),
(346,397,o),
(341,673,q),
(888,673,l),
(883,386,o),
(751,113,o),
(608,113,qs)
);
},
{
closed = 1;
nodes = (
(758,1354,o),
(883,1087,o),
(888,804,q),
(341,804,l),
(347,1087,o),
(477,1354,o),
(619,1354,qs)
);
}
);
width = 1229;
}
);
note = theta;
unicode = 952;
},
{
glyphname = iota;
lastChange = "2019-12-03 14:54:35 +0000";
layers = (
{
layerId = "BC15D09A-B757-48E3-911F-803B0089DB3F";
shapes = (
{
closed = 1;
nodes = (
(648,1082,l),
(149,1082,l),
(149,940,l),
(468,940,l),
(468,349,ls),
(468,157,o),
(634,-20,o),
(811,-20,qs),
(990,-20,o),
(1117,120,q),
(1023,240,l),
(922,134,o),
(812,134,qs),
(728,134,o),
(648,235,o),
(648,346,qs)
);
}
);
width = 1229;
}
);
note = iota;
unicode = 953;
},
{
glyphname = lambda;
lastChange = "2019-12-03 14:54:35 +0000";
layers = (
{
layerId = "BC15D09A-B757-48E3-911F-803B0089DB3F";
shapes = (
{
closed = 1;
nodes = (
(114,0,l),
(301,0,l),
(558,575,ls),
(614,701,o),
(644,791,q),
(652,755,o),
(699,604,o),
(709,577,qs),
(916,0,l),
(1106,0,l),
(679,1141,ls),
(620,1297,o),
(536,1428,o),
(436,1484,o),
(361,1484,qs),
(325,1484,o),
(227,1468,o),
(200,1460,q),
(235,1328,l),
(286,1340,o),
(316,1340,qs),
(366,1340,o),
(424,1301,o),
(477,1201,o),
(563,965,q)
);
}
);
width = 1229;
}
);
note = lambda;
unicode = 955;
},
{
glyphname = mu;
lastChange = "2019-12-03 14:54:35 +0000";
layers = (
{
layerId = "BC15D09A-B757-48E3-911F-803B0089DB3F";
shapes = (
{
closed = 1;
nodes = (
(336,-425,l),
(336,59,l),
(367,21,o),
(476,-20,o),
(543,-20,qs),
(736,-20,o),
(842,174,q),
(845,174,l),
(850,74,o),
(945,-20,o),
(1036,-20,qs),
(1084,-20,o),
(1149,0,q),
(1149,129,l),
(1120,121,o),
(1095,121,qs),
(1052,121,o),
(1017,191,o),
(1017,266,qs),
(1017,1082,l),
(837,1082,l),
(837,455,ls),
(837,293,o),
(691,119,o),
(563,119,qs),
(444,119,o),
(337,258,o),
(337,396,qs),
(337,1082,l),
(156,1082,l),
(156,-425,l)
);
}
);
width = 1229;
}
);
note = mu;
unicode = 956;
},
{
glyphname = nu;
lastChange = "2019-12-03 14:54:35 +0000";
layers = (
{
layerId = "BC15D09A-B757-48E3-911F-803B0089DB3F";
shapes = (
{
closed = 1;
nodes = (
(1078,985,o),
(1026,1082,q),
(849,1082,l),
(898,972,o),
(898,837,qs),
(898,674,o),
(761,339,o),
(612,154,q),
(281,1082,l),
(92,1082,l),
(502,0,l),
(672,0,l),
(866,225,o),
(1078,667,o),
(1078,846,qs)
);
}
);
width = 1229;
}
);
note = nu;
unicode = 957;
},
{
glyphname = xi;
lastChange = "2019-12-03 14:54:35 +0000";
layers = (
{
layerId = "BC15D09A-B757-48E3-911F-803B0089DB3F";
shapes = (
{
closed = 1;
nodes = (
(191,263,o),
(279,122,o),
(462,28,o),
(632,-6,qs),
(786,-36,o),
(905,-106,o),
(905,-161,qs),
(905,-189,o),
(873,-271,o),
(850,-302,q),
(976,-358,l),
(1059,-217,o),
(1059,-121,qs),
(1059,-51,o),
(992,43,o),
(874,105,o),
(726,141,qs),
(604,171,ls),
(494,198,o),
(382,300,o),
(382,379,qs),
(382,523,o),
(693,716,o),
(944,746,q),
(944,877,l),
(703,894,o),
(506,1003,o),
(506,1100,qs),
(506,1196,o),
(728,1317,o),
(987,1348,q),
(987,1484,l),
(253,1484,l),
(253,1342,l),
(347,1342,l),
(631,1350,l),
(631,1342,l),
(473,1316,o),
(328,1188,o),
(328,1082,qs),
(328,966,o),
(525,823,o),
(702,812,q),
(702,810,l),
(541,788,o),
(312,661,o),
(191,470,o),
(191,354,qs)
);
}
);
width = 1229;
}
);
note = xi;
unicode = 958;
},
{
glyphname = rho;
lastChange = "2019-12-03 14:54:35 +0000";
layers = (
{
layerId = "BC15D09A-B757-48E3-911F-803B0089DB3F";
shapes = (
{
closed = 1;
nodes = (
(1108,689,o),
(982,958,o),
(754,1103,o),
(612,1103,qs),
(399,1103,o),
(157,826,o),
(157,581,qs),
(157,-425,l),
(337,-425,l),
(337,0,ls),
(337,63,o),
(333,123,q),
(337,123,l),
(405,45,o),
(564,-20,o),
(671,-20,qs),
(865,-20,o),
(1108,278,o),
(1108,516,qs)
);
},
{
closed = 1;
nodes = (
(915,325,o),
(775,113,o),
(648,113,qs),
(562,113,o),
(396,188,o),
(337,260,q),
(337,577,ls),
(337,970,o),
(600,970,qs),
(744,970,o),
(915,733,o),
(915,524,qs)
);
}
);
width = 1229;
}
);
note = rho;
unicode = 961;
},
{
glyphname = sigma1;
lastChange = "2019-12-03 14:54:35 +0000";
layers = (
{
layerId = "BC15D09A-B757-48E3-911F-803B0089DB3F";
shapes = (
{
closed = 1;
nodes = (
(820,961,o),
(935,836,q),
(1048,950,l),
(986,1024,o),
(801,1102,o),
(688,1102,qs),
(541,1102,o),
(314,947,o),
(176,634,o),
(176,458,qs),
(176,330,o),
(261,161,o),
(438,50,o),
(627,2,qs),
(752,-30,o),
(858,-74,o),
(910,-125,o),
(910,-159,qs),
(910,-187,o),
(878,-269,o),
(855,-300,q),
(981,-356,l),
(1028,-277,o),
(1064,-168,o),
(1064,-124,qs),
(1064,-56,o),
(999,34,o),
(899,94,o),
(778,132,o),
(721,149,qs),
(567,195,o),
(428,276,o),
(367,383,o),
(367,465,qs),
(367,681,o),
(538,961,o),
(688,961,qs)
);
}
);
width = 1229;
}
);
note = sigma1;
unicode = 962;
},
{
glyphname = upsilon;
lastChange = "2019-12-03 14:54:35 +0000";
layers = (
{
layerId = "BC15D09A-B757-48E3-911F-803B0089DB3F";
shapes = (
{
closed = 1;
nodes = (
(1092,688,o),
(1034,964,o),
(981,1082,q),
(793,1082,l),
(834,1004,o),
(907,697,o),
(907,567,qs),
(907,334,o),
(767,119,o),
(615,119,qs),
(344,119,o),
(344,413,qs),
(344,1082,l),
(163,1082,l),
(163,419,ls),
(163,196,o),
(380,-20,o),
(607,-20,qs),
(842,-20,o),
(1092,285,o),
(1092,571,qs)
);
}
);
width = 1229;
}
);
note = upsilon;
unicode = 965;
},
{
glyphname = chi;
lastChange = "2019-12-03 14:54:35 +0000";
layers = (
{
layerId = "BC15D09A-B757-48E3-911F-803B0089DB3F";
shapes = (
{
closed = 1;
nodes = (
(976,-424,l),
(1166,-424,l),
(730,385,l),
(1128,1082,l),
(941,1082,l),
(647,543,l),
(485,838,ls),
(400,994,o),
(276,1104,o),
(186,1104,qs),
(113,1104,o),
(58,1079,q),
(92,948,l),
(121,963,o),
(152,963,qs),
(203,963,o),
(297,851,o),
(356,744,qs),
(546,401,l),
(76,-424,l),
(264,-424,l),
(627,239,l)
);
}
);
width = 1229;
}
);
note = chi;
unicode = 967;
},
{
glyphname = psi;
lastChange = "2019-12-03 14:54:35 +0000";
layers = (
{
layerId = "BC15D09A-B757-48E3-911F-803B0089DB3F";
shapes = (
{
closed = 1;
nodes = (
(692,1340,l),
(532,1340,l),
(532,114,l),
(372,119,o),
(249,265,o),
(249,436,qs),
(249,1082,l),
(88,1082,l),
(88,438,ls),
(88,195,o),
(296,-18,o),
(532,-20,q),
(532,-425,l),
(692,-425,l),
(692,-20,l),
(929,-18,o),
(1137,195,o),
(1137,438,qs),
(1137,1082,l),
(978,1082,l),
(978,436,ls),
(978,264,o),
(853,116,o),
(692,114,q)
);
}
);
width = 1229;
}
);
note = psi;
unicode = 968;
},
{
glyphname = omega;
lastChange = "2019-12-03 14:54:35 +0000";
layers = (
{
layerId = "BC15D09A-B757-48E3-911F-803B0089DB3F";
shapes = (
{
closed = 1;
nodes = (
(695,701,l),
(536,701,l),
(536,449,ls),
(536,296,o),
(445,113,o),
(370,113,qs),
(299,113,o),
(224,323,o),
(224,512,qs),
(224,711,o),
(327,943,o),
(424,969,q),
(393,1103,l),
(236,1070,o),
(53,747,o),
(53,517,qs),
(53,268,o),
(216,-20,o),
(357,-20,qs),
(456,-20,o),
(589,126,o),
(613,247,q),
(617,247,l),
(641,127,o),
(773,-20,o),
(873,-20,qs),
(1015,-20,o),
(1177,269,o),
(1177,517,qs),
(1177,748,o),
(993,1071,o),
(837,1103,q),
(806,969,l),
(903,943,o),
(1006,706,o),
(1006,512,qs),
(1006,322,o),
(931,113,o),
(860,113,qs),
(787,113,o),
(695,295,o),
(695,449,qs)
);
}
);
width = 1229;
}
);
note = omega;
unicode = 969;
},
{
glyphname = uni0402;
lastChange = "2019-12-03 14:54:35 +0000";
layers = (
{
layerId = "BC15D09A-B757-48E3-911F-803B0089DB3F";
shapes = (
{
closed = 1;
nodes = (
(1008,-20,o),
(1162,170,o),
(1162,341,qs),
(1162,565,ls),
(1162,753,o),
(986,930,o),
(804,930,qs),
(748,930,o),
(613,907,o),
(484,871,q),
(484,1193,l),
(823,1193,l),
(823,1349,l),
(0,1349,l),
(0,1193,l),
(294,1193,l),
(294,0,l),
(484,0,l),
(484,726,l),
(681,776,o),
(796,776,qs),
(892,776,o),
(972,667,o),
(972,545,qs),
(972,346,ls),
(972,236,o),
(912,134,o),
(868,134,qs),
(823,134,o),
(758,185,o),
(729,236,q),
(628,122,l),
(661,60,o),
(791,-20,o),
(869,-20,qs)
);
}
);
width = 1229;
}
);
note = uni0402;
unicode = 1026;
},
{
glyphname = uni0404;
lastChange = "2019-12-03 14:54:35 +0000";
layers = (
{
layerId = "BC15D09A-B757-48E3-911F-803B0089DB3F";
shapes = (
{
closed = 1;
nodes = (
(742,609,l),
(742,754,l),
(315,754,l),
(325,987,o),
(490,1214,o),
(650,1214,qs),
(753,1214,o),
(910,1083,o),
(947,970,q),
(1115,1035,l),
(988,1370,o),
(649,1370,qs),
(113,1370,o),
(113,681,qs),
(113,342,o),
(396,-20,o),
(659,-20,qs),
(993,-20,o),
(1142,352,q),
(983,417,l),
(926,272,o),
(762,135,o),
(661,135,qs),
(336,135,o),
(315,609,q)
);
}
);
width = 1229;
}
);
note = uni0404;
unicode = 1028;
},
{
glyphname = uni0409;
lastChange = "2019-12-03 14:54:35 +0000";
layers = (
{
layerId = "BC15D09A-B757-48E3-911F-803B0089DB3F";
shapes = (
{
closed = 1;
nodes = (
(1201,568,o),
(995,773,o),
(824,773,qs),
(782,773,l),
(782,1349,l),
(291,1349,l),
(237,620,o),
(205,343,o),
(166,184,o),
(109,119,o),
(51,119,qs),
(19,119,o),
(0,126,q),
(0,-6,l),
(28,-16,o),
(81,-16,qs),
(201,-16,o),
(316,114,o),
(379,443,o),
(401,781,qs),
(430,1209,l),
(611,1209,l),
(611,0,l),
(836,0,ls),
(997,0,o),
(1201,220,o),
(1201,393,qs)
);
},
{
closed = 1;
nodes = (
(1039,277,o),
(929,141,o),
(839,141,qs),
(782,141,l),
(782,633,l),
(831,633,ls),
(921,633,o),
(1039,499,o),
(1039,391,qs)
);
}
);
width = 1229;
}
);
note = uni0409;
unicode = 1033;
},
{
glyphname = uni040A;
lastChange = "2019-12-03 14:54:35 +0000";
layers = (
{
layerId = "BC15D09A-B757-48E3-911F-803B0089DB3F";
shapes = (
{
closed = 1;
nodes = (
(561,1349,l),
(561,773,l),
(232,773,l),
(232,1349,l),
(71,1349,l),
(71,0,l),
(232,0,l),
(232,633,l),
(561,633,l),
(561,0,l),
(836,0,ls),
(997,0,o),
(1201,220,o),
(1201,393,qs),
(1201,568,o),
(995,773,o),
(824,773,qs),
(732,773,l),
(732,1349,l)
);
},
{
closed = 1;
nodes = (
(1039,277,o),
(929,141,o),
(839,141,qs),
(732,141,l),
(732,633,l),
(831,633,ls),
(921,633,o),
(1039,499,o),
(1039,391,qs)
);
}
);
width = 1229;
}
);
note = uni040A;
unicode = 1034;
},
{
glyphname = uni040B;
lastChange = "2019-12-03 14:54:35 +0000";
layers = (
{
layerId = "BC15D09A-B757-48E3-911F-803B0089DB3F";
shapes = (
{
closed = 1;
nodes = (
(1162,0,l),
(1162,565,ls),
(1162,753,o),
(986,930,o),
(804,930,qs),
(748,930,o),
(613,907,o),
(484,871,q),
(484,1193,l),
(823,1193,l),
(823,1349,l),
(0,1349,l),
(0,1193,l),
(294,1193,l),
(294,0,l),
(484,0,l),
(484,726,l),
(681,776,o),
(796,776,qs),
(892,776,o),
(972,667,o),
(972,545,qs),
(972,0,l)
);
}
);
width = 1229;
}
);
note = uni040B;
unicode = 1035;
},
{
glyphname = uni040F;
lastChange = "2019-12-03 14:54:35 +0000";
layers = (
{
layerId = "BC15D09A-B757-48E3-911F-803B0089DB3F";
shapes = (
{
closed = 1;
nodes = (
(704,-425,l),
(704,0,l),
(1072,0,l),
(1072,1349,l),
(881,1349,l),
(881,160,l),
(347,160,l),
(347,1349,l),
(156,1349,l),
(156,0,l),
(524,0,l),
(524,-425,l)
);
}
);
width = 1229;
}
);
note = uni040F;
unicode = 1039;
},
{
glyphname = uni0411;
lastChange = "2019-12-03 14:54:35 +0000";
layers = (
{
layerId = "BC15D09A-B757-48E3-911F-803B0089DB3F";
shapes = (
{
closed = 1;
nodes = (
(1172,579,o),
(917,783,o),
(675,783,qs),
(353,783,l),
(353,1193,l),
(1080,1193,l),
(1080,1349,l),
(162,1349,l),
(162,0,l),
(687,0,ls),
(917,0,o),
(1172,210,o),
(1172,393,qs)
);
},
{
closed = 1;
nodes = (
(980,263,o),
(824,151,o),
(660,151,qs),
(353,151,l),
(353,623,l),
(652,623,ls),
(816,623,o),
(980,508,o),
(980,387,qs)
);
}
);
width = 1229;
}
);
note = uni0411;
unicode = 1041;
},
{
glyphname = uni0414;
lastChange = "2019-12-03 14:54:35 +0000";
layers = (
{
layerId = "BC15D09A-B757-48E3-911F-803B0089DB3F";
shapes = (
{
closed = 1;
nodes = (
(1024,1349,l),
(420,1349,l),
(353,839,ls),
(322,595,o),
(217,266,o),
(124,150,q),
(5,150,l),
(5,-408,l),
(165,-408,l),
(165,0,l),
(1039,0,l),
(1039,-408,l),
(1199,-408,l),
(1199,150,l),
(1024,150,l)
);
},
{
closed = 1;
nodes = (
(858,150,l),
(319,150,l),
(392,267,o),
(481,578,o),
(514,821,qs),
(563,1199,l),
(858,1199,l)
);
}
);
width = 1229;
}
);
note = uni0414;
unicode = 1044;
},
{
glyphname = uni0416;
lastChange = "2019-12-03 14:54:35 +0000";
layers = (
{
layerId = "BC15D09A-B757-48E3-911F-803B0089DB3F";
shapes = (
{
closed = 1;
nodes = (
(694,0,l),
(694,607,l),
(780,628,l),
(796,633,l),
(1043,0,l),
(1228,0,l),
(913,720,l),
(978,785,o),
(1018,877,qs),
(1219,1349,l),
(1046,1349,l),
(898,963,ls),
(857,860,o),
(762,762,o),
(694,746,q),
(694,1349,l),
(534,1349,l),
(534,746,l),
(466,762,o),
(371,860,o),
(330,963,qs),
(182,1349,l),
(9,1349,l),
(210,877,ls),
(253,780,o),
(314,719,q),
(0,0,l),
(185,0,l),
(432,633,l),
(509,613,l),
(534,607,l),
(534,0,l)
);
}
);
width = 1229;
}
);
note = uni0416;
unicode = 1046;
},
{
glyphname = uni0417;
lastChange = "2019-12-03 14:54:35 +0000";
layers = (
{
layerId = "BC15D09A-B757-48E3-911F-803B0089DB3F";
shapes = (
{
closed = 1;
nodes = (
(775,-20,o),
(1011,83,o),
(1136,270,o),
(1136,391,qs),
(1136,515,o),
(962,684,o),
(814,706,q),
(950,739,o),
(1094,898,o),
(1094,1016,qs),
(1094,1175,o),
(841,1369,o),
(630,1369,qs),
(430,1369,o),
(166,1201,o),
(96,1028,q),
(271,967,l),
(321,1096,o),
(497,1214,o),
(623,1214,qs),
(751,1214,o),
(903,1100,o),
(903,999,qs),
(903,894,o),
(729,772,o),
(549,772,qs),
(478,772,l),
(478,624,l),
(549,624,ls),
(751,624,o),
(943,510,o),
(943,388,qs),
(943,271,o),
(767,133,o),
(614,133,qs),
(351,133,o),
(232,405,q),
(67,328,l),
(152,142,o),
(418,-20,o),
(621,-20,qs)
);
}
);
width = 1229;
}
);
note = uni0417;
unicode = 1047;
},
{
glyphname = uni0418;
lastChange = "2019-12-03 14:54:35 +0000";
layers = (
{
layerId = "BC15D09A-B757-48E3-911F-803B0089DB3F";
shapes = (
{
closed = 1;
nodes = (
(392,0,l),
(912,1130,l),
(896,958,o),
(896,876,qs),
(896,0,l),
(1066,0,l),
(1066,1349,l),
(844,1349,l),
(316,211,l),
(334,355,o),
(334,485,qs),
(334,1349,l),
(162,1349,l),
(162,0,l)
);
}
);
width = 1229;
}
);
note = uni0418;
unicode = 1048;
},
{
glyphname = uni041A;
lastChange = "2019-12-03 14:54:35 +0000";
layers = (
{
layerId = "BC15D09A-B757-48E3-911F-803B0089DB3F";
shapes = (
{
closed = 1;
nodes = (
(168,0,l),
(359,0,l),
(359,609,l),
(394,609,o),
(496,632,o),
(532,647,q),
(959,0,l),
(1181,0,l),
(672,735,l),
(727,776,o),
(799,859,o),
(840,919,qs),
(1136,1349,l),
(934,1349,l),
(683,970,ls),
(610,861,o),
(452,760,o),
(359,760,q),
(359,1349,l),
(168,1349,l)
);
}
);
width = 1229;
}
);
note = uni041A;
unicode = 1050;
},
{
glyphname = uni041B;
lastChange = "2019-12-03 14:54:35 +0000";
layers = (
{
layerId = "BC15D09A-B757-48E3-911F-803B0089DB3F";
shapes = (
{
closed = 1;
nodes = (
(931,0,l),
(1117,0,l),
(1117,1349,l),
(390,1349,l),
(329,869,ls),
(303,662,o),
(249,378,o),
(191,215,o),
(115,139,o),
(54,139,qs),
(17,139,o),
(-2,146,q),
(-2,-6,l),
(26,-16,o),
(84,-16,qs),
(216,-16,o),
(362,119,o),
(460,456,o),
(510,851,qs),
(553,1189,l),
(931,1189,l)
);
}
);
width = 1229;
}
);
note = uni041B;
unicode = 1051;
},
{
glyphname = uni041F;
lastChange = "2019-12-03 14:54:35 +0000";
layers = (
{
layerId = "BC15D09A-B757-48E3-911F-803B0089DB3F";
shapes = (
{
closed = 1;
nodes = (
(1066,0,l),
(1066,1349,l),
(162,1349,l),
(162,0,l),
(353,0,l),
(353,1189,l),
(875,1189,l),
(875,0,l)
);
}
);
width = 1229;
}
);
note = uni041F;
unicode = 1055;
},
{
glyphname = uni0423;
lastChange = "2019-12-03 14:54:35 +0000";
layers = (
{
layerId = "BC15D09A-B757-48E3-911F-803B0089DB3F";
shapes = (
{
closed = 1;
nodes = (
(363,-20,o),
(488,38,o),
(596,166,o),
(674,318,qs),
(1206,1349,l),
(1001,1349,l),
(652,610,l),
(235,1349,l),
(20,1349,l),
(558,440,l),
(483,296,o),
(426,208,o),
(372,155,o),
(314,135,o),
(276,135,qs),
(204,135,o),
(110,194,q),
(29,50,l),
(75,18,o),
(210,-20,o),
(272,-20,qs)
);
}
);
width = 1229;
}
);
note = uni0423;
unicode = 1059;
},
{
glyphname = uni0426;
lastChange = "2019-12-03 14:54:35 +0000";
layers = (
{
layerId = "BC15D09A-B757-48E3-911F-803B0089DB3F";
shapes = (
{
closed = 1;
nodes = (
(1032,160,l),
(1032,1349,l),
(841,1349,l),
(841,160,l),
(319,160,l),
(319,1349,l),
(128,1349,l),
(128,0,l),
(1027,0,l),
(1027,-425,l),
(1207,-425,l),
(1207,160,l)
);
}
);
width = 1229;
}
);
note = uni0426;
unicode = 1062;
},
{
glyphname = uni0427;
lastChange = "2019-12-03 14:54:35 +0000";
layers = (
{
layerId = "BC15D09A-B757-48E3-911F-803B0089DB3F";
shapes = (
{
closed = 1;
nodes = (
(883,0,l),
(1073,0,l),
(1073,1349,l),
(883,1349,l),
(883,623,l),
(638,574,o),
(519,574,qs),
(285,574,o),
(285,805,qs),
(285,1349,l),
(95,1349,l),
(95,785,ls),
(95,607,o),
(299,420,o),
(505,420,qs),
(567,420,o),
(716,441,o),
(883,478,q)
);
}
);
width = 1229;
}
);
note = uni0427;
unicode = 1063;
},
{
glyphname = uni0428;
lastChange = "2019-12-03 14:54:35 +0000";
layers = (
{
layerId = "BC15D09A-B757-48E3-911F-803B0089DB3F";
shapes = (
{
closed = 1;
nodes = (
(1139,0,l),
(1139,1349,l),
(977,1349,l),
(977,140,l),
(695,140,l),
(695,1349,l),
(533,1349,l),
(533,140,l),
(251,140,l),
(251,1349,l),
(89,1349,l),
(89,0,l)
);
}
);
width = 1229;
}
);
note = uni0428;
unicode = 1064;
},
{
glyphname = uni0429;
lastChange = "2019-12-03 14:54:35 +0000";
layers = (
{
layerId = "BC15D09A-B757-48E3-911F-803B0089DB3F";
shapes = (
{
closed = 1;
nodes = (
(1228,-425,l),
(1228,140,l),
(1086,140,l),
(1086,1349,l),
(924,1349,l),
(924,140,l),
(667,140,l),
(667,1349,l),
(505,1349,l),
(505,140,l),
(248,140,l),
(248,1349,l),
(86,1349,l),
(86,0,l),
(1086,0,l),
(1086,-425,l)
);
}
);
width = 1229;
}
);
note = uni0429;
unicode = 1065;
},
{
glyphname = uni042A;
lastChange = "2019-12-03 14:54:35 +0000";
layers = (
{
layerId = "BC15D09A-B757-48E3-911F-803B0089DB3F";
shapes = (
{
closed = 1;
nodes = (
(526,1349,l),
(0,1349,l),
(0,1193,l),
(335,1193,l),
(335,0,l),
(670,0,ls),
(900,0,o),
(1155,210,o),
(1155,393,qs),
(1155,579,o),
(900,783,o),
(658,783,qs),
(526,783,l)
);
},
{
closed = 1;
nodes = (
(963,267,o),
(807,151,o),
(643,151,qs),
(526,151,l),
(526,623,l),
(635,623,ls),
(799,623,o),
(963,512,o),
(963,391,qs)
);
}
);
width = 1229;
}
);
note = uni042A;
unicode = 1066;
},
